0
SECTION
2
HEADER
9
$EXTMAX
10
841.0000000000
20
594.0000000000
9
$EXTMIN
10
0.0000000000
20
0.0000000000
9
$LIMMIN
10
0.0000000000
20
0.0000000000
9
$LIMMAX
10
841.0000000000
20
594.0000000000
9
$VIEWCTR
10
420.5000000000
20
297.0000000000
9
$VIEWSIZE
40
594.0000000000
9
$CLAYER
8
0
9
$LTSCALE
40
46.2550000000
9
$CELTYPE
6
BYLAYER
9
$DIMSCALE
40
1
9
$DIMASZ
40
3.5000000000
9
$DIMEXO
40
5.2562500000
9
$DIMDLI
40
31.9580000000
9
$DIMEXE
40
15.1380000000
9
$DIMCEN
40
7.5690000000
9
$DIMLFAC
40
1.0000000000
0
ENDSEC
0
SECTION
2
TABLES
0
TABLE
2
LTYPE
70
6
0
LTYPE
2
BYBLOCK
70
0
3

72
65
73
0
40
0.0
0
LTYPE
2
BYLAYER
70
0
3

72
65
73
0
40
0.0
0
LTYPE
2
CONTINUOUS
70
64
3
Solid line
72
65
73
0
40
0
0
LTYPE
2
CENTER
70
64
3
____ _ ____ _ ____ _ ____ _ ____ _ ____ _ ____
72
65
73
4
40
0.6
49
0.375
49
-0.075
49
0.075
49
-0.075
0
LTYPE
2
HIDDEN
70
64
3
- - - - - - - - - - - - - - - - - - - -
72
65
73
2
40
0.2
49
0.1
49
-0.1
0
LTYPE
2
PHANTOM
70
64
3
_____ _ _ _____ _ _ _____ _ _ _____
72
65
73
6
40
0.8
49
0.45
49
-0.05
49
0.1
49
-0.05
49
0.1
49
-0.05
0
LTYPE
2
DOT
70
64
3
. . . . . . . . . . . . . . . . . . . .
72
65
73
2
40
0.2
49
0.1
49
-0.1
0
LTYPE
2
DASHED
70
64
3
- - - - - - - - - - - - - - - - - - - -
72
65
73
2
40
0.2
49
0.1
49
-0.1
0
ENDTAB
0
TABLE
2
LAYER
70
36
0
LAYER
2
0
70
0
62
7
6
CONTINUOUS
0
LAYER
2
DEFAULT_1
70
0
62
7
6
CENTER
0
LAYER
2
DEFAULT_2
70
0
62
8
6
HIDDEN
0
LAYER
2
DEFAULT_3
70
0
62
7
6
PHANTOM
0
LAYER
2
10000_FRONT
70
0
62
7
6
CONTINUOUS
0
LAYER
2
10100_DIM_FRONT
70
0
62
7
6
CONTINUOUS
0
LAYER
2
10300_FRONT_GERMAN_ENGLISH
70
0
62
7
6
CONTINUOUS
0
LAYER
2
11000_LEFT
70
0
62
7
6
CONTINUOUS
0
LAYER
2
11100_DIM_LEFT
70
0
62
7
6
CONTINUOUS
0
LAYER
2
11300_LEFT_GERMAN_ENGLISH
70
0
62
7
6
CONTINUOUS
0
LAYER
2
12000_RIGHT
70
0
62
7
6
CONTINUOUS
0
LAYER
2
12100_DIM_RIGHT
70
0
62
7
6
CONTINUOUS
0
LAYER
2
12300_RIGHT_GERMAN_ENGLISH
70
0
62
7
6
CONTINUOUS
0
LAYER
2
13000_TOP
70
0
62
7
6
CONTINUOUS
0
LAYER
2
13100_DIM_TOP
70
0
62
7
6
CONTINUOUS
0
LAYER
2
13300_TOP_GERMAN_ENGLISH
70
0
62
7
6
CONTINUOUS
0
LAYER
2
14000_BOTTOM
70
0
62
7
6
CONTINUOUS
0
LAYER
2
14100_DIM_BOTTOM
70
0
62
7
6
CONTINUOUS
0
LAYER
2
14300_BOTTOM_GERMAN_ENGLISH
70
0
62
7
6
CONTINUOUS
0
LAYER
2
15000_BACK
70
0
62
7
6
CONTINUOUS
0
LAYER
2
15100_DIM_BACK
70
0
62
7
6
CONTINUOUS
0
LAYER
2
15300_BACK_GERMAN_ENGLISH
70
0
62
7
6
CONTINUOUS
0
LAYER
2
20000_FRONT_O
70
0
62
7
6
CONTINUOUS
0
LAYER
2
20100_DIM_FRONT_O
70
0
62
7
6
CONTINUOUS
0
LAYER
2
20300_FRONT_O_GERMAN_ENGLISH
70
0
62
7
6
CONTINUOUS
0
LAYER
2
40000_ISO
70
0
62
7
6
CONTINUOUS
0
LAYER
2
40300_ISO_GERMAN_ENGLISH
70
0
62
7
6
CONTINUOUS
0
LAYER
2
50000_WIRING
70
0
62
7
6
CONTINUOUS
0
LAYER
2
50300_WIRING_GERMAN_ENGLISH
70
0
62
7
6
CONTINUOUS
0
LAYER
2
90000_FRAME
70
0
62
7
6
CONTINUOUS
0
LAYER
2
91000_TIP
70
0
62
7
6
CONTINUOUS
0
ENDTAB
0
ENDSEC
0
SECTION
2
BLOCKS
0
ENDSEC
0
SECTION
2
ENTITIES
0
TEXT
8
90000_FRAME
62
7
6
CONTINUOUS
10
746.6600000000
20
11.9000000000
40
2.2000000000
1
Format / Size: DIN A1
72
5
11
779.7647619048
21
11.9000000000
0
TEXT
8
90000_FRAME
62
7
6
CONTINUOUS
10
789.1600000000
20
11.9000000000
40
2.2000000000
1
Massstab / Scale: 1:1
72
5
11
820.0647619048
21
11.9000000000
0
TEXT
8
90000_FRAME
62
7
6
CONTINUOUS
10
771.5000000000
20
20.2500000000
40
3.5000000000
1
6ES57108MA41_001
72
5
11
813.2500000000
21
20.2500000000
0
TEXT
8
0
62
7
6
CONTINUOUS
10
11.2756234532
20
15.1898617812
40
3.5000000000
1
Alle Bemassungswerte sind in Millimeter (mm) angegeben.
72
5
11
145.8589567865
21
15.1898617812
0
TEXT
8
0
62
7
6
CONTINUOUS
10
11.2756234532
20
9.9398617812
40
3.5000000000
1
All dimensions are in millimeters (mm).
72
5
11
104.4422901199
21
9.9398617812
0
LINE
8
90000_FRAME
62
7
6
CONTINUOUS
10
0.0000000000
20
594.0000000000
11
0.0000000000
21
0.0000000000
0
LINE
8
90000_FRAME
62
7
6
CONTINUOUS
10
5.0000000000
20
589.0000000000
11
5.0000000000
21
5.0000000000
0
LINE
8
40000_ISO
62
7
6
CONTINUOUS
10
44.0301840519
20
505.0061202385
11
43.8935947144
21
504.4073224968
0
LINE
8
40000_ISO
62
7
6
CONTINUOUS
10
52.8733703992
20
512.5488889282
11
52.7886024327
21
512.2636386129
0
LINE
8
40000_ISO
62
7
6
CONTINUOUS
10
44.2519931002
20
505.6133588894
11
44.0301840519
21
505.0061202385
0
LINE
8
40000_ISO
62
7
6
CONTINUOUS
10
52.7886024327
20
512.2636386129
11
52.6537560713
21
511.9828616696
0
LINE
8
40000_ISO
62
7
6
CONTINUOUS
10
44.5504978618
20
506.2057026087
11
44.2519931002
21
505.6133588894
0
LINE
8
40000_ISO
62
7
6
CONTINUOUS
10
44.9142269663
20
506.7603879594
11
44.5504978618
21
506.2057026087
0
LINE
8
40000_ISO
62
7
6
CONTINUOUS
10
52.6537560713
20
511.9828616696
11
52.4780208717
21
511.7256925831
0
LINE
8
40000_ISO
62
7
6
CONTINUOUS
10
45.3292025081
20
507.2560986946
11
44.9142269663
21
506.7603879594
0
LINE
8
40000_ISO
62
7
6
CONTINUOUS
10
52.4780208717
20
511.7256925831
11
52.2733728973
21
511.5096570015
0
LINE
8
40000_ISO
62
7
6
CONTINUOUS
10
45.7794772099
20
507.6737849287
11
45.3292025081
21
507.2560986946
0
LINE
8
40000_ISO
62
7
6
CONTINUOUS
10
43.8935947144
20
504.4073224968
11
43.8474741393
21
503.8399771256
0
LINE
8
40000_ISO
62
7
6
CONTINUOUS
10
52.9022831740
20
512.8191732780
11
52.8733703992
21
512.5488889282
0
LINE
8
40000_ISO
62
7
6
CONTINUOUS
10
52.2733728973
20
511.5096570015
11
52.0537585694
21
511.3494773928
0
LINE
8
40000_ISO
62
7
6
CONTINUOUS
10
46.2477472674
20
507.9973952139
11
45.7794772099
21
507.6737849287
0
LINE
8
40000_ISO
62
7
6
CONTINUOUS
10
44.5545779765
20
529.3148454853
11
43.8474741393
21
528.9066013315
0
LINE
8
40000_ISO
62
7
6
CONTINUOUS
10
52.0537585694
20
529.1537102807
11
48.4437486706
21
527.0694825351
0
LINE
8
40000_ISO
62
7
6
CONTINUOUS
10
43.8474741393
20
525.3956409378
11
43.8935947144
21
524.8815507017
0
LINE
8
40000_ISO
62
7
6
CONTINUOUS
10
43.8474741393
20
528.9066013315
11
43.8474741393
21
525.3956409378
0
LINE
8
40000_ISO
62
7
6
CONTINUOUS
10
43.8474741393
20
503.8399771256
11
43.8474741393
21
500.3290167319
0
LINE
8
40000_ISO
62
7
6
CONTINUOUS
10
52.9022831740
20
519.0198960650
11
52.9022831740
21
512.8191732780
0
LINE
8
40000_ISO
62
7
6
CONTINUOUS
10
52.0537585694
20
511.3494773928
11
46.2477472674
21
507.9973952139
0
LINE
8
40000_ISO
62
7
6
CONTINUOUS
10
52.5220286269
20
529.3708084554
11
52.0537585694
21
529.1537102807
0
LINE
8
91000_TIP
62
7
6
CONTINUOUS
10
669.7690054113
20
20.5214774899
11
679.7690052071
21
23.0214774388
0
LINE
8
40000_ISO
62
7
6
CONTINUOUS
10
808.2632825289
20
83.2202299953
11
808.7135572307
21
83.3224730983
0
LINE
8
40000_ISO
62
7
6
CONTINUOUS
10
815.9063833494
20
89.0028198525
11
815.4561086476
21
88.9005767496
0
LINE
8
90000_FRAME
62
7
6
CONTINUOUS
10
0.0000000000
20
0.0000000000
11
841.0000000000
21
0.0000000000
0
LINE
8
90000_FRAME
62
7
6
CONTINUOUS
10
5.0000000000
20
5.0000000000
11
836.0000000000
21
5.0000000000
0
LINE
8
40000_ISO
62
7
6
CONTINUOUS
10
43.8935947144
20
524.8815507017
11
44.0301840519
21
524.4404718000
0
LINE
8
90000_FRAME
62
7
6
CONTINUOUS
10
696.0000000000
20
10.0000000000
11
831.0000000000
21
10.0000000000
0
LINE
8
90000_FRAME
62
7
6
CONTINUOUS
10
746.0000000000
20
16.0000000000
11
831.0000000000
21
16.0000000000
0
LINE
8
90000_FRAME
62
7
6
CONTINUOUS
10
719.5642263739
20
16.2683477777
11
720.4198148089
21
16.2683477777
0
LINE
8
90000_FRAME
62
7
6
CONTINUOUS
10
732.7545480800
20
16.3158804685
11
731.2335019733
21
16.3158804685
0
LINE
8
90000_FRAME
62
7
6
CONTINUOUS
10
723.1291781863
20
16.3158804685
11
721.7507301522
21
16.3158804685
0
LINE
8
90000_FRAME
62
7
6
CONTINUOUS
10
710.3904170431
20
16.3158804685
11
711.8163977681
21
16.3158804685
0
LINE
8
90000_FRAME
62
7
6
CONTINUOUS
10
712.9096496573
20
16.3158804685
11
716.4746014697
21
16.3158804685
0
LINE
8
90000_FRAME
62
7
6
CONTINUOUS
10
717.2826572139
20
16.3158804685
11
718.2333110305
21
16.3158804685
0
LINE
8
90000_FRAME
62
7
6
CONTINUOUS
10
724.2224300755
20
16.3158804685
11
727.7873818879
21
16.3158804685
0
LINE
8
90000_FRAME
62
7
6
CONTINUOUS
10
728.5716712867
20
16.3158804685
11
729.5223251033
21
16.3158804685
0
LINE
8
90000_FRAME
62
7
6
CONTINUOUS
10
727.7873818879
20
17.2190015943
11
725.6008781096
21
17.2190015943
0
LINE
8
90000_FRAME
62
7
6
CONTINUOUS
10
716.4746014697
20
17.2190015943
11
714.2880976914
21
17.2190015943
0
LINE
8
91000_TIP
62
7
6
CENTER
10
668.4894949393
20
18.0214775409
11
692.0914842034
21
18.0214775409
0
LINE
8
90000_FRAME
62
7
6
CONTINUOUS
10
727.4546530521
20
18.3360198289
11
725.6008781096
21
18.3360198289
0
LINE
8
90000_FRAME
62
7
6
CONTINUOUS
10
716.1418726339
20
18.3360198289
11
714.2880976914
21
18.3360198289
0
LINE
8
90000_FRAME
62
7
6
CONTINUOUS
10
727.4546530521
20
19.1203092276
11
725.6008781096
21
19.1203092276
0
LINE
8
90000_FRAME
62
7
6
CONTINUOUS
10
716.1418726339
20
19.1203092276
11
714.2880976914
21
19.1203092276
0
LINE
8
90000_FRAME
62
7
6
CONTINUOUS
10
727.7398491971
20
20.1897947714
11
725.6008781096
21
20.1897947714
0
LINE
8
90000_FRAME
62
7
6
CONTINUOUS
10
716.4270687789
20
20.1897947714
11
714.2880976914
21
20.1897947714
0
LINE
8
90000_FRAME
62
7
6
CONTINUOUS
10
732.7545480800
20
21.0691495518
11
731.8038942633
21
21.0691495518
0
LINE
8
90000_FRAME
62
7
6
CONTINUOUS
10
730.1164837387
20
21.0691495518
11
728.5716712867
21
21.0691495518
0
LINE
8
90000_FRAME
62
7
6
CONTINUOUS
10
727.7398491971
20
21.0691495518
11
724.2224300755
21
21.0691495518
0
LINE
8
90000_FRAME
62
7
6
CONTINUOUS
10
723.1291781863
20
21.0691495518
11
721.4180013163
21
21.0691495518
0
LINE
8
90000_FRAME
62
7
6
CONTINUOUS
10
718.9938340839
20
21.0691495518
11
717.2826572139
21
21.0691495518
0
LINE
8
90000_FRAME
62
7
6
CONTINUOUS
10
716.4270687789
20
21.0691495518
11
712.9096496573
21
21.0691495518
0
LINE
8
90000_FRAME
62
7
6
CONTINUOUS
10
710.3904170431
20
21.0691495518
11
711.8163977681
21
21.0691495518
0
LINE
8
90000_FRAME
62
7
6
CONTINUOUS
10
696.0000000000
20
28.0000000000
11
831.0000000000
21
28.0000000000
0
LINE
8
40000_ISO
62
7
6
CONTINUOUS
10
808.9622129603
20
85.2379887358
11
808.7575649859
21
85.2177186017
0
LINE
8
40000_ISO
62
7
6
CONTINUOUS
10
815.2074529181
20
86.9850611120
11
815.4121008925
21
87.0053312461
0
LINE
8
91000_TIP
62
7
6
CONTINUOUS
10
669.7690054113
20
15.5214775920
11
679.7690052071
21
13.0214776430
0
LINE
8
40000_ISO
62
7
6
CONTINUOUS
10
807.8483069871
20
83.2367711092
11
808.2632825289
21
83.2202299953
0
LINE
8
40000_ISO
62
7
6
CONTINUOUS
10
816.3213588912
20
88.9862787386
11
815.9063833494
21
89.0028198525
0
LINE
8
40000_ISO
62
7
6
CONTINUOUS
10
44.0301840519
20
524.4404718000
11
44.2519931002
21
524.0893546477
0
LINE
8
40000_ISO
62
7
6
CONTINUOUS
10
808.7575649859
20
85.2177186017
11
808.5818373810
21
85.2719629851
0
LINE
8
40000_ISO
62
7
6
CONTINUOUS
10
815.4121008925
20
87.0053312461
11
815.5878284974
21
86.9510868627
0
LINE
8
40000_ISO
62
7
6
CONTINUOUS
10
807.4845994743
20
83.3714483081
11
807.8483069871
21
83.2367711092
0
LINE
8
40000_ISO
62
7
6
CONTINUOUS
10
816.6850664040
20
88.8516015397
11
816.3213588912
21
88.9862787386
0
LINE
8
40000_ISO
62
7
6
CONTINUOUS
10
44.2519931002
20
524.0893546477
11
44.5505194535
21
523.8416800139
0
LINE
8
40000_ISO
62
7
6
CONTINUOUS
10
43.8474741393
20
500.3290167319
11
466.8108468823
21
256.1365239937
0
LINE
8
40000_ISO
62
7
6
CONTINUOUS
10
490.2470121254
20
242.6059537842
11
806.7815541601
21
59.8587850261
0
LINE
8
40000_ISO
62
7
6
CONTINUOUS
10
43.8474741393
20
503.8399771256
11
469.5739237612
21
258.0522572964
0
LINE
8
40000_ISO
62
7
6
CONTINUOUS
10
493.0100890044
20
244.5216870869
11
806.7815541601
21
63.3697454198
0
LINE
8
40000_ISO
62
7
6
CONTINUOUS
10
46.2477472674
20
507.9973952139
11
471.8421132582
21
262.2859321795
0
LINE
8
40000_ISO
62
7
6
CONTINUOUS
10
494.9914689755
20
248.9209477810
11
809.1818272882
21
67.5271635081
0
LINE
8
40000_ISO
62
7
6
CONTINUOUS
10
52.0537585694
20
511.3494773928
11
472.1094505947
21
268.8356969221
0
LINE
8
40000_ISO
62
7
6
CONTINUOUS
10
495.2588063119
20
255.4707125236
11
814.9878385901
21
70.8792456870
0
LINE
8
40000_ISO
62
7
6
CONTINUOUS
10
52.9022831740
20
512.8191732780
11
472.1875920933
21
270.7501636389
0
LINE
8
40000_ISO
62
7
6
CONTINUOUS
10
495.3369478105
20
257.3851792403
11
815.8363631948
21
72.3489415722
0
LINE
8
40000_ISO
62
7
6
CONTINUOUS
10
44.5505195928
20
523.8416799335
11
474.1950324141
21
275.7919164357
0
LINE
8
40000_ISO
62
7
6
CONTINUOUS
10
497.6311976573
20
262.2613462262
11
807.4845996136
21
83.3714482277
0
LINE
8
40000_ISO
62
7
6
CONTINUOUS
10
43.8474741393
20
525.3956409378
11
475.0985449042
21
276.4183517623
0
LINE
8
40000_ISO
62
7
6
CONTINUOUS
10
498.5347101474
20
262.8877815527
11
806.7815541601
21
84.9254092320
0
LINE
8
40000_ISO
62
7
6
CONTINUOUS
10
808.4575557410
20
85.7495453090
11
809.1818272882
21
85.3313963961
0
LINE
8
40000_ISO
62
7
6
CONTINUOUS
10
43.8474741393
20
528.9066013315
11
477.8616217831
21
278.3340850650
0
LINE
8
40000_ISO
62
7
6
CONTINUOUS
10
501.2977870263
20
264.8035148554
11
806.7815541601
21
88.4363696257
0
LINE
8
40000_ISO
62
7
6
CONTINUOUS
10
44.5545779765
20
529.3148454853
11
478.5041813471
21
278.7795930293
0
LINE
8
40000_ISO
62
7
6
CONTINUOUS
10
501.9403465903
20
265.2490228198
11
807.4886579973
21
88.8446137795
0
LINE
8
40000_ISO
62
7
6
CONTINUOUS
10
814.9878277261
20
86.8916346343
11
815.8363631948
21
86.4017435359
0
LINE
8
40000_ISO
62
7
6
CONTINUOUS
10
52.0537585694
20
529.1537102807
11
481.7846703848
21
281.0540654288
0
LINE
8
40000_ISO
62
7
6
CONTINUOUS
10
505.2208356280
20
267.5234952193
11
814.9878385901
21
88.6834785749
0
LINE
8
40000_ISO
62
7
6
CONTINUOUS
10
53.7509862439
20
529.3218333259
11
482.6881270205
21
281.6804620295
0
LINE
8
40000_ISO
62
7
6
CONTINUOUS
10
506.1242922636
20
268.1498918200
11
816.6850662647
21
88.8516016201
0
LINE
8
40000_ISO
62
7
6
CONTINUOUS
10
472.3409074465
20
274.5063897916
11
471.7303351779
21
259.5473692121
0
LINE
8
40000_ISO
62
7
6
CONTINUOUS
10
482.6881270205
20
281.6804620295
11
472.3409074465
21
274.5063897916
0
LINE
8
40000_ISO
62
7
6
CONTINUOUS
10
471.7303351779
20
259.5473692121
11
466.8108468823
21
256.1365239937
0
LINE
8
40000_ISO
62
7
6
CONTINUOUS
10
495.4749548292
20
260.7663511988
11
494.8643825607
21
245.8073306193
0
LINE
8
40000_ISO
62
7
6
CONTINUOUS
10
506.1242922636
20
268.1498918200
11
495.4749548292
21
260.7663511988
0
LINE
8
40000_ISO
62
7
6
CONTINUOUS
10
494.8643825607
20
245.8073306193
11
490.2470121254
21
242.6059537842
0
LINE
8
40000_ISO
62
7
6
CONTINUOUS
10
53.7509863833
20
529.3218332455
11
53.3872788705
21
529.4565104445
0
LINE
8
40000_ISO
62
7
6
CONTINUOUS
10
807.1860731209
20
83.6191229419
11
807.4845994743
21
83.3714483081
0
LINE
8
40000_ISO
62
7
6
CONTINUOUS
10
816.9835927574
20
88.6039269059
11
816.6850664040
21
88.8516015397
0
LINE
8
40000_ISO
62
7
6
CONTINUOUS
10
808.5818373810
20
85.2719629851
11
808.4469834248
21
85.3970380765
0
LINE
8
40000_ISO
62
7
6
CONTINUOUS
10
815.5878284974
20
86.9510868627
11
815.7226824535
21
86.8260117713
0
LINE
8
90000_FRAME
62
7
6
CONTINUOUS
10
730.1164837387
20
21.0691495518
11
731.8038942633
21
18.1221227201
0
LINE
8
90000_FRAME
62
7
6
CONTINUOUS
10
731.2335019733
20
16.3158804685
11
729.5223251033
21
19.3579726818
0
LINE
8
90000_FRAME
62
7
6
CONTINUOUS
10
719.5642263739
20
16.2683477777
11
718.2333110305
21
19.3579726818
0
LINE
8
90000_FRAME
62
7
6
CONTINUOUS
10
718.9938340839
20
21.0691495518
11
720.2296840455
21
18.1696554110
0
LINE
8
40000_ISO
62
7
6
CONTINUOUS
10
53.3872788705
20
529.4565104445
11
52.9723033286
21
529.4730515583
0
LINE
8
40000_ISO
62
7
6
CONTINUOUS
10
806.9642640727
20
83.9702400942
11
807.1860731209
21
83.6191229419
0
LINE
8
40000_ISO
62
7
6
CONTINUOUS
10
817.2054018057
20
88.2528097536
11
816.9835927574
21
88.6039269059
0
LINE
8
91000_TIP
62
7
6
CONTINUOUS
10
669.7690054113
20
20.5214774899
11
669.7690054113
21
15.5214775920
0
LINE
8
91000_TIP
62
7
6
CONTINUOUS
10
679.7690052071
20
23.0214774388
11
679.7690052071
21
13.0214776430
0
LINE
8
91000_TIP
62
7
6
CENTER
10
686.2690050743
20
12.2999963345
11
686.2690050743
21
23.5833823345
0
LINE
8
40000_ISO
62
7
6
CONTINUOUS
10
808.4469834248
20
85.3970380765
11
808.3622154583
21
85.5844073595
0
LINE
8
90000_FRAME
62
7
6
CONTINUOUS
10
696.0000000000
20
10.0000000000
11
696.0000000000
21
28.0000000000
0
LINE
8
90000_FRAME
62
7
6
CONTINUOUS
10
705.9698767957
20
16.4109458502
11
705.9698767957
21
17.3615996668
0
LINE
8
90000_FRAME
62
7
6
CONTINUOUS
10
709.2971651540
20
20.0709630443
11
709.2971651540
21
21.0216168609
0
LINE
8
90000_FRAME
62
7
6
CONTINUOUS
10
710.3904170431
20
21.0691495518
11
710.3904170431
21
16.3158804685
0
LINE
8
90000_FRAME
62
7
6
CONTINUOUS
10
711.8163977681
20
21.0691495518
11
711.8163977681
21
16.3158804685
0
LINE
8
90000_FRAME
62
7
6
CONTINUOUS
10
712.9096496573
20
21.0691495518
11
712.9096496573
21
16.3158804685
0
LINE
8
90000_FRAME
62
7
6
CONTINUOUS
10
714.2880976914
20
20.1897947714
11
714.2880976914
21
19.1203092276
0
LINE
8
90000_FRAME
62
7
6
CONTINUOUS
10
714.2880976914
20
18.3360198289
11
714.2880976914
21
17.2190015943
0
LINE
8
90000_FRAME
62
7
6
CONTINUOUS
10
716.1418726339
20
19.1203092276
11
716.1418726339
21
18.3360198289
0
LINE
8
90000_FRAME
62
7
6
CONTINUOUS
10
716.4270687789
20
21.0691495518
11
716.4270687789
21
20.1897947714
0
LINE
8
90000_FRAME
62
7
6
CONTINUOUS
10
716.4746014697
20
17.2190015943
11
716.4746014697
21
16.3158804685
0
LINE
8
90000_FRAME
62
7
6
CONTINUOUS
10
717.2826572139
20
16.3158804685
11
717.2826572139
21
21.0691495518
0
LINE
8
90000_FRAME
62
7
6
CONTINUOUS
10
836.0000000000
20
589.0000000000
11
5.0000000000
21
589.0000000000
0
LINE
8
90000_FRAME
62
7
6
CONTINUOUS
10
841.0000000000
20
594.0000000000
11
0.0000000000
21
594.0000000000
0
LINE
8
40000_ISO
62
7
6
CONTINUOUS
10
815.7226824535
20
86.8260117713
11
815.8074504200
21
86.6386424883
0
LINE
8
90000_FRAME
62
7
6
CONTINUOUS
10
718.2333110305
20
16.3158804685
11
718.2333110305
21
19.3579726818
0
LINE
8
90000_FRAME
62
7
6
CONTINUOUS
10
721.7507301522
20
19.4055053726
11
721.7507301522
21
16.3158804685
0
LINE
8
90000_FRAME
62
7
6
CONTINUOUS
10
723.1291781863
20
21.0691495518
11
723.1291781863
21
16.3158804685
0
LINE
8
90000_FRAME
62
7
6
CONTINUOUS
10
724.2224300755
20
21.0691495518
11
724.2224300755
21
16.3158804685
0
LINE
8
90000_FRAME
62
7
6
CONTINUOUS
10
725.6008781096
20
20.1897947714
11
725.6008781096
21
19.1203092276
0
LINE
8
90000_FRAME
62
7
6
CONTINUOUS
10
725.6008781096
20
18.3360198289
11
725.6008781096
21
17.2190015943
0
LINE
8
90000_FRAME
62
7
6
CONTINUOUS
10
727.4546530521
20
19.1203092276
11
727.4546530521
21
18.3360198289
0
LINE
8
90000_FRAME
62
7
6
CONTINUOUS
10
727.7398491971
20
21.0691495518
11
727.7398491971
21
20.1897947714
0
LINE
8
90000_FRAME
62
7
6
CONTINUOUS
10
727.7873818879
20
17.2190015943
11
727.7873818879
21
16.3158804685
0
LINE
8
90000_FRAME
62
7
6
CONTINUOUS
10
728.5716712867
20
16.3158804685
11
728.5716712867
21
21.0691495518
0
LINE
8
90000_FRAME
62
7
6
CONTINUOUS
10
729.5223251033
20
16.3158804685
11
729.5223251033
21
19.3579726818
0
LINE
8
90000_FRAME
62
7
6
CONTINUOUS
10
731.8038942633
20
21.0691495518
11
731.8038942633
21
18.1221227201
0
LINE
8
90000_FRAME
62
7
6
CONTINUOUS
10
732.7545480800
20
21.0691495518
11
732.7545480800
21
16.3158804685
0
LINE
8
90000_FRAME
62
7
6
CONTINUOUS
10
733.5626038241
20
16.4109458502
11
733.5626038241
21
17.3615996668
0
LINE
8
90000_FRAME
62
7
6
CONTINUOUS
10
736.8898921824
20
20.0709630443
11
736.8898921824
21
21.0216168609
0
LINE
8
90000_FRAME
62
7
6
CONTINUOUS
10
746.0000000000
20
10.0000000000
11
746.0000000000
21
28.0000000000
0
LINE
8
40000_ISO
62
7
6
CONTINUOUS
10
52.9723033286
20
529.4730515583
11
52.5220286269
21
529.3708084554
0
LINE
8
40000_ISO
62
7
6
CONTINUOUS
10
806.8276747352
20
84.4113189959
11
806.9642640727
21
83.9702400942
0
LINE
8
40000_ISO
62
7
6
CONTINUOUS
10
817.3419911432
20
87.8117308520
11
817.2054018057
21
88.2528097536
0
LINE
8
40000_ISO
62
7
6
CONTINUOUS
10
808.3622154583
20
85.5844073595
11
807.4886579973
21
88.8446137795
0
LINE
8
40000_ISO
62
7
6
CONTINUOUS
10
815.4561086476
20
88.9005767496
11
814.9878385901
21
88.6834785749
0
LINE
8
40000_ISO
62
7
6
CONTINUOUS
10
809.1818272882
20
85.3313963961
11
808.9622129603
21
85.2379887358
0
LINE
8
40000_ISO
62
7
6
CONTINUOUS
10
814.9878385901
20
86.8916534518
11
815.2074529181
21
86.9850611120
0
LINE
8
40000_ISO
62
7
6
CONTINUOUS
10
806.7815541601
20
84.9254092320
11
806.8276747352
21
84.4113189959
0
LINE
8
40000_ISO
62
7
6
CONTINUOUS
10
817.3881117183
20
87.2976406158
11
817.3419911432
21
87.8117308520
0
LINE
8
90000_FRAME
62
7
6
CONTINUOUS
10
788.5000000000
20
10.0000000000
11
788.5000000000
21
16.0000000000
0
LINE
8
90000_FRAME
62
7
6
CONTINUOUS
10
721.4180013163
20
21.0691495518
11
720.2296840455
21
18.1696554110
0
LINE
8
40000_ISO
62
7
6
CONTINUOUS
10
807.4886579973
20
88.8446137795
11
806.7815541601
21
88.4363696257
0
LINE
8
40000_ISO
62
7
6
CONTINUOUS
10
814.9878385901
20
88.6834785749
11
809.1818272882
21
85.3313963961
0
LINE
8
40000_ISO
62
7
6
CONTINUOUS
10
809.1818272882
20
83.5395712729
11
814.9878385901
21
86.8916534518
0
LINE
8
40000_ISO
62
7
6
CONTINUOUS
10
808.7135572307
20
83.3224730983
11
809.1818272882
21
83.5395712729
0
LINE
8
40000_ISO
62
7
6
CONTINUOUS
10
815.8074504200
20
86.6386424883
11
815.8363631948
21
86.4017435359
0
LINE
8
40000_ISO
62
7
6
CONTINUOUS
10
806.7815541601
20
88.4363696257
11
806.7815541601
21
84.9254092320
0
LINE
8
40000_ISO
62
7
6
CONTINUOUS
10
806.7815541601
20
63.3697454198
11
806.7815541601
21
59.8587850261
0
LINE
8
40000_ISO
62
7
6
CONTINUOUS
10
815.8363631948
20
86.4017435359
11
815.8363631948
21
72.3489415722
0
LINE
8
40000_ISO
62
7
6
CONTINUOUS
10
817.3881117183
20
73.2448386521
11
817.3881117183
21
87.2976406158
0
LINE
8
90000_FRAME
62
7
6
CONTINUOUS
10
831.0000000000
20
10.0000000000
11
831.0000000000
21
28.0000000000
0
LINE
8
90000_FRAME
62
7
6
CONTINUOUS
10
836.0000000000
20
5.0000000000
11
836.0000000000
21
589.0000000000
0
LINE
8
90000_FRAME
62
7
6
CONTINUOUS
10
841.0000000000
20
0.0000000000
11
841.0000000000
21
594.0000000000
0
LINE
8
40000_ISO
62
7
6
CONTINUOUS
10
806.8276747352
20
63.9370907910
11
806.7815541601
21
63.3697454198
0
LINE
8
40000_ISO
62
7
6
CONTINUOUS
10
817.3419911432
20
72.6774932810
11
817.3881117183
21
73.2448386521
0
LINE
8
40000_ISO
62
7
6
CONTINUOUS
10
815.8363631948
20
72.3489415722
11
815.8074504200
21
72.0786572224
0
LINE
8
40000_ISO
62
7
6
CONTINUOUS
10
807.4886579973
20
60.2670291800
11
808.3622154583
21
64.5359268495
0
LINE
8
40000_ISO
62
7
6
CONTINUOUS
10
806.9642640727
20
64.5358885327
11
806.8276747352
21
63.9370907910
0
LINE
8
40000_ISO
62
7
6
CONTINUOUS
10
817.2054018057
20
72.0786955392
11
817.3419911432
21
72.6774932810
0
LINE
8
40000_ISO
62
7
6
CONTINUOUS
10
808.3622154583
20
64.5359268495
11
808.4469834248
21
64.8211771648
0
LINE
8
40000_ISO
62
7
6
CONTINUOUS
10
815.8074504200
20
72.0786572224
11
815.7226824535
21
71.7934069071
0
LINE
8
40000_ISO
62
7
6
CONTINUOUS
10
807.1860731209
20
65.1431271836
11
806.9642640727
21
64.5358885327
0
LINE
8
40000_ISO
62
7
6
CONTINUOUS
10
816.9835927574
20
71.4714568883
11
817.2054018057
21
72.0786955392
0
LINE
8
90000_FRAME
62
7
6
CONTINUOUS
10
721.7507301522
20
19.4055053726
11
720.4198148089
21
16.2683477777
0
LINE
8
40000_ISO
62
7
6
CONTINUOUS
10
808.4469834248
20
64.8211771648
11
808.5818297862
21
65.1019541081
0
LINE
8
40000_ISO
62
7
6
CONTINUOUS
10
815.7226824535
20
71.7934069071
11
815.5878360921
21
71.5126299638
0
LINE
8
40000_ISO
62
7
6
CONTINUOUS
10
807.4845778826
20
65.7354709029
11
807.1860731209
21
65.1431271836
0
LINE
8
40000_ISO
62
7
6
CONTINUOUS
10
816.6850879957
20
70.8791131690
11
816.9835927574
21
71.4714568883
0
LINE
8
40000_ISO
62
7
6
CONTINUOUS
10
807.8483069871
20
66.2901562536
11
807.4845778826
21
65.7354709029
0
LINE
8
40000_ISO
62
7
6
CONTINUOUS
10
816.3213588912
20
70.3244278183
11
816.6850879957
21
70.8791131690
0
LINE
8
40000_ISO
62
7
6
CONTINUOUS
10
808.5818297862
20
65.1019541081
11
808.7575649859
21
65.3591231947
0
LINE
8
40000_ISO
62
7
6
CONTINUOUS
10
815.5878360921
20
71.5126299638
11
815.4121008925
21
71.2554608773
0
LINE
8
40000_ISO
62
7
6
CONTINUOUS
10
808.2632825289
20
66.7858669888
11
807.8483069871
21
66.2901562536
0
LINE
8
40000_ISO
62
7
6
CONTINUOUS
10
815.9063833494
20
69.8287170831
11
816.3213588912
21
70.3244278183
0
LINE
8
40000_ISO
62
7
6
CONTINUOUS
10
808.7575649859
20
65.3591231947
11
808.9622129603
21
65.5751587762
0
LINE
8
40000_ISO
62
7
6
CONTINUOUS
10
815.4121008925
20
71.2554608773
11
815.2074529181
21
71.0394252957
0
LINE
8
90000_FRAME
62
7
6
CONTINUOUS
10
706.1617053850
20
20.4883440109
11
706.4357712096
21
20.7624170885
0
LINE
8
40000_ISO
62
7
6
CONTINUOUS
10
808.7135572307
20
67.2035532229
11
808.2632825289
21
66.7858669888
0
LINE
8
40000_ISO
62
7
6
CONTINUOUS
10
815.4561086476
20
69.4110308491
11
815.9063833494
21
69.8287170831
0
LINE
8
40000_ISO
62
7
6
CONTINUOUS
10
815.2074529181
20
71.0394252957
11
814.9878385901
21
70.8792456870
0
LINE
8
40000_ISO
62
7
6
CONTINUOUS
10
808.9622129603
20
65.5751587762
11
809.1818272882
21
65.7353383850
0
LINE
8
40000_ISO
62
7
6
CONTINUOUS
10
809.1818272882
20
67.5271635081
11
808.7135572307
21
67.2035532229
0
LINE
8
40000_ISO
62
7
6
CONTINUOUS
10
814.9878385901
20
69.0874205638
11
815.4561086476
21
69.4110308491
0
LINE
8
40000_ISO
62
7
6
CONTINUOUS
10
814.9878385901
20
70.8792456870
11
809.1818272882
21
67.5271635081
0
LINE
8
40000_ISO
62
7
6
CONTINUOUS
10
809.1818272882
20
65.7353383850
11
814.9878385901
21
69.0874205638
0
LINE
8
40000_ISO
62
7
6
CONTINUOUS
10
806.7815541601
20
59.8587850261
11
807.4886579973
21
60.2670291800
0
ARC
8
90000_FRAME
62
7
6
CONTINUOUS
10
735.2672449491
20
18.2730390135
40
1.1116193606
50
277.7099956934
51
295.6884927746
0
ARC
8
90000_FRAME
62
7
6
CONTINUOUS
10
735.5515549319
20
17.5482132499
40
0.3401689265
50
305.5032212550
51
72.4652898523
0
ARC
8
90000_FRAME
62
7
6
CONTINUOUS
10
734.9855611237
20
20.9499201595
40
4.7567946411
50
252.5939200548
51
280.9816604256
0
ARC
8
90000_FRAME
62
7
6
CONTINUOUS
10
735.4403964868
20
18.3319064230
40
2.1007265953
50
282.4058358520
51
311.8644433928
0
ARC
8
90000_FRAME
62
7
6
CONTINUOUS
10
735.1668321397
20
19.9402481445
40
0.3029626476
50
154.4400348282
51
221.8201698801
0
ARC
8
90000_FRAME
62
7
6
CONTINUOUS
10
735.2460532911
20
19.8610269931
40
0.4103089737
50
102.8287828681
51
149.2259639003
0
ARC
8
90000_FRAME
62
7
6
CONTINUOUS
10
735.6630801268
20
18.1186916633
40
2.2018365570
50
84.0400061857
51
103.3427657871
0
ARC
8
90000_FRAME
62
7
6
CONTINUOUS
10
735.3221163020
20
15.7013277394
40
4.6423737365
50
70.2625858546
51
82.9524186380
0
ARC
8
90000_FRAME
62
7
6
CONTINUOUS
10
734.8080980999
20
20.3729506290
40
3.2587559909
50
247.5300206145
51
280.7579522142
0
ARC
8
90000_FRAME
62
7
6
CONTINUOUS
10
728.4231316278
20
2.1214306686
40
17.3316084133
50
65.3414674650
51
67.3997770736
0
ARC
8
90000_FRAME
62
7
6
CONTINUOUS
10
739.2189940332
20
27.9138570317
40
10.6291642039
50
242.8620101252
51
247.1042029186
0
ARC
8
90000_FRAME
62
7
6
CONTINUOUS
10
735.3640928067
20
20.3799255347
40
2.1662916292
50
227.3119280794
51
242.7040315235
0
ARC
8
90000_FRAME
62
7
6
CONTINUOUS
10
734.7600619970
20
19.6742478939
40
1.2385217340
50
194.7952194236
51
225.7176549047
0
ARC
8
90000_FRAME
62
7
6
CONTINUOUS
10
734.8222201312
20
19.7144678630
40
1.3090920729
50
164.1974860461
51
195.8025139539
0
ARC
8
90000_FRAME
62
7
6
CONTINUOUS
10
735.3792438519
20
18.8262007031
40
2.3669248153
50
86.2218022928
51
120.4272602309
0
ARC
8
90000_FRAME
62
7
6
CONTINUOUS
10
735.1103870694
20
12.1300328820
40
9.0679051661
50
78.6827049226
51
87.3147599624
0
ARC
8
90000_FRAME
62
7
6
CONTINUOUS
10
734.6543178909
20
19.8219756256
40
1.1197474440
50
142.8139179030
51
167.1522951417
0
ARC
8
90000_FRAME
62
7
6
CONTINUOUS
10
734.9996272325
20
19.5153939289
40
1.5805466845
50
121.2140948535
51
141.5254768286
0
ARC
8
90000_FRAME
62
7
6
CONTINUOUS
10
735.5768015981
20
20.3264512575
40
0.8661276052
50
222.7760387596
51
239.0362434679
0
ARC
8
90000_FRAME
62
7
6
CONTINUOUS
10
733.0700920198
20
12.9961790590
40
6.8587735763
50
59.9020272560
51
68.2036481279
0
ARC
8
90000_FRAME
62
7
6
CONTINUOUS
10
736.4785865137
20
21.9220655662
40
2.6987410171
50
240.0481997804
51
251.3779673737
0
ARC
8
90000_FRAME
62
7
6
CONTINUOUS
10
735.8131293469
20
17.7651669508
40
1.4334474881
50
315.8904553224
51
333.5229264373
0
ARC
8
90000_FRAME
62
7
6
CONTINUOUS
10
735.8177675906
20
17.7117598007
40
1.4062287119
50
335.3867972702
51
24.3915119402
0
ARC
8
90000_FRAME
62
7
6
CONTINUOUS
10
735.7455626871
20
17.6339031089
40
1.5047025148
50
25.9562916605
51
59.4834829668
0
ARC
8
90000_FRAME
62
7
6
CONTINUOUS
10
707.6745179207
20
18.2730390135
40
1.1116193606
50
277.7099956934
51
295.6884927746
0
ARC
8
90000_FRAME
62
7
6
CONTINUOUS
10
707.9588279034
20
17.5482132499
40
0.3401689265
50
305.5032212557
51
72.4652898515
0
ARC
8
90000_FRAME
62
7
6
CONTINUOUS
10
707.3928340953
20
20.9499201595
40
4.7567946411
50
252.5939200545
51
280.9816604253
0
ARC
8
90000_FRAME
62
7
6
CONTINUOUS
10
707.8476694584
20
18.3319064230
40
2.1007265953
50
282.4058358513
51
311.8644433923
0
ARC
8
90000_FRAME
62
7
6
CONTINUOUS
10
707.5741051113
20
19.9402481445
40
0.3029626476
50
154.4400348282
51
221.8201698801
0
ARC
8
90000_FRAME
62
7
6
CONTINUOUS
10
707.6533262627
20
19.8610269931
40
0.4103089737
50
102.8287828727
51
149.2259639027
0
ARC
8
90000_FRAME
62
7
6
CONTINUOUS
10
708.0703530983
20
18.1186916633
40
2.2018365570
50
84.0400061859
51
103.3427657872
0
ARC
8
90000_FRAME
62
7
6
CONTINUOUS
10
707.7293892736
20
15.7013277394
40
4.6423737365
50
70.2625858546
51
82.9524186379
0
ARC
8
90000_FRAME
62
7
6
CONTINUOUS
10
707.2153710714
20
20.3729506290
40
3.2587559909
50
247.5300206148
51
280.7579522145
0
ARC
8
90000_FRAME
62
7
6
CONTINUOUS
10
700.8304045994
20
2.1214306686
40
17.3316084133
50
65.3414674650
51
67.3997770736
0
ARC
8
90000_FRAME
62
7
6
CONTINUOUS
10
711.6262670048
20
27.9138570317
40
10.6291642039
50
242.8620101252
51
247.1042029185
0
ARC
8
90000_FRAME
62
7
6
CONTINUOUS
10
707.7713657782
20
20.3799255347
40
2.1662916292
50
227.3119280794
51
242.7040315235
0
ARC
8
90000_FRAME
62
7
6
CONTINUOUS
10
707.1673349686
20
19.6742478939
40
1.2385217340
50
194.7952194234
51
225.7176549042
0
ARC
8
90000_FRAME
62
7
6
CONTINUOUS
10
707.7865168234
20
18.8262007031
40
2.3669248153
50
86.2218022928
51
120.4272602309
0
ARC
8
90000_FRAME
62
7
6
CONTINUOUS
10
707.5176600409
20
12.1300328820
40
9.0679051661
50
78.6827049226
51
87.3147599624
0
ARC
8
90000_FRAME
62
7
6
CONTINUOUS
10
707.4069002041
20
19.5153939289
40
1.5805466846
50
121.2140948541
51
141.5254768290
0
ARC
8
90000_FRAME
62
7
6
CONTINUOUS
10
707.9840745697
20
20.3264512575
40
0.8661276052
50
222.7760387596
51
239.0362434679
0
ARC
8
90000_FRAME
62
7
6
CONTINUOUS
10
705.4773649914
20
12.9961790590
40
6.8587735763
50
59.9020272562
51
68.2036481282
0
ARC
8
90000_FRAME
62
7
6
CONTINUOUS
10
708.8858594852
20
21.9220655662
40
2.6987410171
50
240.0481997804
51
251.3779673734
0
ARC
8
90000_FRAME
62
7
6
CONTINUOUS
10
708.2204023184
20
17.7651669508
40
1.4334474881
50
315.8904553226
51
333.5229264375
0
ARC
8
90000_FRAME
62
7
6
CONTINUOUS
10
708.2250405622
20
17.7117598007
40
1.4062287119
50
335.3867972703
51
24.3915119403
0
ARC
8
90000_FRAME
62
7
6
CONTINUOUS
10
708.1528356587
20
17.6339031089
40
1.5047025147
50
25.9562916611
51
59.4834829676
0
ARC
8
90000_FRAME
62
7
6
CONTINUOUS
10
707.2294931027
20
19.7144678630
40
1.3090920729
50
164.1974860461
51
195.8025139539
0
ARC
8
90000_FRAME
62
7
6
CONTINUOUS
10
707.0615908625
20
19.8219756256
40
1.1197474440
50
142.8139179030
51
167.1522951417
0
CIRCLE
8
91000_TIP
62
7
6
CONTINUOUS
10
686.2690050743
20
18.0214775409
40
4.9999998979
0
CIRCLE
8
91000_TIP
62
7
6
CONTINUOUS
10
686.2690050743
20
18.0214775409
40
2.4999999489
0
ENDSEC
0
EOF
