0
SECTION
2
HEADER
9
$EXTMAX
10
420.0000000000
20
297.0000000000
9
$EXTMIN
10
0.0000000000
20
-0.0000000000
9
$LIMMIN
10
0.0000000000
20
-0.0000000000
9
$LIMMAX
10
420.0000000000
20
297.0000000000
9
$VIEWCTR
10
210.0000000000
20
148.5000000000
9
$VIEWSIZE
40
297.0000000000
9
$CLAYER
8
0
9
$LTSCALE
40
23.1000000000
9
$CELTYPE
6
BYLAYER
9
$DIMSCALE
40
1
9
$DIMASZ
40
3.5000000000
9
$DIMEXO
40
2.6250000000
9
$DIMDLI
40
15.9600000000
9
$DIMEXE
40
7.5600000000
9
$DIMCEN
40
3.7800000000
9
$DIMLFAC
40
1.0000000000
0
ENDSEC
0
SECTION
2
TABLES
0
TABLE
2
LTYPE
70
6
0
LTYPE
2
BYBLOCK
70
0
3

72
65
73
0
40
0.0
0
LTYPE
2
BYLAYER
70
0
3

72
65
73
0
40
0.0
0
LTYPE
2
CONTINUOUS
70
64
3
Solid line
72
65
73
0
40
0
0
LTYPE
2
CENTER
70
64
3
____ _ ____ _ ____ _ ____ _ ____ _ ____ _ ____
72
65
73
4
40
0.6
49
0.375
49
-0.075
49
0.075
49
-0.075
0
LTYPE
2
HIDDEN
70
64
3
- - - - - - - - - - - - - - - - - - - -
72
65
73
2
40
0.2
49
0.1
49
-0.1
0
LTYPE
2
PHANTOM
70
64
3
_____ _ _ _____ _ _ _____ _ _ _____
72
65
73
6
40
0.8
49
0.45
49
-0.05
49
0.1
49
-0.05
49
0.1
49
-0.05
0
LTYPE
2
DOT
70
64
3
. . . . . . . . . . . . . . . . . . . .
72
65
73
2
40
0.2
49
0.1
49
-0.1
0
LTYPE
2
DASHED
70
64
3
- - - - - - - - - - - - - - - - - - - -
72
65
73
2
40
0.2
49
0.1
49
-0.1
0
ENDTAB
0
TABLE
2
LAYER
70
36
0
LAYER
2
0
70
0
62
7
6
CONTINUOUS
0
LAYER
2
DEFAULT_1
70
0
62
7
6
CENTER
0
LAYER
2
DEFAULT_2
70
0
62
8
6
HIDDEN
0
LAYER
2
DEFAULT_3
70
0
62
7
6
PHANTOM
0
LAYER
2
10000_FRONT
70
0
62
7
6
CONTINUOUS
0
LAYER
2
10100_DIM_FRONT
70
0
62
7
6
CONTINUOUS
0
LAYER
2
10300_FRONT_GERMAN_ENGLISH
70
0
62
7
6
CONTINUOUS
0
LAYER
2
11000_LEFT
70
0
62
7
6
CONTINUOUS
0
LAYER
2
11100_DIM_LEFT
70
0
62
7
6
CONTINUOUS
0
LAYER
2
11300_LEFT_GERMAN_ENGLISH
70
0
62
7
6
CONTINUOUS
0
LAYER
2
12000_RIGHT
70
0
62
7
6
CONTINUOUS
0
LAYER
2
12100_DIM_RIGHT
70
0
62
7
6
CONTINUOUS
0
LAYER
2
12300_RIGHT_GERMAN_ENGLISH
70
0
62
7
6
CONTINUOUS
0
LAYER
2
13000_TOP
70
0
62
7
6
CONTINUOUS
0
LAYER
2
13100_DIM_TOP
70
0
62
7
6
CONTINUOUS
0
LAYER
2
13300_TOP_GERMAN_ENGLISH
70
0
62
7
6
CONTINUOUS
0
LAYER
2
14000_BOTTOM
70
0
62
7
6
CONTINUOUS
0
LAYER
2
14100_DIM_BOTTOM
70
0
62
7
6
CONTINUOUS
0
LAYER
2
14300_BOTTOM_GERMAN_ENGLISH
70
0
62
7
6
CONTINUOUS
0
LAYER
2
15000_BACK
70
0
62
7
6
CONTINUOUS
0
LAYER
2
15100_DIM_BACK
70
0
62
7
6
CONTINUOUS
0
LAYER
2
15300_BACK_GERMAN_ENGLISH
70
0
62
7
6
CONTINUOUS
0
LAYER
2
20000_FRONT_O
70
0
62
7
6
CONTINUOUS
0
LAYER
2
20100_DIM_FRONT_O
70
0
62
7
6
CONTINUOUS
0
LAYER
2
20300_FRONT_O_GERMAN_ENGLISH
70
0
62
7
6
CONTINUOUS
0
LAYER
2
40000_ISO
70
0
62
7
6
CONTINUOUS
0
LAYER
2
40300_ISO_GERMAN_ENGLISH
70
0
62
7
6
CONTINUOUS
0
LAYER
2
50000_WIRING
70
0
62
7
6
CONTINUOUS
0
LAYER
2
50300_WIRING_GERMAN_ENGLISH
70
0
62
7
6
CONTINUOUS
0
LAYER
2
90000_FRAME
70
0
62
7
6
CONTINUOUS
0
LAYER
2
91000_TIP
70
0
62
7
6
CONTINUOUS
0
ENDTAB
0
ENDSEC
0
SECTION
2
BLOCKS
0
ENDSEC
0
SECTION
2
ENTITIES
0
TEXT
8
90000_FRAME
62
7
6
CONTINUOUS
10
325.6600000000
20
11.9000000000
40
2.2000000000
1
Format / Size: DIN A3
72
5
11
359.0790476190
21
11.9000000000
0
TEXT
8
90000_FRAME
62
7
6
CONTINUOUS
10
368.1600000000
20
11.9000000000
40
2.2000000000
1
Massstab / Scale: 1:1
72
5
11
399.0647619048
21
11.9000000000
0
TEXT
8
90000_FRAME
62
7
6
CONTINUOUS
10
350.5000000000
20
20.2500000000
40
3.5000000000
1
6ES57108MA21_001
72
5
11
392.2500000000
21
20.2500000000
0
TEXT
8
0
62
7
6
CONTINUOUS
10
11.2756234532
20
15.1898617471
40
3.5000000000
1
Alle Bemassungswerte sind in Millimeter (mm) angegeben.
72
5
11
145.8589567865
21
15.1898617471
0
TEXT
8
0
62
7
6
CONTINUOUS
10
11.2756234532
20
9.9398617471
40
3.5000000000
1
All dimensions are in millimeters (mm).
72
5
11
104.4422901199
21
9.9398617471
0
LINE
8
40000_ISO
62
7
6
CONTINUOUS
10
17.9466321581
20
260.7847434042
11
17.7248231099
21
260.1775047533
0
LINE
8
40000_ISO
62
7
6
CONTINUOUS
10
18.2451369198
20
261.3770871235
11
17.9466321581
21
260.7847434042
0
LINE
8
40000_ISO
62
7
6
CONTINUOUS
10
18.6088660243
20
261.9317724742
11
18.2451369198
21
261.3770871235
0
LINE
8
40000_ISO
62
7
6
CONTINUOUS
10
26.3483951293
20
267.1542461844
11
26.1726599297
21
266.8970770978
0
LINE
8
40000_ISO
62
7
6
CONTINUOUS
10
19.0238415661
20
262.4274832093
11
18.6088660243
21
261.9317724742
0
LINE
8
90000_FRAME
62
7
6
CONTINUOUS
10
0.0000000000
20
297.0000000000
11
0.0000000000
21
0.0000000000
0
LINE
8
90000_FRAME
62
7
6
CONTINUOUS
10
5.0000000000
20
292.0000000000
11
5.0000000000
21
5.0000000000
0
LINE
8
40000_ISO
62
7
6
CONTINUOUS
10
17.7248231099
20
260.1775047533
11
17.5882337724
21
259.5787070115
0
LINE
8
40000_ISO
62
7
6
CONTINUOUS
10
26.5680094572
20
267.7202734429
11
26.4832414907
21
267.4350231276
0
LINE
8
40000_ISO
62
7
6
CONTINUOUS
10
26.4832414907
20
267.4350231276
11
26.3483951293
21
267.1542461844
0
LINE
8
40000_ISO
62
7
6
CONTINUOUS
10
26.1726599297
20
266.8970770978
11
25.9680119553
21
266.6810415162
0
LINE
8
40000_ISO
62
7
6
CONTINUOUS
10
19.4741162679
20
262.8451694434
11
19.0238415661
21
262.4274832093
0
LINE
8
40000_ISO
62
7
6
CONTINUOUS
10
25.9680119553
20
266.6810415162
11
25.7483976273
21
266.5208619075
0
LINE
8
40000_ISO
62
7
6
CONTINUOUS
10
18.2492170345
20
284.4862300001
11
17.5421131973
21
284.0779858462
0
LINE
8
40000_ISO
62
7
6
CONTINUOUS
10
25.7483976273
20
284.3250947955
11
22.1383877286
21
282.2408670498
0
LINE
8
40000_ISO
62
7
6
CONTINUOUS
10
17.5421131973
20
284.0779858462
11
17.5421131973
21
280.5670254526
0
LINE
8
40000_ISO
62
7
6
CONTINUOUS
10
17.5421131973
20
259.0113616403
11
17.5421131973
21
255.5004012467
0
LINE
8
40000_ISO
62
7
6
CONTINUOUS
10
17.5882337724
20
259.5787070115
11
17.5421131973
21
259.0113616403
0
LINE
8
40000_ISO
62
7
6
CONTINUOUS
10
26.5969222320
20
267.9905577927
11
26.5680094572
21
267.7202734429
0
LINE
8
40000_ISO
62
7
6
CONTINUOUS
10
43.0290648167
20
264.0289373832
11
43.4199262886
21
264.4787343863
0
LINE
8
40000_ISO
62
7
6
CONTINUOUS
10
19.9423863254
20
263.1687797287
11
19.4741162679
21
262.8451694434
0
LINE
8
40000_ISO
62
7
6
CONTINUOUS
10
25.7483976273
20
266.5208619075
11
19.9423863254
21
263.1687797287
0
LINE
8
40000_ISO
62
7
6
CONTINUOUS
10
32.6780658683
20
269.3831820011
11
33.8015144091
21
270.0318014469
0
LINE
8
40000_ISO
62
7
6
CONTINUOUS
10
26.2166676848
20
284.5421929701
11
25.7483976273
21
284.3250947955
0
LINE
8
40000_ISO
62
7
6
CONTINUOUS
10
17.5421131973
20
280.5670254526
11
17.5882337724
21
280.0529352164
0
LINE
8
40000_ISO
62
7
6
CONTINUOUS
10
26.5969222320
20
274.1912805798
11
26.5969222320
21
267.9905577927
0
LINE
8
40000_ISO
62
7
6
CONTINUOUS
10
60.7068079453
20
253.8229185202
11
61.0976694173
21
254.2727155233
0
LINE
8
40000_ISO
62
7
6
CONTINUOUS
10
41.7290703502
20
264.1577003433
11
42.8525188910
21
264.8063197890
0
LINE
8
40000_ISO
62
7
6
CONTINUOUS
10
50.3558089969
20
259.1771631381
11
51.4792575378
21
259.8257825839
0
LINE
8
40000_ISO
62
7
6
CONTINUOUS
10
78.3845510740
20
243.6168996572
11
78.7754125460
21
244.0666966603
0
LINE
8
40000_ISO
62
7
6
CONTINUOUS
10
59.4068134788
20
253.9516814803
11
60.5302620197
21
254.6003009260
0
LINE
8
40000_ISO
62
7
6
CONTINUOUS
10
68.0335521256
20
248.9711442751
11
69.1570006665
21
249.6197637209
0
LINE
8
40000_ISO
62
7
6
CONTINUOUS
10
77.0845566075
20
243.7456626173
11
78.2080051484
21
244.3942820630
0
LINE
8
90000_FRAME
62
7
6
CONTINUOUS
10
0.0000000000
20
0.0000000000
11
420.0000000000
21
0.0000000000
0
LINE
8
40000_ISO
62
7
6
CONTINUOUS
10
17.5882337724
20
280.0529352164
11
17.7248231099
21
279.6118563148
0
LINE
8
40000_ISO
62
7
6
CONTINUOUS
10
96.0622942027
20
233.4108807942
11
96.4531556746
21
233.8606777972
0
LINE
8
40000_ISO
62
7
6
CONTINUOUS
10
85.7112952543
20
238.7651254121
11
86.8347437952
21
239.4137448579
0
LINE
8
40000_ISO
62
7
6
CONTINUOUS
10
94.7622997362
20
233.5396437543
11
95.8857482770
21
234.1882632000
0
LINE
8
91000_TIP
62
7
6
CONTINUOUS
10
248.5082295492
20
20.1286973174
11
258.5082293450
21
22.6286972664
0
LINE
8
90000_FRAME
62
7
6
CONTINUOUS
10
5.0000000000
20
5.0000000000
11
415.0000000000
21
5.0000000000
0
LINE
8
90000_FRAME
62
7
6
CONTINUOUS
10
275.0000000000
20
10.0000000000
11
410.0000000000
21
10.0000000000
0
LINE
8
90000_FRAME
62
7
6
CONTINUOUS
10
325.0000000000
20
16.0000000000
11
410.0000000000
21
16.0000000000
0
LINE
8
90000_FRAME
62
7
6
CONTINUOUS
10
298.2973434565
20
16.6961097434
11
299.1529318914
21
16.6961097434
0
LINE
8
90000_FRAME
62
7
6
CONTINUOUS
10
311.4876651625
20
16.7436424342
11
309.9666190559
21
16.7436424342
0
LINE
8
90000_FRAME
62
7
6
CONTINUOUS
10
301.8622952689
20
16.7436424342
11
300.4838472348
21
16.7436424342
0
LINE
8
90000_FRAME
62
7
6
CONTINUOUS
10
289.1235341257
20
16.7436424342
11
290.5495148507
21
16.7436424342
0
LINE
8
90000_FRAME
62
7
6
CONTINUOUS
10
291.6427667399
20
16.7436424342
11
295.2077185523
21
16.7436424342
0
LINE
8
90000_FRAME
62
7
6
CONTINUOUS
10
296.0157742965
20
16.7436424342
11
296.9664281131
21
16.7436424342
0
LINE
8
90000_FRAME
62
7
6
CONTINUOUS
10
302.9555471581
20
16.7436424342
11
306.5204989705
21
16.7436424342
0
LINE
8
90000_FRAME
62
7
6
CONTINUOUS
10
307.3047883693
20
16.7436424342
11
308.2554421859
21
16.7436424342
0
LINE
8
91000_TIP
62
7
6
CENTER
10
247.2287190772
20
17.6286973685
11
270.8307083413
21
17.6286973685
0
LINE
8
90000_FRAME
62
7
6
CONTINUOUS
10
306.5204989705
20
17.6467635600
11
304.3339951922
21
17.6467635600
0
LINE
8
90000_FRAME
62
7
6
CONTINUOUS
10
295.2077185523
20
17.6467635600
11
293.0212147740
21
17.6467635600
0
LINE
8
40000_ISO
62
7
6
CONTINUOUS
10
113.7400373314
20
223.2048619312
11
114.1308988033
21
223.6546589342
0
LINE
8
40000_ISO
62
7
6
CONTINUOUS
10
103.3890383830
20
228.5591065491
11
104.5124869238
21
229.2077259949
0
LINE
8
40000_ISO
62
7
6
CONTINUOUS
10
393.7919958940
20
62.4942463201
11
394.2422705958
21
62.5964894230
0
LINE
8
40000_ISO
62
7
6
CONTINUOUS
10
401.4350967145
20
68.2768361773
11
400.9848220127
21
68.1745930744
0
LINE
8
40000_ISO
62
7
6
CONTINUOUS
10
395.9874907830
20
59.7927295717
11
396.5839273902
21
59.9085601231
0
LINE
8
90000_FRAME
62
7
6
CONTINUOUS
10
306.1877701347
20
18.7637817946
11
304.3339951922
21
18.7637817946
0
LINE
8
90000_FRAME
62
7
6
CONTINUOUS
10
294.8749897165
20
18.7637817946
11
293.0212147740
21
18.7637817946
0
LINE
8
90000_FRAME
62
7
6
CONTINUOUS
10
306.1877701347
20
19.5480711933
11
304.3339951922
21
19.5480711933
0
LINE
8
90000_FRAME
62
7
6
CONTINUOUS
10
294.8749897165
20
19.5480711933
11
293.0212147740
21
19.5480711933
0
LINE
8
90000_FRAME
62
7
6
CONTINUOUS
10
306.4729662797
20
20.6175567371
11
304.3339951922
21
20.6175567371
0
LINE
8
90000_FRAME
62
7
6
CONTINUOUS
10
295.1601858615
20
20.6175567371
11
293.0212147740
21
20.6175567371
0
LINE
8
90000_FRAME
62
7
6
CONTINUOUS
10
311.4876651625
20
21.4969115175
11
310.5370113459
21
21.4969115175
0
LINE
8
90000_FRAME
62
7
6
CONTINUOUS
10
308.8496008213
20
21.4969115175
11
307.3047883693
21
21.4969115175
0
LINE
8
90000_FRAME
62
7
6
CONTINUOUS
10
306.4729662797
20
21.4969115175
11
302.9555471581
21
21.4969115175
0
LINE
8
90000_FRAME
62
7
6
CONTINUOUS
10
301.8622952689
20
21.4969115175
11
300.1511183989
21
21.4969115175
0
LINE
8
90000_FRAME
62
7
6
CONTINUOUS
10
297.7269511665
20
21.4969115175
11
296.0157742965
21
21.4969115175
0
LINE
8
90000_FRAME
62
7
6
CONTINUOUS
10
295.1601858615
20
21.4969115175
11
291.6427667399
21
21.4969115175
0
LINE
8
90000_FRAME
62
7
6
CONTINUOUS
10
289.1235341257
20
21.4969115175
11
290.5495148507
21
21.4969115175
0
LINE
8
90000_FRAME
62
7
6
CONTINUOUS
10
275.0000000000
20
28.0000000000
11
410.0000000000
21
28.0000000000
0
LINE
8
91000_TIP
62
7
6
CONTINUOUS
10
248.5082295492
20
15.1286974196
11
258.5082293450
21
12.6286974706
0
LINE
8
40000_ISO
62
7
6
CONTINUOUS
10
131.4177804600
20
212.9988430682
11
131.8086419320
21
213.4486400712
0
LINE
8
40000_ISO
62
7
6
CONTINUOUS
10
112.4400428648
20
223.3336248913
11
113.5634914057
21
223.9822443370
0
LINE
8
40000_ISO
62
7
6
CONTINUOUS
10
121.0667815116
20
218.3530876861
11
122.1902300525
21
219.0017071319
0
LINE
8
40000_ISO
62
7
6
CONTINUOUS
10
378.3097476543
20
69.9987484347
11
378.9061842615
21
70.1145789861
0
LINE
8
40000_ISO
62
7
6
CONTINUOUS
10
394.4909263254
20
64.5120050606
11
394.2862783510
21
64.4917349265
0
LINE
8
40000_ISO
62
7
6
CONTINUOUS
10
400.7361662832
20
66.2590774368
11
400.9408142576
21
66.2793475709
0
LINE
8
40000_ISO
62
7
6
CONTINUOUS
10
30.9872098598
20
271.6566041781
11
31.3780604559
21
270.7555083513
0
LINE
8
40000_ISO
62
7
6
CONTINUOUS
10
48.6649529885
20
261.4505853151
11
49.0558035845
21
260.5494894883
0
LINE
8
40000_ISO
62
7
6
CONTINUOUS
10
130.1177859935
20
213.1276060283
11
131.2412345344
21
213.7762254740
0
LINE
8
40000_ISO
62
7
6
CONTINUOUS
10
138.7445246403
20
208.1470688231
11
139.8679731812
21
208.7956882689
0
LINE
8
40000_ISO
62
7
6
CONTINUOUS
10
360.6320045257
20
80.2047672977
11
361.2284411328
21
80.3205978491
0
LINE
8
40000_ISO
62
7
6
CONTINUOUS
10
17.7248231099
20
279.6118563148
11
17.9466321581
21
279.2607391624
0
LINE
8
40000_ISO
62
7
6
CONTINUOUS
10
66.3426961171
20
251.2445664521
11
66.7335467132
21
250.3434706253
0
LINE
8
40000_ISO
62
7
6
CONTINUOUS
10
149.0955235887
20
202.7928242052
11
149.4863850607
21
203.2426212082
0
LINE
8
40000_ISO
62
7
6
CONTINUOUS
10
147.7955291222
20
202.9215871652
11
148.9189776631
21
203.5702066110
0
LINE
8
40000_ISO
62
7
6
CONTINUOUS
10
342.9542613970
20
90.4107861607
11
343.5506980041
21
90.5266167121
0
LINE
8
40000_ISO
62
7
6
CONTINUOUS
10
393.3770203522
20
62.5107874340
11
393.7919958940
21
62.4942463201
0
LINE
8
40000_ISO
62
7
6
CONTINUOUS
10
401.8500722564
20
68.2602950634
11
401.4350967145
21
68.2768361773
0
LINE
8
40000_ISO
62
7
6
CONTINUOUS
10
84.0204392458
20
241.0385475891
11
84.4112898419
21
240.1374517623
0
LINE
8
40000_ISO
62
7
6
CONTINUOUS
10
166.7732667174
20
192.5868053422
11
167.1641281893
21
193.0366023452
0
LINE
8
40000_ISO
62
7
6
CONTINUOUS
10
156.4222677690
20
197.9410499601
11
157.5457163098
21
198.5896694058
0
LINE
8
40000_ISO
62
7
6
CONTINUOUS
10
165.4732722509
20
192.7155683022
11
166.5967207917
21
193.3641877480
0
LINE
8
40000_ISO
62
7
6
CONTINUOUS
10
325.2765182683
20
100.6168050237
11
325.8729548755
21
100.7326355751
0
LINE
8
40000_ISO
62
7
6
CONTINUOUS
10
31.3780604559
20
270.7555083513
11
31.9745080089
21
269.9509687502
0
LINE
8
40000_ISO
62
7
6
CONTINUOUS
10
49.0558035845
20
260.5494894883
11
49.6522511376
21
259.7449498872
0
LINE
8
40000_ISO
62
7
6
CONTINUOUS
10
101.6981823745
20
230.8325287261
11
102.0890329706
21
229.9314328993
0
LINE
8
40000_ISO
62
7
6
CONTINUOUS
10
174.1000108977
20
187.7350310971
11
175.2234594385
21
188.3836505428
0
LINE
8
40000_ISO
62
7
6
CONTINUOUS
10
183.1510153795
20
182.5095494392
11
184.2744639204
21
183.1581688850
0
LINE
8
40000_ISO
62
7
6
CONTINUOUS
10
307.5987751396
20
110.8228238867
11
308.1952117468
21
110.9386544381
0
LINE
8
40000_ISO
62
7
6
CONTINUOUS
10
289.9210320110
20
121.0288427498
11
290.5174686181
21
121.1446733011
0
LINE
8
40000_ISO
62
7
6
CONTINUOUS
10
66.7335467132
20
250.3434706253
11
67.3299942663
21
249.5389310242
0
LINE
8
40000_ISO
62
7
6
CONTINUOUS
10
84.4112898419
20
240.1374517623
11
85.0077373949
21
239.3329121612
0
LINE
8
40000_ISO
62
7
6
CONTINUOUS
10
119.3759255032
20
220.6265098630
11
119.7667760992
21
219.7254140363
0
LINE
8
40000_ISO
62
7
6
CONTINUOUS
10
137.0536686318
20
210.4204910000
11
137.4445192279
21
209.5193951733
0
LINE
8
40000_ISO
62
7
6
CONTINUOUS
10
184.4510098461
20
182.3807864792
11
184.8418713180
21
182.8305834822
0
LINE
8
40000_ISO
62
7
6
CONTINUOUS
10
191.7777540263
20
177.5290122341
11
192.9012025672
21
178.1776316798
0
LINE
8
40000_ISO
62
7
6
CONTINUOUS
10
272.2432888823
20
131.2348616128
11
272.8397254894
21
131.3506921641
0
LINE
8
40000_ISO
62
7
6
CONTINUOUS
10
102.0890329706
20
229.9314328993
11
102.6854805236
21
229.1268932982
0
LINE
8
40000_ISO
62
7
6
CONTINUOUS
10
119.7667760992
20
219.7254140363
11
120.3632236523
21
218.9208744352
0
LINE
8
40000_ISO
62
7
6
CONTINUOUS
10
154.7314117605
20
200.2144721370
11
155.1222623566
21
199.3133763103
0
LINE
8
40000_ISO
62
7
6
CONTINUOUS
10
202.1287529747
20
172.1747676162
11
202.5196144467
21
172.6245646192
0
LINE
8
40000_ISO
62
7
6
CONTINUOUS
10
200.8287585082
20
172.3035305762
11
201.9522070491
21
172.9521500220
0
LINE
8
40000_ISO
62
7
6
CONTINUOUS
10
209.4554971550
20
167.3229933711
11
210.5789456959
21
167.9716128168
0
LINE
8
40000_ISO
62
7
6
CONTINUOUS
10
254.5655457536
20
141.4408804758
11
255.1619823608
21
141.5567110272
0
LINE
8
40000_ISO
62
7
6
CONTINUOUS
10
394.2862783510
20
64.4917349265
11
394.1105507461
21
64.5459793099
0
LINE
8
40000_ISO
62
7
6
CONTINUOUS
10
400.9408142576
20
66.2793475709
11
401.1165418625
21
66.2251031875
0
LINE
8
40000_ISO
62
7
6
CONTINUOUS
10
395.2839329236
20
60.0373230831
11
395.9874907830
21
59.7927295717
0
LINE
8
40000_ISO
62
7
6
CONTINUOUS
10
396.8356814471
20
60.9332201631
11
397.0748399641
21
60.8500761534
0
LINE
8
40000_ISO
62
7
6
CONTINUOUS
10
377.6061897950
20
70.2433419461
11
378.3097476543
21
69.9987484347
0
LINE
8
40000_ISO
62
7
6
CONTINUOUS
10
359.9284466663
20
80.4493608092
11
360.6320045257
21
80.2047672977
0
LINE
8
40000_ISO
62
7
6
CONTINUOUS
10
393.0133128394
20
62.6454646329
11
393.3770203522
21
62.5107874340
0
LINE
8
40000_ISO
62
7
6
CONTINUOUS
10
31.9745080089
20
269.9509687502
11
32.6780658683
21
269.3831820011
0
LINE
8
40000_ISO
62
7
6
CONTINUOUS
10
49.6522511376
20
259.7449498872
11
50.3558089969
21
259.1771631381
0
LINE
8
40000_ISO
62
7
6
CONTINUOUS
10
17.9466321581
20
279.2607391624
11
18.2451585115
21
279.0130645287
0
LINE
8
40000_ISO
62
7
6
CONTINUOUS
10
137.4445192279
20
209.5193951733
11
138.0409667810
21
208.7148555722
0
LINE
8
40000_ISO
62
7
6
CONTINUOUS
10
155.1222623566
20
199.3133763103
11
155.7187099096
21
198.5088367092
0
LINE
8
40000_ISO
62
7
6
CONTINUOUS
10
172.4091548892
20
190.0084532740
11
172.8000054853
21
189.1073574473
0
LINE
8
40000_ISO
62
7
6
CONTINUOUS
10
219.8064961034
20
161.9687487532
11
220.1973575754
21
162.4185457562
0
LINE
8
40000_ISO
62
7
6
CONTINUOUS
10
218.5065016369
20
162.0975117132
11
219.6299501778
21
162.7461311590
0
LINE
8
40000_ISO
62
7
6
CONTINUOUS
10
227.1332402837
20
157.1169745081
11
228.2566888245
21
157.7655939538
0
LINE
8
40000_ISO
62
7
6
CONTINUOUS
10
236.8878026249
20
151.6468993388
11
237.4842392321
21
151.7627298902
0
LINE
8
40000_ISO
62
7
6
CONTINUOUS
10
342.2507035376
20
90.6553796722
11
342.9542613970
21
90.4107861607
0
LINE
8
40000_ISO
62
7
6
CONTINUOUS
10
324.5729604089
20
100.8613985352
11
325.2765182683
21
100.6168050237
0
LINE
8
40000_ISO
62
7
6
CONTINUOUS
10
306.8952172803
20
111.0674173982
11
307.5987751396
21
110.8228238867
0
LINE
8
40000_ISO
62
7
6
CONTINUOUS
10
289.2174741516
20
121.2734362612
11
289.9210320110
21
121.0288427498
0
LINE
8
40000_ISO
62
7
6
CONTINUOUS
10
402.2137797692
20
68.1256178645
11
401.8500722564
21
68.2602950634
0
LINE
8
40000_ISO
62
7
6
CONTINUOUS
10
17.5421131973
20
255.5004012467
11
392.3102675252
21
39.1328013509
0
LINE
8
40000_ISO
62
7
6
CONTINUOUS
10
17.5421131973
20
259.0113616403
11
392.3102675252
21
42.6437617446
0
LINE
8
40000_ISO
62
7
6
CONTINUOUS
10
67.3299942663
20
249.5389310242
11
68.0335521256
21
248.9711442751
0
LINE
8
40000_ISO
62
7
6
CONTINUOUS
10
85.0077373949
20
239.3329121612
11
85.7112952543
21
238.7651254121
0
LINE
8
40000_ISO
62
7
6
CONTINUOUS
10
102.6854805236
20
229.1268932982
11
103.3890383830
21
228.5591065491
0
LINE
8
40000_ISO
62
7
6
CONTINUOUS
10
120.3632236523
20
218.9208744352
11
121.0667815116
21
218.3530876861
0
LINE
8
40000_ISO
62
7
6
CONTINUOUS
10
138.0409667810
20
208.7148555722
11
138.7445246403
21
208.1470688231
0
LINE
8
40000_ISO
62
7
6
CONTINUOUS
10
172.8000054853
20
189.1073574473
11
173.3964530383
21
188.3028178461
0
LINE
8
40000_ISO
62
7
6
CONTINUOUS
10
190.0868980179
20
179.8024344110
11
190.4777486139
21
178.9013385843
0
LINE
8
40000_ISO
62
7
6
CONTINUOUS
10
236.1842447656
20
151.8914928502
11
237.3076933064
21
152.5401122960
0
LINE
8
40000_ISO
62
7
6
CONTINUOUS
10
219.2100594963
20
161.8529182018
11
219.8064961034
21
161.9687487532
0
LINE
8
40000_ISO
62
7
6
CONTINUOUS
10
271.5397310229
20
131.4794551242
11
272.2432888823
21
131.2348616128
0
LINE
8
40000_ISO
62
7
6
CONTINUOUS
10
253.8619878942
20
141.6854739872
11
254.5655457536
21
141.4408804758
0
LINE
8
40000_ISO
62
7
6
CONTINUOUS
10
236.1842447656
20
151.8914928502
11
236.8878026249
21
151.6468993388
0
LINE
8
40000_ISO
62
7
6
CONTINUOUS
10
218.5065016369
20
162.0975117132
11
219.2100594963
21
161.8529182018
0
LINE
8
40000_ISO
62
7
6
CONTINUOUS
10
19.9423863254
20
263.1687797287
11
394.7105406533
21
46.8011798329
0
LINE
8
40000_ISO
62
7
6
CONTINUOUS
10
25.7483976273
20
266.5208619075
11
400.5165519553
21
50.1532620118
0
LINE
8
40000_ISO
62
7
6
CONTINUOUS
10
26.5969222320
20
267.9905577927
11
401.3650765599
21
51.6229578970
0
LINE
8
40000_ISO
62
7
6
CONTINUOUS
10
32.6780658683
20
269.3831820011
11
41.7290703502
21
264.1577003433
0
LINE
8
40000_ISO
62
7
6
CONTINUOUS
10
50.3558089969
20
259.1771631381
11
59.4068134788
21
253.9516814803
0
LINE
8
40000_ISO
62
7
6
CONTINUOUS
10
68.0335521256
20
248.9711442751
11
77.0845566075
21
243.7456626173
0
LINE
8
40000_ISO
62
7
6
CONTINUOUS
10
85.7112952543
20
238.7651254121
11
94.7622997362
21
233.5396437543
0
LINE
8
40000_ISO
62
7
6
CONTINUOUS
10
103.3890383830
20
228.5591065491
11
112.4400428648
21
223.3336248913
0
LINE
8
40000_ISO
62
7
6
CONTINUOUS
10
121.0667815116
20
218.3530876861
11
130.1177859935
21
213.1276060283
0
LINE
8
40000_ISO
62
7
6
CONTINUOUS
10
138.7445246403
20
208.1470688231
11
147.7955291222
21
202.9215871652
0
LINE
8
40000_ISO
62
7
6
CONTINUOUS
10
156.4222677690
20
197.9410499601
11
165.4732722509
21
192.7155683022
0
LINE
8
40000_ISO
62
7
6
CONTINUOUS
10
174.1000108977
20
187.7350310971
11
183.1510153795
21
182.5095494392
0
LINE
8
40000_ISO
62
7
6
CONTINUOUS
10
191.7777540263
20
177.5290122341
11
200.8287585082
21
172.3035305762
0
LINE
8
40000_ISO
62
7
6
CONTINUOUS
10
209.4554971550
20
167.3229933711
11
218.5065016369
21
162.0975117132
0
LINE
8
40000_ISO
62
7
6
CONTINUOUS
10
227.1332402837
20
157.1169745081
11
236.1842447656
21
151.8914928502
0
LINE
8
40000_ISO
62
7
6
CONTINUOUS
10
244.8109834124
20
146.9109556451
11
253.8619878942
21
141.6854739872
0
LINE
8
40000_ISO
62
7
6
CONTINUOUS
10
262.4887265410
20
136.7049367821
11
271.5397310229
21
131.4794551242
0
LINE
8
40000_ISO
62
7
6
CONTINUOUS
10
280.1664696697
20
126.4989179190
11
289.2174741516
21
121.2734362612
0
LINE
8
40000_ISO
62
7
6
CONTINUOUS
10
297.8442127984
20
116.2928990560
11
306.8952172803
21
111.0674173982
0
LINE
8
40000_ISO
62
7
6
CONTINUOUS
10
315.5219559271
20
106.0868801930
11
324.5729604089
21
100.8613985352
0
LINE
8
40000_ISO
62
7
6
CONTINUOUS
10
333.1996990557
20
95.8808613300
11
342.2507035376
21
90.6553796722
0
LINE
8
40000_ISO
62
7
6
CONTINUOUS
10
350.8774421844
20
85.6748424670
11
359.9284466663
21
80.4493608092
0
LINE
8
40000_ISO
62
7
6
CONTINUOUS
10
368.5551853131
20
75.4688236040
11
377.6061897950
21
70.2433419461
0
LINE
8
40000_ISO
62
7
6
CONTINUOUS
10
386.2329284418
20
65.2628047410
11
395.2839329236
21
60.0373230831
0
LINE
8
40000_ISO
62
7
6
CONTINUOUS
10
155.7187099096
20
198.5088367092
11
156.4222677690
21
197.9410499601
0
LINE
8
40000_ISO
62
7
6
CONTINUOUS
10
173.3964530383
20
188.3028178461
11
174.1000108977
21
187.7350310971
0
LINE
8
40000_ISO
62
7
6
CONTINUOUS
10
191.0741961670
20
178.0967989831
11
191.7777540263
21
177.5290122341
0
LINE
8
40000_ISO
62
7
6
CONTINUOUS
10
208.7519392957
20
167.8907801201
11
209.4554971550
21
167.3229933711
0
LINE
8
40000_ISO
62
7
6
CONTINUOUS
10
190.4777486139
20
178.9013385843
11
191.0741961670
21
178.0967989831
0
LINE
8
40000_ISO
62
7
6
CONTINUOUS
10
208.1554917426
20
168.6953197213
11
208.7519392957
21
167.8907801201
0
LINE
8
40000_ISO
62
7
6
CONTINUOUS
10
207.7646411465
20
169.5964155480
11
208.1554917426
21
168.6953197213
0
LINE
8
40000_ISO
62
7
6
CONTINUOUS
10
237.4842392321
20
151.7627298902
11
237.8751007040
21
152.2125268932
0
LINE
8
40000_ISO
62
7
6
CONTINUOUS
10
244.8109834124
20
146.9109556451
11
245.9344319532
21
147.5595750908
0
LINE
8
40000_ISO
62
7
6
CONTINUOUS
10
253.8619878942
20
141.6854739872
11
254.9854364351
21
142.3340934329
0
LINE
8
40000_ISO
62
7
6
CONTINUOUS
10
201.5323163676
20
172.0589370648
11
202.1287529747
21
172.1747676162
0
LINE
8
40000_ISO
62
7
6
CONTINUOUS
10
200.8287585082
20
172.3035305762
11
201.5323163676
21
172.0589370648
0
LINE
8
40000_ISO
62
7
6
CONTINUOUS
10
183.1510153795
20
182.5095494392
11
183.8545732389
21
182.2649559278
0
LINE
8
40000_ISO
62
7
6
CONTINUOUS
10
165.4732722509
20
192.7155683022
11
166.1768301102
21
192.4709747908
0
LINE
8
40000_ISO
62
7
6
CONTINUOUS
10
147.7955291222
20
202.9215871652
11
148.4990869816
21
202.6769936538
0
LINE
8
40000_ISO
62
7
6
CONTINUOUS
10
18.2451586508
20
279.0130644482
11
393.0133129787
21
62.6454645525
0
LINE
8
40000_ISO
62
7
6
CONTINUOUS
10
394.0359111394
20
62.5496317358
11
396.8356814471
21
60.9332201631
0
LINE
8
40000_ISO
62
7
6
CONTINUOUS
10
17.5421131973
20
280.5670254526
11
392.3102675252
21
64.1994255568
0
LINE
8
40000_ISO
62
7
6
CONTINUOUS
10
393.8211355466
20
65.1188993820
11
394.7105406533
21
64.6054127208
0
LINE
8
40000_ISO
62
7
6
CONTINUOUS
10
17.5421131973
20
284.0779858462
11
392.3102675252
21
67.7103859505
0
LINE
8
40000_ISO
62
7
6
CONTINUOUS
10
18.2492170345
20
284.4862300001
11
393.0173713624
21
68.1186301043
0
LINE
8
40000_ISO
62
7
6
CONTINUOUS
10
400.5165410912
20
66.1656509591
11
401.3650765599
21
65.6757598606
0
LINE
8
40000_ISO
62
7
6
CONTINUOUS
10
25.7483976273
20
284.3250947955
11
400.5165519553
21
67.9574948997
0
LINE
8
40000_ISO
62
7
6
CONTINUOUS
10
27.4456253019
20
284.4932178407
11
402.2137796298
21
68.1256179449
0
LINE
8
40000_ISO
62
7
6
CONTINUOUS
10
226.4296824243
20
157.6847612571
11
227.1332402837
21
157.1169745081
0
LINE
8
40000_ISO
62
7
6
CONTINUOUS
10
244.1074255530
20
147.4787423941
11
244.8109834124
21
146.9109556451
0
LINE
8
40000_ISO
62
7
6
CONTINUOUS
10
261.7851686817
20
137.2727235311
11
262.4887265410
21
136.7049367821
0
LINE
8
40000_ISO
62
7
6
CONTINUOUS
10
279.4629118104
20
127.0667046681
11
280.1664696697
21
126.4989179190
0
LINE
8
40000_ISO
62
7
6
CONTINUOUS
10
297.1406549390
20
116.8606858051
11
297.8442127984
21
116.2928990560
0
LINE
8
40000_ISO
62
7
6
CONTINUOUS
10
225.8332348713
20
158.4893008583
11
226.4296824243
21
157.6847612571
0
LINE
8
40000_ISO
62
7
6
CONTINUOUS
10
243.5109780000
20
148.2832819953
11
244.1074255530
21
147.4787423941
0
LINE
8
90000_FRAME
62
7
6
CONTINUOUS
10
308.8496008213
20
21.4969115175
11
310.5370113459
21
18.5498846858
0
LINE
8
90000_FRAME
62
7
6
CONTINUOUS
10
309.9666190559
20
16.7436424342
11
308.2554421859
21
19.7857346475
0
LINE
8
40000_ISO
62
7
6
CONTINUOUS
10
225.4423842752
20
159.3903966850
11
225.8332348713
21
158.4893008583
0
LINE
8
40000_ISO
62
7
6
CONTINUOUS
10
243.1201274039
20
149.1843778220
11
243.5109780000
21
148.2832819953
0
LINE
8
90000_FRAME
62
7
6
CONTINUOUS
10
298.2973434565
20
16.6961097434
11
296.9664281131
21
19.7857346475
0
LINE
8
90000_FRAME
62
7
6
CONTINUOUS
10
297.7269511665
20
21.4969115175
11
298.9628011281
21
18.5974173767
0
LINE
8
91000_TIP
62
7
6
CONTINUOUS
10
248.5082295492
20
20.1286973174
11
248.5082295492
21
15.1286974196
0
LINE
8
40000_ISO
62
7
6
CONTINUOUS
10
255.1619823608
20
141.5567110272
11
255.5528438327
21
142.0065080302
0
LINE
8
40000_ISO
62
7
6
CONTINUOUS
10
262.4887265410
20
136.7049367821
11
263.6121750819
21
137.3535562278
0
LINE
8
40000_ISO
62
7
6
CONTINUOUS
10
271.5397310229
20
131.4794551242
11
272.6631795638
21
132.1280745699
0
LINE
8
40000_ISO
62
7
6
CONTINUOUS
10
183.8545732389
20
182.2649559278
11
184.4510098461
21
182.3807864792
0
LINE
8
40000_ISO
62
7
6
CONTINUOUS
10
130.1177859935
20
213.1276060283
11
130.8213438529
21
212.8830125168
0
LINE
8
40000_ISO
62
7
6
CONTINUOUS
10
112.4400428648
20
223.3336248913
11
113.1436007242
21
223.0890313798
0
LINE
8
40000_ISO
62
7
6
CONTINUOUS
10
94.7622997362
20
233.5396437543
11
95.4658575955
21
233.2950502428
0
LINE
8
40000_ISO
62
7
6
CONTINUOUS
10
314.8183980677
20
106.6546669421
11
315.5219559271
21
106.0868801930
0
LINE
8
40000_ISO
62
7
6
CONTINUOUS
10
332.4961411964
20
96.4486480791
11
333.1996990557
21
95.8808613300
0
LINE
8
40000_ISO
62
7
6
CONTINUOUS
10
350.1738843251
20
86.2426292161
11
350.8774421844
21
85.6748424670
0
LINE
8
40000_ISO
62
7
6
CONTINUOUS
10
367.8516274537
20
76.0366103531
11
368.5551853131
21
75.4688236040
0
LINE
8
40000_ISO
62
7
6
CONTINUOUS
10
385.5293705824
20
65.8305914901
11
386.2329284418
21
65.2628047410
0
LINE
8
40000_ISO
62
7
6
CONTINUOUS
10
261.1887211286
20
138.0772631323
11
261.7851686817
21
137.2727235311
0
LINE
8
40000_ISO
62
7
6
CONTINUOUS
10
278.8664642573
20
127.8712442692
11
279.4629118104
21
127.0667046681
0
LINE
8
40000_ISO
62
7
6
CONTINUOUS
10
260.7978705326
20
138.9783589590
11
261.1887211286
21
138.0772631323
0
LINE
8
91000_TIP
62
7
6
CONTINUOUS
10
258.5082293450
20
22.6286972664
11
258.5082293450
21
12.6286974706
0
LINE
8
91000_TIP
62
7
6
CENTER
10
265.0082292122
20
11.9072161621
11
265.0082292122
21
23.1906021621
0
LINE
8
40000_ISO
62
7
6
CONTINUOUS
10
272.8397254894
20
131.3506921641
11
273.2305869614
21
131.8004891672
0
LINE
8
40000_ISO
62
7
6
CONTINUOUS
10
280.1664696697
20
126.4989179190
11
281.2899182106
21
127.1475373648
0
LINE
8
40000_ISO
62
7
6
CONTINUOUS
10
166.1768301102
20
192.4709747908
11
166.7732667174
21
192.5868053422
0
LINE
8
40000_ISO
62
7
6
CONTINUOUS
10
77.0845566075
20
243.7456626173
11
77.7881144669
21
243.5010691058
0
LINE
8
40000_ISO
62
7
6
CONTINUOUS
10
59.4068134788
20
253.9516814803
11
60.1103713382
21
253.7070879689
0
LINE
8
40000_ISO
62
7
6
CONTINUOUS
10
41.7290703502
20
264.1577003433
11
42.4326282095
21
263.9131068319
0
LINE
8
40000_ISO
62
7
6
CONTINUOUS
10
392.7147864860
20
62.8931392667
11
393.0133128394
21
62.6454646329
0
LINE
8
40000_ISO
62
7
6
CONTINUOUS
10
296.5442073860
20
117.6652254062
11
297.1406549390
21
116.8606858051
0
LINE
8
40000_ISO
62
7
6
CONTINUOUS
10
314.2219505147
20
107.4592065432
11
314.8183980677
21
106.6546669421
0
LINE
8
40000_ISO
62
7
6
CONTINUOUS
10
278.4756136612
20
128.7723400960
11
278.8664642573
21
127.8712442692
0
LINE
8
90000_FRAME
62
7
6
CONTINUOUS
10
275.0000000000
20
10.0000000000
11
275.0000000000
21
28.0000000000
0
LINE
8
90000_FRAME
62
7
6
CONTINUOUS
10
284.7029938783
20
16.8387078159
11
284.7029938783
21
17.7893616325
0
LINE
8
40000_ISO
62
7
6
CONTINUOUS
10
289.2174741516
20
121.2734362612
11
290.3409226925
21
121.9220557069
0
LINE
8
40000_ISO
62
7
6
CONTINUOUS
10
297.8442127984
20
116.2928990560
11
298.9676613392
21
116.9415185018
0
LINE
8
40000_ISO
62
7
6
CONTINUOUS
10
148.4990869816
20
202.6769936538
11
149.0955235887
21
202.7928242052
0
LINE
8
40000_ISO
62
7
6
CONTINUOUS
10
27.4456254413
20
284.4932177602
11
27.0819179285
21
284.6278949592
0
LINE
8
40000_ISO
62
7
6
CONTINUOUS
10
402.5123061225
20
67.8779432307
11
402.2137797692
21
68.1256178645
0
LINE
8
40000_ISO
62
7
6
CONTINUOUS
10
394.1105507461
20
64.5459793099
11
393.9756967899
21
64.6710544013
0
LINE
8
40000_ISO
62
7
6
CONTINUOUS
10
401.1165418625
20
66.2251031875
11
401.2513958186
21
66.1000280961
0
LINE
8
40000_ISO
62
7
6
CONTINUOUS
10
331.8996936433
20
97.2531876802
11
332.4961411964
21
96.4486480791
0
LINE
8
40000_ISO
62
7
6
CONTINUOUS
10
296.1533567899
20
118.5663212330
11
296.5442073860
21
117.6652254062
0
LINE
8
90000_FRAME
62
7
6
CONTINUOUS
10
288.0302822366
20
20.4987250100
11
288.0302822366
21
21.4493788266
0
LINE
8
90000_FRAME
62
7
6
CONTINUOUS
10
289.1235341257
20
21.4969115175
11
289.1235341257
21
16.7436424342
0
LINE
8
90000_FRAME
62
7
6
CONTINUOUS
10
290.5495148507
20
21.4969115175
11
290.5495148507
21
16.7436424342
0
LINE
8
90000_FRAME
62
7
6
CONTINUOUS
10
291.6427667399
20
21.4969115175
11
291.6427667399
21
16.7436424342
0
LINE
8
90000_FRAME
62
7
6
CONTINUOUS
10
293.0212147740
20
20.6175567371
11
293.0212147740
21
19.5480711933
0
LINE
8
90000_FRAME
62
7
6
CONTINUOUS
10
293.0212147740
20
18.7637817946
11
293.0212147740
21
17.6467635600
0
LINE
8
90000_FRAME
62
7
6
CONTINUOUS
10
294.8749897165
20
19.5480711933
11
294.8749897165
21
18.7637817946
0
LINE
8
90000_FRAME
62
7
6
CONTINUOUS
10
295.1601858615
20
21.4969115175
11
295.1601858615
21
20.6175567371
0
LINE
8
90000_FRAME
62
7
6
CONTINUOUS
10
295.2077185523
20
17.6467635600
11
295.2077185523
21
16.7436424342
0
LINE
8
90000_FRAME
62
7
6
CONTINUOUS
10
296.0157742965
20
16.7436424342
11
296.0157742965
21
21.4969115175
0
LINE
8
90000_FRAME
62
7
6
CONTINUOUS
10
296.9664281131
20
16.7436424342
11
296.9664281131
21
19.7857346475
0
LINE
8
40000_ISO
62
7
6
CONTINUOUS
10
290.5174686181
20
121.1446733011
11
290.9083300901
21
121.5944703042
0
LINE
8
40000_ISO
62
7
6
CONTINUOUS
10
306.8952172803
20
111.0674173982
11
308.0186658211
21
111.7160368439
0
LINE
8
40000_ISO
62
7
6
CONTINUOUS
10
315.5219559271
20
106.0868801930
11
316.6454044679
21
106.7354996388
0
LINE
8
40000_ISO
62
7
6
CONTINUOUS
10
130.8213438529
20
212.8830125168
11
131.4177804600
21
212.9988430682
0
LINE
8
40000_ISO
62
7
6
CONTINUOUS
10
349.5774367720
20
87.0471688172
11
350.1738843251
21
86.2426292161
0
LINE
8
40000_ISO
62
7
6
CONTINUOUS
10
367.2551799007
20
76.8411499542
11
367.8516274537
21
76.0366103531
0
LINE
8
40000_ISO
62
7
6
CONTINUOUS
10
313.8310999186
20
108.3603023700
11
314.2219505147
21
107.4592065432
0
LINE
8
90000_FRAME
62
7
6
CONTINUOUS
10
300.4838472348
20
19.8332673383
11
300.4838472348
21
16.7436424342
0
LINE
8
90000_FRAME
62
7
6
CONTINUOUS
10
301.8622952689
20
21.4969115175
11
301.8622952689
21
16.7436424342
0
LINE
8
90000_FRAME
62
7
6
CONTINUOUS
10
302.9555471581
20
21.4969115175
11
302.9555471581
21
16.7436424342
0
LINE
8
90000_FRAME
62
7
6
CONTINUOUS
10
304.3339951922
20
20.6175567371
11
304.3339951922
21
19.5480711933
0
LINE
8
90000_FRAME
62
7
6
CONTINUOUS
10
304.3339951922
20
18.7637817946
11
304.3339951922
21
17.6467635600
0
LINE
8
90000_FRAME
62
7
6
CONTINUOUS
10
306.1877701347
20
19.5480711933
11
306.1877701347
21
18.7637817946
0
LINE
8
90000_FRAME
62
7
6
CONTINUOUS
10
306.4729662797
20
21.4969115175
11
306.4729662797
21
20.6175567371
0
LINE
8
90000_FRAME
62
7
6
CONTINUOUS
10
306.5204989705
20
17.6467635600
11
306.5204989705
21
16.7436424342
0
LINE
8
90000_FRAME
62
7
6
CONTINUOUS
10
307.3047883693
20
16.7436424342
11
307.3047883693
21
21.4969115175
0
LINE
8
90000_FRAME
62
7
6
CONTINUOUS
10
308.2554421859
20
16.7436424342
11
308.2554421859
21
19.7857346475
0
LINE
8
90000_FRAME
62
7
6
CONTINUOUS
10
310.5370113459
20
21.4969115175
11
310.5370113459
21
18.5498846858
0
LINE
8
90000_FRAME
62
7
6
CONTINUOUS
10
311.4876651625
20
21.4969115175
11
311.4876651625
21
16.7436424342
0
LINE
8
90000_FRAME
62
7
6
CONTINUOUS
10
312.2957209067
20
16.8387078159
11
312.2957209067
21
17.7893616325
0
LINE
8
40000_ISO
62
7
6
CONTINUOUS
10
308.1952117468
20
110.9386544381
11
308.5860732187
21
111.3884514412
0
LINE
8
40000_ISO
62
7
6
CONTINUOUS
10
324.5729604089
20
100.8613985352
11
325.6964089498
21
101.5100179809
0
LINE
8
40000_ISO
62
7
6
CONTINUOUS
10
113.1436007242
20
223.0890313798
11
113.7400373314
21
223.2048619312
0
LINE
8
40000_ISO
62
7
6
CONTINUOUS
10
384.9329230294
20
66.6351310912
11
385.5293705824
21
65.8305914901
0
LINE
8
40000_ISO
62
7
6
CONTINUOUS
10
396.5839383360
20
62.9108093020
11
396.0729000985
21
63.6001414950
0
LINE
8
40000_ISO
62
7
6
CONTINUOUS
10
331.5088430473
20
98.1542835070
11
331.8996936433
21
97.2531876802
0
LINE
8
40000_ISO
62
7
6
CONTINUOUS
10
349.1865861759
20
87.9482646440
11
349.5774367720
21
87.0471688172
0
LINE
8
90000_FRAME
62
7
6
CONTINUOUS
10
315.6230092650
20
20.4987250100
11
315.6230092650
21
21.4493788266
0
LINE
8
90000_FRAME
62
7
6
CONTINUOUS
10
325.0000000000
20
10.0000000000
11
325.0000000000
21
28.0000000000
0
LINE
8
40000_ISO
62
7
6
CONTINUOUS
10
325.8729548755
20
100.7326355751
11
326.2638163474
21
101.1824325781
0
LINE
8
40000_ISO
62
7
6
CONTINUOUS
10
333.1996990557
20
95.8808613300
11
334.3231475966
21
96.5294807758
0
LINE
8
40000_ISO
62
7
6
CONTINUOUS
10
342.2507035376
20
90.6553796722
11
343.3741520785
21
91.3039991179
0
LINE
8
40000_ISO
62
7
6
CONTINUOUS
10
95.4658575955
20
233.2950502428
11
96.0622942027
21
233.4108807942
0
LINE
8
40000_ISO
62
7
6
CONTINUOUS
10
77.7881144669
20
243.5010691058
11
78.3845510740
21
243.6168996572
0
LINE
8
40000_ISO
62
7
6
CONTINUOUS
10
392.4929774378
20
63.2442564190
11
392.7147864860
21
62.8931392667
0
LINE
8
40000_ISO
62
7
6
CONTINUOUS
10
366.8643293046
20
77.7422457809
11
367.2551799007
21
76.8411499542
0
LINE
8
90000_FRAME
62
7
6
CONTINUOUS
10
300.1511183989
20
21.4969115175
11
298.9628011281
21
18.5974173767
0
LINE
8
90000_FRAME
62
7
6
CONTINUOUS
10
300.4838472348
20
19.8332673383
11
299.1529318914
21
16.6961097434
0
LINE
8
40000_ISO
62
7
6
CONTINUOUS
10
350.8774421844
20
85.6748424670
11
352.0008907253
21
86.3234619128
0
LINE
8
40000_ISO
62
7
6
CONTINUOUS
10
60.1103713382
20
253.7070879689
11
60.7068079453
21
253.8229185202
0
LINE
8
40000_ISO
62
7
6
CONTINUOUS
10
27.0819179285
20
284.6278949592
11
26.6669423866
21
284.6444360731
0
LINE
8
40000_ISO
62
7
6
CONTINUOUS
10
402.7341151708
20
67.5268260784
11
402.5123061225
21
67.8779432307
0
LINE
8
40000_ISO
62
7
6
CONTINUOUS
10
393.9756967899
20
64.6710544013
11
393.8909288234
21
64.8584236843
0
LINE
8
40000_ISO
62
7
6
CONTINUOUS
10
384.5420724333
20
67.5362269179
11
384.9329230294
21
66.6351310912
0
LINE
8
40000_ISO
62
7
6
CONTINUOUS
10
343.5506980041
20
90.5266167121
11
343.9415594761
21
90.9764137151
0
LINE
8
90000_FRAME
62
7
6
CONTINUOUS
10
284.8948224676
20
20.9161059766
11
285.1688882922
21
21.1901790542
0
LINE
8
40000_ISO
62
7
6
CONTINUOUS
10
359.9284466663
20
80.4493608092
11
361.0518952072
21
81.0979802549
0
LINE
8
40000_ISO
62
7
6
CONTINUOUS
10
368.5551853131
20
75.4688236040
11
369.6786338539
21
76.1174430498
0
LINE
8
40000_ISO
62
7
6
CONTINUOUS
10
42.4326282095
20
263.9131068319
11
43.0290648167
21
264.0289373832
0
LINE
8
90000_FRAME
62
7
6
CONTINUOUS
10
415.0000000000
20
292.0000000000
11
5.0000000000
21
292.0000000000
0
LINE
8
90000_FRAME
62
7
6
CONTINUOUS
10
420.0000000000
20
297.0000000000
11
0.0000000000
21
297.0000000000
0
LINE
8
40000_ISO
62
7
6
CONTINUOUS
10
401.2513958186
20
66.1000280961
11
401.3361637851
21
65.9126588131
0
LINE
8
40000_ISO
62
7
6
CONTINUOUS
10
396.9824718496
20
61.9920007099
11
396.5839383360
21
62.9108093020
0
LINE
8
90000_FRAME
62
7
6
CONTINUOUS
10
367.5000000000
20
10.0000000000
11
367.5000000000
21
16.0000000000
0
LINE
8
40000_ISO
62
7
6
CONTINUOUS
10
361.2284411328
20
80.3205978491
11
361.6193026048
21
80.7703948521
0
LINE
8
40000_ISO
62
7
6
CONTINUOUS
10
377.6061897950
20
70.2433419461
11
378.7296383358
21
70.8919613919
0
LINE
8
40000_ISO
62
7
6
CONTINUOUS
10
386.2329284418
20
65.2628047410
11
387.3563769826
21
65.9114241867
0
LINE
8
40000_ISO
62
7
6
CONTINUOUS
10
393.0173713624
20
68.1186301043
11
392.3102675252
21
67.7103859505
0
LINE
8
40000_ISO
62
7
6
CONTINUOUS
10
400.9848220127
20
68.1745930744
11
400.5165519553
21
67.9574948997
0
LINE
8
40000_ISO
62
7
6
CONTINUOUS
10
394.2422705958
20
62.5964894230
11
394.7105406533
21
62.8135875977
0
LINE
8
40000_ISO
62
7
6
CONTINUOUS
10
394.7105406533
20
64.6054127208
11
394.4909263254
21
64.5120050606
0
LINE
8
40000_ISO
62
7
6
CONTINUOUS
10
400.5165519553
20
66.1656697766
11
400.7361662832
21
66.2590774368
0
LINE
8
40000_ISO
62
7
6
CONTINUOUS
10
392.3563881003
20
63.6853353207
11
392.4929774378
21
63.2442564190
0
LINE
8
40000_ISO
62
7
6
CONTINUOUS
10
402.8707045083
20
67.0857471767
11
402.7341151708
21
67.5268260784
0
LINE
8
40000_ISO
62
7
6
CONTINUOUS
10
393.8909288234
20
64.8584236843
11
393.0173713624
21
68.1186301043
0
LINE
8
40000_ISO
62
7
6
CONTINUOUS
10
392.3102675252
20
64.1994255568
11
392.3563881003
21
63.6853353207
0
LINE
8
40000_ISO
62
7
6
CONTINUOUS
10
400.5165519553
20
67.9574948997
11
394.7105406533
21
64.6054127208
0
LINE
8
40000_ISO
62
7
6
CONTINUOUS
10
394.7105406533
20
62.8135875977
11
400.5165519553
21
66.1656697766
0
LINE
8
40000_ISO
62
7
6
CONTINUOUS
10
395.2839329236
20
60.0373230831
11
396.8356814471
21
60.9332201631
0
LINE
8
40000_ISO
62
7
6
CONTINUOUS
10
26.6669423866
20
284.6444360731
11
26.2166676848
21
284.5421929701
0
LINE
8
40000_ISO
62
7
6
CONTINUOUS
10
397.1224182090
20
61.0988034059
11
396.9824718496
21
61.9920007099
0
LINE
8
40000_ISO
62
7
6
CONTINUOUS
10
402.9168250834
20
66.5716569406
11
402.8707045083
21
67.0857471767
0
LINE
8
40000_ISO
62
7
6
CONTINUOUS
10
392.3102675252
20
67.7103859505
11
392.3102675252
21
64.1994255568
0
LINE
8
40000_ISO
62
7
6
CONTINUOUS
10
392.3102675252
20
42.6437617446
11
392.3102675252
21
39.1328013509
0
LINE
8
40000_ISO
62
7
6
CONTINUOUS
10
401.3650765599
20
65.6757598606
11
401.3650765599
21
51.6229578970
0
LINE
8
40000_ISO
62
7
6
CONTINUOUS
10
392.3563881003
20
43.2111071157
11
392.3102675252
21
42.6437617446
0
LINE
8
40000_ISO
62
7
6
CONTINUOUS
10
378.9061842615
20
70.1145789861
11
379.2970457334
21
70.5643759891
0
LINE
8
40000_ISO
62
7
6
CONTINUOUS
10
400.7361662832
20
50.3134416205
11
400.5165519553
21
50.1532620118
0
LINE
8
40000_ISO
62
7
6
CONTINUOUS
10
394.4909263254
20
44.8491751010
11
394.7105406533
21
45.0093547097
0
LINE
8
40000_ISO
62
7
6
CONTINUOUS
10
394.7105406533
20
46.8011798329
11
394.2422705958
21
46.4775695476
0
LINE
8
40000_ISO
62
7
6
CONTINUOUS
10
400.5165519553
20
48.3614368886
11
400.9848220127
21
48.6850471739
0
LINE
8
40000_ISO
62
7
6
CONTINUOUS
10
400.5165519553
20
50.1532620118
11
394.7105406533
21
46.8011798329
0
LINE
8
40000_ISO
62
7
6
CONTINUOUS
10
394.7105406533
20
45.0093547097
11
400.5165519553
21
48.3614368886
0
LINE
8
40000_ISO
62
7
6
CONTINUOUS
10
392.3102675252
20
39.1328013509
11
393.0173713624
21
39.5410455048
0
LINE
8
40000_ISO
62
7
6
CONTINUOUS
10
401.3361637851
20
65.9126588131
11
401.3650765599
21
65.6757598606
0
LINE
8
40000_ISO
62
7
6
CONTINUOUS
10
402.9168250834
20
52.5188549769
11
402.9168250834
21
66.5716569406
0
LINE
8
90000_FRAME
62
7
6
CONTINUOUS
10
410.0000000000
20
10.0000000000
11
410.0000000000
21
28.0000000000
0
LINE
8
90000_FRAME
62
7
6
CONTINUOUS
10
415.0000000000
20
5.0000000000
11
415.0000000000
21
292.0000000000
0
LINE
8
90000_FRAME
62
7
6
CONTINUOUS
10
420.0000000000
20
0.0000000000
11
420.0000000000
21
297.0000000000
0
LINE
8
40000_ISO
62
7
6
CONTINUOUS
10
402.8707045083
20
51.9515096057
11
402.9168250834
21
52.5188549769
0
LINE
8
40000_ISO
62
7
6
CONTINUOUS
10
401.3650765599
20
51.6229578970
11
401.3361637851
21
51.3526735472
0
LINE
8
40000_ISO
62
7
6
CONTINUOUS
10
396.9824718496
20
60.3671985828
11
397.1224182090
21
61.0988034059
0
LINE
8
40000_ISO
62
7
6
CONTINUOUS
10
393.0173713624
20
39.5410455048
11
393.8909288234
21
43.8099431743
0
LINE
8
40000_ISO
62
7
6
CONTINUOUS
10
392.4929774378
20
43.8099048575
11
392.3563881003
21
43.2111071157
0
LINE
8
40000_ISO
62
7
6
CONTINUOUS
10
402.7341151708
20
51.3527118640
11
402.8707045083
21
51.9515096057
0
LINE
8
40000_ISO
62
7
6
CONTINUOUS
10
393.8909288234
20
43.8099431743
11
393.9756967899
21
44.0951934896
0
LINE
8
40000_ISO
62
7
6
CONTINUOUS
10
401.3361637851
20
51.3526735472
11
401.2513958186
21
51.0674232319
0
LINE
8
40000_ISO
62
7
6
CONTINUOUS
10
392.7147864860
20
44.4171435084
11
392.4929774378
21
43.8099048575
0
LINE
8
40000_ISO
62
7
6
CONTINUOUS
10
402.5123061225
20
50.7454732131
11
402.7341151708
21
51.3527118640
0
LINE
8
40000_ISO
62
7
6
CONTINUOUS
10
393.9756967899
20
44.0951934896
11
394.1105431514
21
44.3759704329
0
LINE
8
40000_ISO
62
7
6
CONTINUOUS
10
401.2513958186
20
51.0674232319
11
401.1165494572
21
50.7866462886
0
LINE
8
40000_ISO
62
7
6
CONTINUOUS
10
393.0132912477
20
45.0094872277
11
392.7147864860
21
44.4171435084
0
LINE
8
40000_ISO
62
7
6
CONTINUOUS
10
402.2138013609
20
50.1531294938
11
402.5123061225
21
50.7454732131
0
LINE
8
40000_ISO
62
7
6
CONTINUOUS
10
393.3770203522
20
45.5641725784
11
393.0132912477
21
45.0094872277
0
LINE
8
40000_ISO
62
7
6
CONTINUOUS
10
401.8500722564
20
49.5984441431
11
402.2138013609
21
50.1531294938
0
LINE
8
40000_ISO
62
7
6
CONTINUOUS
10
394.1105431514
20
44.3759704329
11
394.2862783510
21
44.6331395194
0
LINE
8
40000_ISO
62
7
6
CONTINUOUS
10
401.1165494572
20
50.7866462886
11
400.9408142576
21
50.5294772020
0
LINE
8
40000_ISO
62
7
6
CONTINUOUS
10
393.7919958940
20
46.0598833136
11
393.3770203522
21
45.5641725784
0
LINE
8
40000_ISO
62
7
6
CONTINUOUS
10
401.4350967145
20
49.1027334079
11
401.8500722564
21
49.5984441431
0
LINE
8
40000_ISO
62
7
6
CONTINUOUS
10
396.5839273902
20
59.9085601231
11
396.9824718496
21
60.3671985828
0
LINE
8
40000_ISO
62
7
6
CONTINUOUS
10
394.2862783510
20
44.6331395194
11
394.4909263254
21
44.8491751010
0
LINE
8
40000_ISO
62
7
6
CONTINUOUS
10
400.9408142576
20
50.5294772020
11
400.7361662832
21
50.3134416205
0
LINE
8
40000_ISO
62
7
6
CONTINUOUS
10
394.2422705958
20
46.4775695476
11
393.7919958940
21
46.0598833136
0
LINE
8
40000_ISO
62
7
6
CONTINUOUS
10
400.9848220127
20
48.6850471739
11
401.4350967145
21
49.1027334079
0
ARC
8
90000_FRAME
62
7
6
CONTINUOUS
10
314.0003620317
20
18.7008009792
40
1.1116193606
50
277.7099956934
51
295.6884927746
0
ARC
8
90000_FRAME
62
7
6
CONTINUOUS
10
314.2846720145
20
17.9759752156
40
0.3401689265
50
305.5032212550
51
72.4652898523
0
ARC
8
90000_FRAME
62
7
6
CONTINUOUS
10
313.7186782063
20
21.3776821252
40
4.7567946411
50
252.5939200548
51
280.9816604256
0
ARC
8
90000_FRAME
62
7
6
CONTINUOUS
10
314.1735135694
20
18.7596683887
40
2.1007265953
50
282.4058358520
51
311.8644433928
0
ARC
8
90000_FRAME
62
7
6
CONTINUOUS
10
313.8999492223
20
20.3680101102
40
0.3029626476
50
154.4400348282
51
221.8201698801
0
ARC
8
90000_FRAME
62
7
6
CONTINUOUS
10
313.9791703737
20
20.2887889588
40
0.4103089737
50
102.8287828681
51
149.2259639003
0
ARC
8
90000_FRAME
62
7
6
CONTINUOUS
10
314.3961972093
20
18.5464536290
40
2.2018365570
50
84.0400061857
51
103.3427657871
0
ARC
8
90000_FRAME
62
7
6
CONTINUOUS
10
314.0552333846
20
16.1290897051
40
4.6423737365
50
70.2625858546
51
82.9524186380
0
ARC
8
90000_FRAME
62
7
6
CONTINUOUS
10
313.5412151824
20
20.8007125947
40
3.2587559909
50
247.5300206145
51
280.7579522143
0
ARC
8
90000_FRAME
62
7
6
CONTINUOUS
10
307.1562487104
20
2.5491926343
40
17.3316084133
50
65.3414674650
51
67.3997770736
0
ARC
8
90000_FRAME
62
7
6
CONTINUOUS
10
317.9521111158
20
28.3416189974
40
10.6291642039
50
242.8620101252
51
247.1042029186
0
ARC
8
90000_FRAME
62
7
6
CONTINUOUS
10
314.0972098893
20
20.8076875004
40
2.1662916292
50
227.3119280794
51
242.7040315235
0
ARC
8
90000_FRAME
62
7
6
CONTINUOUS
10
313.4931790796
20
20.1020098596
40
1.2385217340
50
194.7952194236
51
225.7176549047
0
ARC
8
90000_FRAME
62
7
6
CONTINUOUS
10
313.5553372138
20
20.1422298287
40
1.3090920729
50
164.1974860461
51
195.8025139539
0
ARC
8
90000_FRAME
62
7
6
CONTINUOUS
10
314.1123609345
20
19.2539626688
40
2.3669248153
50
86.2218022928
51
120.4272602309
0
ARC
8
90000_FRAME
62
7
6
CONTINUOUS
10
313.8435041519
20
12.5577948477
40
9.0679051661
50
78.6827049226
51
87.3147599624
0
ARC
8
90000_FRAME
62
7
6
CONTINUOUS
10
313.3874349735
20
20.2497375912
40
1.1197474440
50
142.8139179030
51
167.1522951417
0
ARC
8
90000_FRAME
62
7
6
CONTINUOUS
10
313.7327443151
20
19.9431558946
40
1.5805466845
50
121.2140948535
51
141.5254768286
0
ARC
8
90000_FRAME
62
7
6
CONTINUOUS
10
314.3099186807
20
20.7542132232
40
0.8661276052
50
222.7760387596
51
239.0362434679
0
ARC
8
90000_FRAME
62
7
6
CONTINUOUS
10
311.8032091024
20
13.4239410246
40
6.8587735763
50
59.9020272560
51
68.2036481279
0
ARC
8
90000_FRAME
62
7
6
CONTINUOUS
10
315.2117035963
20
22.3498275319
40
2.6987410171
50
240.0481997804
51
251.3779673737
0
ARC
8
90000_FRAME
62
7
6
CONTINUOUS
10
314.5462464295
20
18.1929289165
40
1.4334474881
50
315.8904553224
51
333.5229264373
0
ARC
8
90000_FRAME
62
7
6
CONTINUOUS
10
314.5508846732
20
18.1395217664
40
1.4062287119
50
335.3867972702
51
24.3915119402
0
ARC
8
90000_FRAME
62
7
6
CONTINUOUS
10
314.4786797697
20
18.0616650746
40
1.5047025148
50
25.9562916605
51
59.4834829668
0
ARC
8
90000_FRAME
62
7
6
CONTINUOUS
10
286.4076350033
20
18.7008009792
40
1.1116193606
50
277.7099956934
51
295.6884927746
0
ARC
8
90000_FRAME
62
7
6
CONTINUOUS
10
286.6919449860
20
17.9759752156
40
0.3401689265
50
305.5032212556
51
72.4652898515
0
ARC
8
90000_FRAME
62
7
6
CONTINUOUS
10
286.1259511779
20
21.3776821252
40
4.7567946411
50
252.5939200545
51
280.9816604253
0
ARC
8
90000_FRAME
62
7
6
CONTINUOUS
10
286.5807865410
20
18.7596683887
40
2.1007265953
50
282.4058358513
51
311.8644433923
0
ARC
8
90000_FRAME
62
7
6
CONTINUOUS
10
286.3072221939
20
20.3680101102
40
0.3029626476
50
154.4400348282
51
221.8201698801
0
ARC
8
90000_FRAME
62
7
6
CONTINUOUS
10
286.3864433453
20
20.2887889588
40
0.4103089737
50
102.8287828727
51
149.2259639027
0
ARC
8
90000_FRAME
62
7
6
CONTINUOUS
10
286.8034701809
20
18.5464536290
40
2.2018365570
50
84.0400061859
51
103.3427657872
0
ARC
8
90000_FRAME
62
7
6
CONTINUOUS
10
286.4625063562
20
16.1290897051
40
4.6423737365
50
70.2625858546
51
82.9524186379
0
ARC
8
90000_FRAME
62
7
6
CONTINUOUS
10
285.9484881540
20
20.8007125947
40
3.2587559909
50
247.5300206148
51
280.7579522145
0
ARC
8
90000_FRAME
62
7
6
CONTINUOUS
10
279.5635216820
20
2.5491926343
40
17.3316084133
50
65.3414674650
51
67.3997770736
0
ARC
8
90000_FRAME
62
7
6
CONTINUOUS
10
290.3593840874
20
28.3416189974
40
10.6291642039
50
242.8620101252
51
247.1042029185
0
ARC
8
90000_FRAME
62
7
6
CONTINUOUS
10
286.5044828608
20
20.8076875004
40
2.1662916292
50
227.3119280794
51
242.7040315235
0
ARC
8
90000_FRAME
62
7
6
CONTINUOUS
10
285.9004520512
20
20.1020098596
40
1.2385217340
50
194.7952194234
51
225.7176549042
0
ARC
8
90000_FRAME
62
7
6
CONTINUOUS
10
286.5196339060
20
19.2539626688
40
2.3669248153
50
86.2218022928
51
120.4272602309
0
ARC
8
90000_FRAME
62
7
6
CONTINUOUS
10
286.2507771235
20
12.5577948477
40
9.0679051661
50
78.6827049226
51
87.3147599624
0
ARC
8
90000_FRAME
62
7
6
CONTINUOUS
10
286.1400172867
20
19.9431558946
40
1.5805466846
50
121.2140948541
51
141.5254768290
0
ARC
8
90000_FRAME
62
7
6
CONTINUOUS
10
286.7171916523
20
20.7542132232
40
0.8661276052
50
222.7760387596
51
239.0362434679
0
ARC
8
90000_FRAME
62
7
6
CONTINUOUS
10
284.2104820740
20
13.4239410246
40
6.8587735763
50
59.9020272562
51
68.2036481282
0
ARC
8
90000_FRAME
62
7
6
CONTINUOUS
10
287.6189765678
20
22.3498275319
40
2.6987410171
50
240.0481997804
51
251.3779673734
0
ARC
8
90000_FRAME
62
7
6
CONTINUOUS
10
286.9535194010
20
18.1929289165
40
1.4334474881
50
315.8904553226
51
333.5229264375
0
ARC
8
90000_FRAME
62
7
6
CONTINUOUS
10
286.9581576447
20
18.1395217664
40
1.4062287119
50
335.3867972703
51
24.3915119403
0
ARC
8
90000_FRAME
62
7
6
CONTINUOUS
10
286.8859527412
20
18.0616650746
40
1.5047025147
50
25.9562916611
51
59.4834829676
0
ARC
8
90000_FRAME
62
7
6
CONTINUOUS
10
285.9626101853
20
20.1422298287
40
1.3090920729
50
164.1974860461
51
195.8025139539
0
ARC
8
90000_FRAME
62
7
6
CONTINUOUS
10
285.7947079451
20
20.2497375912
40
1.1197474440
50
142.8139179030
51
167.1522951417
0
CIRCLE
8
91000_TIP
62
7
6
CONTINUOUS
10
265.0082292122
20
17.6286973685
40
4.9999998979
0
CIRCLE
8
91000_TIP
62
7
6
CONTINUOUS
10
265.0082292122
20
17.6286973685
40
2.4999999489
0
ENDSEC
0
EOF
