0
SECTION
2
HEADER
9
$EXTMAX
10
594.0000000000
20
420.0000000000
9
$EXTMIN
10
0.0000000000
20
0.0000000000
9
$LIMMIN
10
0.0000000000
20
0.0000000000
9
$LIMMAX
10
594.0000000000
20
420.0000000000
9
$VIEWCTR
10
297.0000000000
20
210.0000000000
9
$VIEWSIZE
40
420.0000000000
9
$CLAYER
8
0
9
$LTSCALE
40
32.6700000000
9
$CELTYPE
6
BYLAYER
9
$DIMSCALE
40
1
9
$DIMASZ
40
3.5000000000
9
$DIMEXO
40
3.7125000000
9
$DIMDLI
40
22.5720000000
9
$DIMEXE
40
10.6920000000
9
$DIMCEN
40
5.3460000000
9
$DIMLFAC
40
1.0000000000
0
ENDSEC
0
SECTION
2
TABLES
0
TABLE
2
LTYPE
70
6
0
LTYPE
2
BYBLOCK
70
0
3

72
65
73
0
40
0.0
0
LTYPE
2
BYLAYER
70
0
3

72
65
73
0
40
0.0
0
LTYPE
2
CONTINUOUS
70
64
3
Solid line
72
65
73
0
40
0
0
LTYPE
2
CENTER
70
64
3
____ _ ____ _ ____ _ ____ _ ____ _ ____ _ ____
72
65
73
4
40
0.6
49
0.375
49
-0.075
49
0.075
49
-0.075
0
LTYPE
2
HIDDEN
70
64
3
- - - - - - - - - - - - - - - - - - - -
72
65
73
2
40
0.2
49
0.1
49
-0.1
0
LTYPE
2
PHANTOM
70
64
3
_____ _ _ _____ _ _ _____ _ _ _____
72
65
73
6
40
0.8
49
0.45
49
-0.05
49
0.1
49
-0.05
49
0.1
49
-0.05
0
LTYPE
2
DOT
70
64
3
. . . . . . . . . . . . . . . . . . . .
72
65
73
2
40
0.2
49
0.1
49
-0.1
0
LTYPE
2
DASHED
70
64
3
- - - - - - - - - - - - - - - - - - - -
72
65
73
2
40
0.2
49
0.1
49
-0.1
0
ENDTAB
0
TABLE
2
LAYER
70
36
0
LAYER
2
0
70
0
62
7
6
CONTINUOUS
0
LAYER
2
DEFAULT_1
70
0
62
7
6
CENTER
0
LAYER
2
DEFAULT_2
70
0
62
8
6
HIDDEN
0
LAYER
2
DEFAULT_3
70
0
62
7
6
PHANTOM
0
LAYER
2
10000_FRONT
70
0
62
7
6
CONTINUOUS
0
LAYER
2
10100_DIM_FRONT
70
0
62
7
6
CONTINUOUS
0
LAYER
2
10300_FRONT_GERMAN_ENGLISH
70
0
62
7
6
CONTINUOUS
0
LAYER
2
11000_LEFT
70
0
62
7
6
CONTINUOUS
0
LAYER
2
11100_DIM_LEFT
70
0
62
7
6
CONTINUOUS
0
LAYER
2
11300_LEFT_GERMAN_ENGLISH
70
0
62
7
6
CONTINUOUS
0
LAYER
2
12000_RIGHT
70
0
62
7
6
CONTINUOUS
0
LAYER
2
12100_DIM_RIGHT
70
0
62
7
6
CONTINUOUS
0
LAYER
2
12300_RIGHT_GERMAN_ENGLISH
70
0
62
7
6
CONTINUOUS
0
LAYER
2
13000_TOP
70
0
62
7
6
CONTINUOUS
0
LAYER
2
13100_DIM_TOP
70
0
62
7
6
CONTINUOUS
0
LAYER
2
13300_TOP_GERMAN_ENGLISH
70
0
62
7
6
CONTINUOUS
0
LAYER
2
14000_BOTTOM
70
0
62
7
6
CONTINUOUS
0
LAYER
2
14100_DIM_BOTTOM
70
0
62
7
6
CONTINUOUS
0
LAYER
2
14300_BOTTOM_GERMAN_ENGLISH
70
0
62
7
6
CONTINUOUS
0
LAYER
2
15000_BACK
70
0
62
7
6
CONTINUOUS
0
LAYER
2
15100_DIM_BACK
70
0
62
7
6
CONTINUOUS
0
LAYER
2
15300_BACK_GERMAN_ENGLISH
70
0
62
7
6
CONTINUOUS
0
LAYER
2
20000_FRONT_O
70
0
62
7
6
CONTINUOUS
0
LAYER
2
20100_DIM_FRONT_O
70
0
62
7
6
CONTINUOUS
0
LAYER
2
20300_FRONT_O_GERMAN_ENGLISH
70
0
62
7
6
CONTINUOUS
0
LAYER
2
40000_ISO
70
0
62
7
6
CONTINUOUS
0
LAYER
2
40300_ISO_GERMAN_ENGLISH
70
0
62
7
6
CONTINUOUS
0
LAYER
2
50000_WIRING
70
0
62
7
6
CONTINUOUS
0
LAYER
2
50300_WIRING_GERMAN_ENGLISH
70
0
62
7
6
CONTINUOUS
0
LAYER
2
90000_FRAME
70
0
62
7
6
CONTINUOUS
0
LAYER
2
91000_TIP
70
0
62
7
6
CONTINUOUS
0
ENDTAB
0
ENDSEC
0
SECTION
2
BLOCKS
0
BLOCK
8
10100_DIM_FRONT
62
7
6
CONTINUOUS
2
*D0
70
65
10
0.0000000000
20
0.0000000000
0
TEXT
8
10100_DIM_FRONT
62
7
6
CONTINUOUS
10
255.8914987574
20
288.5730621508
40
3.5000000000
1
482.6
72
5
11
268.8914987574
21
288.5730621508
0
LINE
8
10100_DIM_FRONT
62
7
6
CONTINUOUS
10
511.7658361729
20
300.4050907357
11
511.7658361729
21
285.6980621508
0
LINE
8
10100_DIM_FRONT
62
7
6
CONTINUOUS
10
29.1658361729
20
300.4050907357
11
29.1658361729
21
285.6980621508
0
LINE
8
10100_DIM_FRONT
62
7
6
CONTINUOUS
10
511.7658361729
20
287.6980621508
11
270.4658361729
21
287.6980621508
0
LINE
8
10100_DIM_FRONT
62
7
6
CONTINUOUS
10
29.1658361729
20
287.6980621508
11
270.4658361729
21
287.6980621508
0
SOLID
8
10100_DIM_FRONT
62
7
6
CONTINUOUS
10
508.2658361729
20
287.1980621508
11
511.7658361729
21
287.6980621508
12
508.2658361729
22
288.1980621508
13
508.2658361729
23
288.1980621508
0
SOLID
8
10100_DIM_FRONT
62
7
6
CONTINUOUS
10
32.6658361729
20
288.1980621508
11
29.1658361729
21
287.6980621508
12
32.6658361729
22
287.1980621508
13
32.6658361729
23
287.1980621508
0
ENDBLK
8
0
0
BLOCK
8
11100_DIM_LEFT
62
7
6
CONTINUOUS
2
*D1
70
65
10
0.0000000000
20
0.0000000000
0
TEXT
8
11100_DIM_LEFT
62
7
6
CONTINUOUS
10
557.5788074742
20
315.0851659056
40
3.5000000000
1
35
50
90.0000000000
72
5
11
557.5788074742
21
320.0851659056
0
LINE
8
11100_DIM_LEFT
62
7
6
CONTINUOUS
10
549.4071904655
20
335.4050907357
11
560.4538074742
21
335.4050907357
0
LINE
8
11100_DIM_LEFT
62
7
6
CONTINUOUS
10
549.4071904655
20
300.4050907357
11
560.4538074742
21
300.4050907357
0
LINE
8
11100_DIM_LEFT
62
7
6
CONTINUOUS
10
558.4538074742
20
335.4050907357
11
558.4538074742
21
317.9050907357
0
LINE
8
11100_DIM_LEFT
62
7
6
CONTINUOUS
10
558.4538074742
20
300.4050907357
11
558.4538074742
21
317.9050907357
0
SOLID
8
11100_DIM_LEFT
62
7
6
CONTINUOUS
10
558.9538074742
20
331.9050907357
11
558.4538074742
21
335.4050907357
12
557.9538074742
22
331.9050907357
13
557.9538074742
23
331.9050907357
0
SOLID
8
11100_DIM_LEFT
62
7
6
CONTINUOUS
10
557.9538074742
20
303.9050907357
11
558.4538074742
21
300.4050907357
12
558.9538074742
22
303.9050907357
13
558.9538074742
23
303.9050907357
0
ENDBLK
8
0
0
BLOCK
8
11100_DIM_LEFT
62
7
6
CONTINUOUS
2
*D2
70
65
10
0.0000000000
20
0.0000000000
0
TEXT
8
11100_DIM_LEFT
62
7
6
CONTINUOUS
10
541.2372813095
20
288.5271135762
40
3.5000000000
1
15
72
5
11
545.7372813095
21
288.5271135762
0
LINE
8
11100_DIM_LEFT
62
7
6
CONTINUOUS
10
550.4071904655
20
300.4050907357
11
550.4071904655
21
285.6521135762
0
LINE
8
11100_DIM_LEFT
62
7
6
CONTINUOUS
10
535.4071904655
20
309.2996036797
11
535.4071904655
21
285.6521135762
0
LINE
8
11100_DIM_LEFT
62
7
6
CONTINUOUS
10
550.4071904655
20
287.6521135762
11
542.9071904655
21
287.6521135762
0
LINE
8
11100_DIM_LEFT
62
7
6
CONTINUOUS
10
535.4071904655
20
287.6521135762
11
542.9071904655
21
287.6521135762
0
SOLID
8
11100_DIM_LEFT
62
7
6
CONTINUOUS
10
546.9071904655
20
287.1521135762
11
550.4071904655
21
287.6521135762
12
546.9071904655
22
288.1521135762
13
546.9071904655
23
288.1521135762
0
SOLID
8
11100_DIM_LEFT
62
7
6
CONTINUOUS
10
538.9071904655
20
288.1521135762
11
535.4071904655
21
287.6521135762
12
538.9071904655
22
287.1521135762
13
538.9071904655
23
287.1521135762
0
ENDBLK
8
0
0
ENDSEC
0
SECTION
2
ENTITIES
0
DIMENSION
8
10100_DIM_FRONT
62
7
6
CONTINUOUS
2
*D0
10
29.1658361729
20
287.6980621508
11
262.3914987574
21
290.3230621508
70
128
13
511.7658361729
23
300.4050907357
14
29.1658361729
24
300.4050907357
50
180.000000
0
DIMENSION
8
11100_DIM_LEFT
62
7
6
CONTINUOUS
2
*D1
10
558.4538074742
20
300.4050907357
11
555.8288074742
21
317.5851659056
70
128
13
549.4071904655
23
335.4050907357
14
549.4071904655
24
300.4050907357
50
270.000000
0
DIMENSION
8
11100_DIM_LEFT
62
7
6
CONTINUOUS
2
*D2
10
535.4071904655
20
287.6521135762
11
543.4872813095
21
290.2771135762
70
128
13
550.4071904655
23
300.4050907357
14
535.4071904655
24
309.2996036797
50
180.000000
0
TEXT
8
90000_FRAME
62
7
6
CONTINUOUS
10
499.6600000000
20
11.9000000000
40
2.2000000000
1
Format / Size: DIN A2
72
5
11
533.2361904762
21
11.9000000000
0
TEXT
8
90000_FRAME
62
7
6
CONTINUOUS
10
542.1600000000
20
11.9000000000
40
2.2000000000
1
Massstab / Scale: 1:1
72
5
11
573.0647619048
21
11.9000000000
0
TEXT
8
90000_FRAME
62
7
6
CONTINUOUS
10
524.8750003080
20
20.2500000324
40
3.5000000000
1
6ES57108MA11_001
72
5
11
565.8750003080
21
20.2500000324
0
TEXT
8
10000_FRONT
62
7
6
CONTINUOUS
10
29.5143922625
20
300.3886551250
40
0.0500000000
1
SIEMENS AG
72
5
11
29.9001065482
21
300.3886551250
0
TEXT
8
11300_LEFT_GERMAN_ENGLISH
62
7
6
CONTINUOUS
10
534.6769053788
20
343.1081287513
40
3.5000000000
1
Links / Left
72
5
11
563.1769053788
21
343.1081287513
0
TEXT
8
10300_FRONT_GERMAN_ENGLISH
62
7
6
CONTINUOUS
10
29.5149743721
20
344.2632820486
40
3.5000000000
1
Vorne / Front
72
5
11
62.0983077054
21
344.2632820486
0
TEXT
8
13300_TOP_GERMAN_ENGLISH
62
7
6
CONTINUOUS
10
29.3561834851
20
202.2663654466
40
3.5000000000
1
Oben / Top
72
5
11
55.7728501518
21
202.2663654466
0
TEXT
8
0
62
7
6
CONTINUOUS
10
11.2756234532
20
15.1898618139
40
3.5000000000
1
Alle Bemassungswerte sind in Millimeter (mm) angegeben.
72
5
11
145.8589567865
21
15.1898618139
0
TEXT
8
0
62
7
6
CONTINUOUS
10
11.2756234532
20
9.9398619112
40
3.5000000000
1
All dimensions are in millimeters (mm).
72
5
11
104.4422901199
21
9.9398619112
0
LINE
8
90000_FRAME
62
7
6
CONTINUOUS
10
0.0000000000
20
420.0000000000
11
0.0000000000
21
0.0000000000
0
LINE
8
90000_FRAME
62
7
6
CONTINUOUS
10
5.0000000000
20
415.0000000000
11
5.0000000000
21
5.0000000000
0
LINE
8
10000_FRONT
62
7
6
CONTINUOUS
10
29.1658361729
20
335.4050907357
11
29.1658361729
21
300.4050907357
0
LINE
8
13000_TOP
62
7
6
CONTINUOUS
10
29.1658361729
20
195.1952962980
11
29.1658361729
21
180.1952962980
0
LINE
8
91000_TIP
62
7
6
CONTINUOUS
10
422.7797812733
20
20.8043438692
11
432.7797810691
21
23.3043438181
0
LINE
8
90000_FRAME
62
7
6
CONTINUOUS
10
0.0000000000
20
0.0000000000
11
594.0000000000
21
0.0000000000
0
LINE
8
90000_FRAME
62
7
6
CONTINUOUS
10
5.0000000000
20
5.0000000000
11
589.0000000000
21
5.0000000000
0
LINE
8
90000_FRAME
62
7
6
CONTINUOUS
10
449.0000000000
20
10.0000000000
11
584.0000000000
21
10.0000000000
0
LINE
8
90000_FRAME
62
7
6
CONTINUOUS
10
499.0000000000
20
16.0000000000
11
584.0000000000
21
16.0000000000
0
LINE
8
90000_FRAME
62
7
6
CONTINUOUS
10
472.3969334385
20
16.7492119180
11
473.2525218735
21
16.7492119180
0
LINE
8
90000_FRAME
62
7
6
CONTINUOUS
10
485.5872551446
20
16.7967446088
11
484.0662090379
21
16.7967446088
0
LINE
8
90000_FRAME
62
7
6
CONTINUOUS
10
475.9618852509
20
16.7967446088
11
474.5834372168
21
16.7967446088
0
LINE
8
90000_FRAME
62
7
6
CONTINUOUS
10
463.2231241078
20
16.7967446088
11
464.6491048328
21
16.7967446088
0
LINE
8
90000_FRAME
62
7
6
CONTINUOUS
10
465.7423567219
20
16.7967446088
11
469.3073085344
21
16.7967446088
0
LINE
8
90000_FRAME
62
7
6
CONTINUOUS
10
470.1153642785
20
16.7967446088
11
471.0660180952
21
16.7967446088
0
LINE
8
90000_FRAME
62
7
6
CONTINUOUS
10
477.0551371401
20
16.7967446088
11
480.6200889526
21
16.7967446088
0
LINE
8
90000_FRAME
62
7
6
CONTINUOUS
10
481.4043783513
20
16.7967446088
11
482.3550321680
21
16.7967446088
0
LINE
8
90000_FRAME
62
7
6
CONTINUOUS
10
480.6200889526
20
17.6998657346
11
478.4335851743
21
17.6998657346
0
LINE
8
90000_FRAME
62
7
6
CONTINUOUS
10
469.3073085344
20
17.6998657346
11
467.1208047561
21
17.6998657346
0
LINE
8
91000_TIP
62
7
6
CENTER
10
421.5002708014
20
18.3043439202
11
445.1022600655
21
18.3043439202
0
LINE
8
90000_FRAME
62
7
6
CONTINUOUS
10
480.2873601167
20
18.8168839692
11
478.4335851743
21
18.8168839692
0
LINE
8
90000_FRAME
62
7
6
CONTINUOUS
10
468.9745796985
20
18.8168839692
11
467.1208047561
21
18.8168839692
0
LINE
8
90000_FRAME
62
7
6
CONTINUOUS
10
480.2873601167
20
19.6011733680
11
478.4335851743
21
19.6011733680
0
LINE
8
90000_FRAME
62
7
6
CONTINUOUS
10
468.9745796985
20
19.6011733680
11
467.1208047561
21
19.6011733680
0
LINE
8
90000_FRAME
62
7
6
CONTINUOUS
10
480.5725562617
20
20.6706589117
11
478.4335851743
21
20.6706589117
0
LINE
8
90000_FRAME
62
7
6
CONTINUOUS
10
469.2597758435
20
20.6706589117
11
467.1208047561
21
20.6706589117
0
LINE
8
90000_FRAME
62
7
6
CONTINUOUS
10
485.5872551446
20
21.5500136921
11
484.6366013279
21
21.5500136921
0
LINE
8
90000_FRAME
62
7
6
CONTINUOUS
10
482.9491908034
20
21.5500136921
11
481.4043783513
21
21.5500136921
0
LINE
8
90000_FRAME
62
7
6
CONTINUOUS
10
480.5725562617
20
21.5500136921
11
477.0551371401
21
21.5500136921
0
LINE
8
90000_FRAME
62
7
6
CONTINUOUS
10
475.9618852509
20
21.5500136921
11
474.2507083810
21
21.5500136921
0
LINE
8
90000_FRAME
62
7
6
CONTINUOUS
10
471.8265411485
20
21.5500136921
11
470.1153642785
21
21.5500136921
0
LINE
8
90000_FRAME
62
7
6
CONTINUOUS
10
469.2597758435
20
21.5500136921
11
465.7423567219
21
21.5500136921
0
LINE
8
90000_FRAME
62
7
6
CONTINUOUS
10
463.2231241078
20
21.5500136921
11
464.6491048328
21
21.5500136921
0
LINE
8
90000_FRAME
62
7
6
CONTINUOUS
10
449.0000000000
20
28.0000000000
11
584.0000000000
21
28.0000000000
0
LINE
8
91000_TIP
62
7
6
CONTINUOUS
10
422.7797812733
20
15.8043439713
11
432.7797810691
21
13.3043440223
0
LINE
8
13000_TOP
62
7
6
CONTINUOUS
10
29.1658361729
20
180.1952962980
11
511.7658361729
21
180.1952962980
0
LINE
8
13000_TOP
62
7
6
CONTINUOUS
10
29.1658361729
20
181.1952962980
11
511.7658361729
21
181.1952962980
0
LINE
8
13000_TOP
62
7
6
CONTINUOUS
10
29.1658361729
20
195.1952962980
11
511.7658361729
21
195.1952962980
0
LINE
8
90000_FRAME
62
7
6
CONTINUOUS
10
482.9491908034
20
21.5500136921
11
484.6366013279
21
18.6029868605
0
LINE
8
90000_FRAME
62
7
6
CONTINUOUS
10
484.0662090379
20
16.7967446088
11
482.3550321680
21
19.8388368221
0
LINE
8
90000_FRAME
62
7
6
CONTINUOUS
10
472.3969334385
20
16.7492119180
11
471.0660180952
21
19.8388368221
0
LINE
8
11000_LEFT
62
7
6
CONTINUOUS
10
550.4071904655
20
300.4050907357
11
549.4071904655
21
300.4050907357
0
LINE
8
10000_FRONT
62
7
6
CONTINUOUS
10
29.1658361729
20
300.4050907357
11
511.7658361729
21
300.4050907357
0
LINE
8
11000_LEFT
62
7
6
CONTINUOUS
10
547.0126775216
20
305.9050907357
11
538.8017034095
21
305.9050907357
0
LINE
8
10000_FRONT
62
7
6
CONTINUOUS
10
29.1658361729
20
308.0996036797
11
511.7658361729
21
308.0996036797
0
LINE
8
11000_LEFT
62
7
6
CONTINUOUS
10
538.8017034095
20
308.0996036797
11
547.0126775216
21
308.0996036797
0
LINE
8
10000_FRONT
62
7
6
CONTINUOUS
10
35.9658361729
20
314.4050907357
11
39.9658361729
21
314.4050907357
0
LINE
8
10000_FRONT
62
7
6
CONTINUOUS
10
190.9658361729
20
314.4050907357
11
194.9658361729
21
314.4050907357
0
LINE
8
10000_FRONT
62
7
6
CONTINUOUS
10
345.9658361729
20
314.4050907357
11
349.9658361729
21
314.4050907357
0
LINE
8
10000_FRONT
62
7
6
CONTINUOUS
10
500.9658361729
20
314.4050907357
11
504.9658361729
21
314.4050907357
0
LINE
8
90000_FRAME
62
7
6
CONTINUOUS
10
471.8265411485
20
21.5500136921
11
473.0623911102
21
18.6505195513
0
LINE
8
91000_TIP
62
7
6
CONTINUOUS
10
422.7797812733
20
20.8043438692
11
422.7797812733
21
15.8043439713
0
LINE
8
10000_FRONT
62
7
6
CONTINUOUS
10
504.9658361729
20
321.4050907357
11
500.9658361729
21
321.4050907357
0
LINE
8
10000_FRONT
62
7
6
CONTINUOUS
10
349.9658361729
20
321.4050907357
11
345.9658361729
21
321.4050907357
0
LINE
8
10000_FRONT
62
7
6
CONTINUOUS
10
194.9658361729
20
321.4050907357
11
190.9658361729
21
321.4050907357
0
LINE
8
10000_FRONT
62
7
6
CONTINUOUS
10
39.9658361729
20
321.4050907357
11
35.9658361729
21
321.4050907357
0
LINE
8
11000_LEFT
62
7
6
CONTINUOUS
10
547.0126775216
20
327.7105777918
11
538.8017034095
21
327.7105777918
0
LINE
8
10000_FRONT
62
7
6
CONTINUOUS
10
29.1658361729
20
327.7105777918
11
511.7658361729
21
327.7105777918
0
LINE
8
11000_LEFT
62
7
6
CONTINUOUS
10
538.8017034095
20
329.9050907357
11
547.0126775216
21
329.9050907357
0
LINE
8
10000_FRONT
62
7
6
CONTINUOUS
10
29.1658361729
20
335.4050907357
11
511.7658361729
21
335.4050907357
0
LINE
8
11000_LEFT
62
7
6
CONTINUOUS
10
549.4071904655
20
335.4050907357
11
550.4071904655
21
335.4050907357
0
LINE
8
91000_TIP
62
7
6
CONTINUOUS
10
432.7797810691
20
23.3043438181
11
432.7797810691
21
13.3043440223
0
LINE
8
91000_TIP
62
7
6
CENTER
10
439.2797809364
20
12.5828627138
11
439.2797809364
21
23.8662487138
0
LINE
8
90000_FRAME
62
7
6
CONTINUOUS
10
449.0000000000
20
10.0000000000
11
449.0000000000
21
28.0000000000
0
LINE
8
90000_FRAME
62
7
6
CONTINUOUS
10
458.8025838603
20
16.8918099905
11
458.8025838603
21
17.8424638071
0
LINE
8
90000_FRAME
62
7
6
CONTINUOUS
10
462.1298722186
20
20.5518271846
11
462.1298722186
21
21.5024810013
0
LINE
8
90000_FRAME
62
7
6
CONTINUOUS
10
463.2231241078
20
21.5500136921
11
463.2231241078
21
16.7967446088
0
LINE
8
90000_FRAME
62
7
6
CONTINUOUS
10
464.6491048328
20
21.5500136921
11
464.6491048328
21
16.7967446088
0
LINE
8
90000_FRAME
62
7
6
CONTINUOUS
10
465.7423567219
20
21.5500136921
11
465.7423567219
21
16.7967446088
0
LINE
8
90000_FRAME
62
7
6
CONTINUOUS
10
467.1208047561
20
20.6706589117
11
467.1208047561
21
19.6011733680
0
LINE
8
90000_FRAME
62
7
6
CONTINUOUS
10
467.1208047561
20
18.8168839692
11
467.1208047561
21
17.6998657346
0
LINE
8
90000_FRAME
62
7
6
CONTINUOUS
10
468.9745796985
20
19.6011733680
11
468.9745796985
21
18.8168839692
0
LINE
8
90000_FRAME
62
7
6
CONTINUOUS
10
469.2597758435
20
21.5500136921
11
469.2597758435
21
20.6706589117
0
LINE
8
90000_FRAME
62
7
6
CONTINUOUS
10
469.3073085344
20
17.6998657346
11
469.3073085344
21
16.7967446088
0
LINE
8
90000_FRAME
62
7
6
CONTINUOUS
10
470.1153642785
20
16.7967446088
11
470.1153642785
21
21.5500136921
0
LINE
8
90000_FRAME
62
7
6
CONTINUOUS
10
471.0660180952
20
16.7967446088
11
471.0660180952
21
19.8388368221
0
LINE
8
90000_FRAME
62
7
6
CONTINUOUS
10
474.5834372168
20
19.8863695130
11
474.5834372168
21
16.7967446088
0
LINE
8
90000_FRAME
62
7
6
CONTINUOUS
10
475.9618852509
20
21.5500136921
11
475.9618852509
21
16.7967446088
0
LINE
8
90000_FRAME
62
7
6
CONTINUOUS
10
477.0551371401
20
21.5500136921
11
477.0551371401
21
16.7967446088
0
LINE
8
90000_FRAME
62
7
6
CONTINUOUS
10
478.4335851743
20
20.6706589117
11
478.4335851743
21
19.6011733680
0
LINE
8
90000_FRAME
62
7
6
CONTINUOUS
10
478.4335851743
20
18.8168839692
11
478.4335851743
21
17.6998657346
0
LINE
8
90000_FRAME
62
7
6
CONTINUOUS
10
480.2873601167
20
19.6011733680
11
480.2873601167
21
18.8168839692
0
LINE
8
90000_FRAME
62
7
6
CONTINUOUS
10
480.5725562617
20
21.5500136921
11
480.5725562617
21
20.6706589117
0
LINE
8
90000_FRAME
62
7
6
CONTINUOUS
10
480.6200889526
20
17.6998657346
11
480.6200889526
21
16.7967446088
0
LINE
8
90000_FRAME
62
7
6
CONTINUOUS
10
481.4043783513
20
16.7967446088
11
481.4043783513
21
21.5500136921
0
LINE
8
90000_FRAME
62
7
6
CONTINUOUS
10
482.3550321680
20
16.7967446088
11
482.3550321680
21
19.8388368221
0
LINE
8
90000_FRAME
62
7
6
CONTINUOUS
10
484.6366013279
20
21.5500136921
11
484.6366013279
21
18.6029868605
0
LINE
8
90000_FRAME
62
7
6
CONTINUOUS
10
485.5872551446
20
21.5500136921
11
485.5872551446
21
16.7967446088
0
LINE
8
90000_FRAME
62
7
6
CONTINUOUS
10
486.3953108887
20
16.8918099905
11
486.3953108887
21
17.8424638071
0
LINE
8
90000_FRAME
62
7
6
CONTINUOUS
10
489.7225992470
20
20.5518271846
11
489.7225992470
21
21.5024810013
0
LINE
8
90000_FRAME
62
7
6
CONTINUOUS
10
499.0000000000
20
10.0000000000
11
499.0000000000
21
28.0000000000
0
LINE
8
90000_FRAME
62
7
6
CONTINUOUS
10
589.0000000000
20
415.0000000000
11
5.0000000000
21
415.0000000000
0
LINE
8
90000_FRAME
62
7
6
CONTINUOUS
10
594.0000000000
20
420.0000000000
11
0.0000000000
21
420.0000000000
0
LINE
8
10000_FRONT
62
7
6
CONTINUOUS
10
511.7658361729
20
335.4050907357
11
511.7658361729
21
300.4050907357
0
LINE
8
13000_TOP
62
7
6
CONTINUOUS
10
511.7658361729
20
195.1952962980
11
511.7658361729
21
180.1952962980
0
LINE
8
11000_LEFT
62
7
6
CONTINUOUS
10
548.1717885131
20
330.7945078816
11
549.4071904655
21
335.4050907357
0
LINE
8
11000_LEFT
62
7
6
CONTINUOUS
10
535.4071904655
20
309.2996036797
11
535.4071904655
21
326.5105777918
0
LINE
8
11000_LEFT
62
7
6
CONTINUOUS
10
537.6017034095
20
326.5105777918
11
537.6017034095
21
309.2996036797
0
LINE
8
90000_FRAME
62
7
6
CONTINUOUS
10
541.5000000000
20
10.0000000000
11
541.5000000000
21
16.0000000000
0
LINE
8
90000_FRAME
62
7
6
CONTINUOUS
10
474.2507083810
20
21.5500136921
11
473.0623911102
21
18.6505195513
0
LINE
8
90000_FRAME
62
7
6
CONTINUOUS
10
474.5834372168
20
19.8863695130
11
473.2525218735
21
16.7492119180
0
LINE
8
90000_FRAME
62
7
6
CONTINUOUS
10
458.9944124496
20
20.9692081512
11
459.2684782743
21
21.2432812288
0
LINE
8
11000_LEFT
62
7
6
CONTINUOUS
10
550.4071904655
20
335.4050907357
11
550.4071904655
21
331.1050907357
0
LINE
8
11000_LEFT
62
7
6
CONTINUOUS
10
550.4071904655
20
304.7050907357
11
550.4071904655
21
300.4050907357
0
LINE
8
11000_LEFT
62
7
6
CONTINUOUS
10
549.4071904655
20
300.4050907357
11
548.1717885131
21
305.0156735898
0
LINE
8
90000_FRAME
62
7
6
CONTINUOUS
10
584.0000000000
20
10.0000000000
11
584.0000000000
21
28.0000000000
0
LINE
8
90000_FRAME
62
7
6
CONTINUOUS
10
589.0000000000
20
5.0000000000
11
589.0000000000
21
415.0000000000
0
LINE
8
90000_FRAME
62
7
6
CONTINUOUS
10
594.0000000000
20
0.0000000000
11
594.0000000000
21
420.0000000000
0
ARC
8
90000_FRAME
62
7
6
CONTINUOUS
10
488.0999520137
20
18.7539031539
40
1.1116193606
50
277.7099956934
51
295.6884927746
0
ARC
8
90000_FRAME
62
7
6
CONTINUOUS
10
488.3842619965
20
18.0290773902
40
0.3401689265
50
305.5032212550
51
72.4652898523
0
ARC
8
90000_FRAME
62
7
6
CONTINUOUS
10
487.8182681884
20
21.4307842998
40
4.7567946411
50
252.5939200548
51
280.9816604256
0
ARC
8
90000_FRAME
62
7
6
CONTINUOUS
10
488.2731035514
20
18.8127705633
40
2.1007265953
50
282.4058358520
51
311.8644433928
0
ARC
8
90000_FRAME
62
7
6
CONTINUOUS
10
487.9995392043
20
20.4211122848
40
0.3029626476
50
154.4400348282
51
221.8201698801
0
ARC
8
90000_FRAME
62
7
6
CONTINUOUS
10
488.0787603557
20
20.3418911335
40
0.4103089737
50
102.8287828681
51
149.2259639003
0
ARC
8
90000_FRAME
62
7
6
CONTINUOUS
10
488.4957871914
20
18.5995558036
40
2.2018365570
50
84.0400061857
51
103.3427657871
0
ARC
8
90000_FRAME
62
7
6
CONTINUOUS
10
488.1548233666
20
16.1821918797
40
4.6423737365
50
70.2625858546
51
82.9524186380
0
ARC
8
90000_FRAME
62
7
6
CONTINUOUS
10
487.6408051645
20
20.8538147693
40
3.2587559909
50
247.5300206145
51
280.7579522143
0
ARC
8
90000_FRAME
62
7
6
CONTINUOUS
10
481.2558386924
20
2.6022948089
40
17.3316084133
50
65.3414674650
51
67.3997770736
0
ARC
8
90000_FRAME
62
7
6
CONTINUOUS
10
492.0517010978
20
28.3947211720
40
10.6291642039
50
242.8620101252
51
247.1042029186
0
ARC
8
90000_FRAME
62
7
6
CONTINUOUS
10
488.1967998713
20
20.8607896750
40
2.1662916292
50
227.3119280794
51
242.7040315235
0
ARC
8
90000_FRAME
62
7
6
CONTINUOUS
10
487.5927690616
20
20.1551120342
40
1.2385217340
50
194.7952194236
51
225.7176549047
0
ARC
8
90000_FRAME
62
7
6
CONTINUOUS
10
487.6549271958
20
20.1953320034
40
1.3090920729
50
164.1974860461
51
195.8025139539
0
ARC
8
90000_FRAME
62
7
6
CONTINUOUS
10
488.2119509165
20
19.3070648434
40
2.3669248153
50
86.2218022928
51
120.4272602309
0
ARC
8
90000_FRAME
62
7
6
CONTINUOUS
10
487.9430941340
20
12.6108970224
40
9.0679051661
50
78.6827049226
51
87.3147599624
0
ARC
8
90000_FRAME
62
7
6
CONTINUOUS
10
487.4870249556
20
20.3028397659
40
1.1197474440
50
142.8139179030
51
167.1522951417
0
ARC
8
90000_FRAME
62
7
6
CONTINUOUS
10
487.8323342971
20
19.9962580692
40
1.5805466845
50
121.2140948535
51
141.5254768286
0
ARC
8
90000_FRAME
62
7
6
CONTINUOUS
10
488.4095086628
20
20.8073153978
40
0.8661276052
50
222.7760387596
51
239.0362434679
0
ARC
8
90000_FRAME
62
7
6
CONTINUOUS
10
485.9027990845
20
13.4770431993
40
6.8587735763
50
59.9020272560
51
68.2036481279
0
ARC
8
90000_FRAME
62
7
6
CONTINUOUS
10
489.3112935783
20
22.4029297065
40
2.6987410171
50
240.0481997804
51
251.3779673737
0
ARC
8
90000_FRAME
62
7
6
CONTINUOUS
10
488.6458364115
20
18.2460310912
40
1.4334474881
50
315.8904553224
51
333.5229264373
0
ARC
8
90000_FRAME
62
7
6
CONTINUOUS
10
488.6504746552
20
18.1926239410
40
1.4062287119
50
335.3867972702
51
24.3915119402
0
ARC
8
90000_FRAME
62
7
6
CONTINUOUS
10
488.5782697517
20
18.1147672492
40
1.5047025148
50
25.9562916605
51
59.4834829668
0
ARC
8
90000_FRAME
62
7
6
CONTINUOUS
10
460.5072249853
20
18.7539031539
40
1.1116193606
50
277.7099956934
51
295.6884927746
0
ARC
8
90000_FRAME
62
7
6
CONTINUOUS
10
460.7915349681
20
18.0290773902
40
0.3401689265
50
305.5032212556
51
72.4652898515
0
ARC
8
90000_FRAME
62
7
6
CONTINUOUS
10
460.2255411600
20
21.4307842998
40
4.7567946411
50
252.5939200545
51
280.9816604253
0
ARC
8
90000_FRAME
62
7
6
CONTINUOUS
10
460.6803765230
20
18.8127705633
40
2.1007265953
50
282.4058358513
51
311.8644433923
0
ARC
8
90000_FRAME
62
7
6
CONTINUOUS
10
460.4068121759
20
20.4211122848
40
0.3029626476
50
154.4400348282
51
221.8201698801
0
ARC
8
90000_FRAME
62
7
6
CONTINUOUS
10
460.4860333273
20
20.3418911335
40
0.4103089737
50
102.8287828726
51
149.2259639027
0
ARC
8
90000_FRAME
62
7
6
CONTINUOUS
10
460.9030601630
20
18.5995558036
40
2.2018365570
50
84.0400061859
51
103.3427657872
0
ARC
8
90000_FRAME
62
7
6
CONTINUOUS
10
460.5620963382
20
16.1821918797
40
4.6423737365
50
70.2625858546
51
82.9524186379
0
ARC
8
90000_FRAME
62
7
6
CONTINUOUS
10
460.0480781360
20
20.8538147693
40
3.2587559909
50
247.5300206148
51
280.7579522145
0
ARC
8
90000_FRAME
62
7
6
CONTINUOUS
10
453.6631116640
20
2.6022948089
40
17.3316084133
50
65.3414674650
51
67.3997770736
0
ARC
8
90000_FRAME
62
7
6
CONTINUOUS
10
464.4589740694
20
28.3947211720
40
10.6291642039
50
242.8620101252
51
247.1042029185
0
ARC
8
90000_FRAME
62
7
6
CONTINUOUS
10
460.6040728429
20
20.8607896750
40
2.1662916292
50
227.3119280794
51
242.7040315235
0
ARC
8
90000_FRAME
62
7
6
CONTINUOUS
10
460.0000420332
20
20.1551120342
40
1.2385217340
50
194.7952194234
51
225.7176549042
0
ARC
8
90000_FRAME
62
7
6
CONTINUOUS
10
460.6192238881
20
19.3070648434
40
2.3669248153
50
86.2218022928
51
120.4272602309
0
ARC
8
90000_FRAME
62
7
6
CONTINUOUS
10
460.3503671056
20
12.6108970224
40
9.0679051661
50
78.6827049226
51
87.3147599624
0
ARC
8
90000_FRAME
62
7
6
CONTINUOUS
10
460.2396072687
20
19.9962580692
40
1.5805466846
50
121.2140948541
51
141.5254768290
0
ARC
8
90000_FRAME
62
7
6
CONTINUOUS
10
460.8167816344
20
20.8073153978
40
0.8661276052
50
222.7760387596
51
239.0362434679
0
ARC
8
90000_FRAME
62
7
6
CONTINUOUS
10
458.3100720561
20
13.4770431993
40
6.8587735763
50
59.9020272562
51
68.2036481282
0
ARC
8
90000_FRAME
62
7
6
CONTINUOUS
10
461.7185665499
20
22.4029297065
40
2.6987410171
50
240.0481997804
51
251.3779673734
0
ARC
8
90000_FRAME
62
7
6
CONTINUOUS
10
461.0531093831
20
18.2460310912
40
1.4334474881
50
315.8904553226
51
333.5229264375
0
ARC
8
90000_FRAME
62
7
6
CONTINUOUS
10
461.0577476268
20
18.1926239410
40
1.4062287119
50
335.3867972703
51
24.3915119403
0
ARC
8
90000_FRAME
62
7
6
CONTINUOUS
10
460.9855427233
20
18.1147672492
40
1.5047025147
50
25.9562916611
51
59.4834829676
0
ARC
8
90000_FRAME
62
7
6
CONTINUOUS
10
460.0622001674
20
20.1953320034
40
1.3090920729
50
164.1974860461
51
195.8025139539
0
ARC
8
90000_FRAME
62
7
6
CONTINUOUS
10
459.8942979271
20
20.3028397659
40
1.1197474440
50
142.8139179030
51
167.1522951417
0
ARC
8
10000_FRONT
62
7
6
CONTINUOUS
10
500.9658361729
20
317.9050907357
40
3.5000000000
50
90.0000000000
51
270.0000000000
0
ARC
8
10000_FRONT
62
7
6
CONTINUOUS
10
504.9658361729
20
317.9050907357
40
3.5000000000
50
270.0000000000
51
90.0000000000
0
ARC
8
10000_FRONT
62
7
6
CONTINUOUS
10
349.9658361729
20
317.9050907357
40
3.5000000000
50
270.0000000000
51
90.0000000000
0
ARC
8
10000_FRONT
62
7
6
CONTINUOUS
10
345.9658361729
20
317.9050907357
40
3.5000000000
50
90.0000000000
51
270.0000000000
0
ARC
8
10000_FRONT
62
7
6
CONTINUOUS
10
194.9658361729
20
317.9050907357
40
3.5000000000
50
270.0000000000
51
90.0000000000
0
ARC
8
10000_FRONT
62
7
6
CONTINUOUS
10
190.9658361729
20
317.9050907357
40
3.5000000000
50
90.0000000000
51
270.0000000000
0
ARC
8
10000_FRONT
62
7
6
CONTINUOUS
10
39.9658361729
20
317.9050907357
40
3.5000000000
50
270.0000000000
51
90.0000000000
0
ARC
8
10000_FRONT
62
7
6
CONTINUOUS
10
35.9658361729
20
317.9050907357
40
3.5000000000
50
90.0000000000
51
270.0000000000
0
ARC
8
11000_LEFT
62
7
6
CONTINUOUS
10
538.8017034095
20
309.2996036797
40
1.2000000000
50
180.0000000000
51
270.0000000000
0
ARC
8
11000_LEFT
62
7
6
CONTINUOUS
10
547.0126775216
20
304.7050907357
40
3.3945129439
50
0.0000000000
51
90.0000000000
0
ARC
8
11000_LEFT
62
7
6
CONTINUOUS
10
547.0126775216
20
304.7050907357
40
1.2000000000
50
15.0000000000
51
90.0000000000
0
ARC
8
11000_LEFT
62
7
6
CONTINUOUS
10
538.8017034095
20
309.2996036797
40
3.3945129439
50
180.0000000000
51
270.0000000000
0
ARC
8
11000_LEFT
62
7
6
CONTINUOUS
10
538.8017034095
20
326.5105777918
40
3.3945129439
50
90.0000000000
51
180.0000000000
0
ARC
8
11000_LEFT
62
7
6
CONTINUOUS
10
547.0126775216
20
331.1050907357
40
1.2000000000
50
270.0000000000
51
345.0000000000
0
ARC
8
11000_LEFT
62
7
6
CONTINUOUS
10
547.0126775216
20
331.1050907357
40
3.3945129439
50
270.0000000000
51
360.0000000000
0
ARC
8
11000_LEFT
62
7
6
CONTINUOUS
10
538.8017034095
20
326.5105777918
40
1.2000000000
50
90.0000000000
51
180.0000000000
0
CIRCLE
8
91000_TIP
62
7
6
CONTINUOUS
10
439.2797809364
20
18.3043439202
40
4.9999998979
0
CIRCLE
8
91000_TIP
62
7
6
CONTINUOUS
10
439.2797809364
20
18.3043439202
40
2.4999999489
0
ENDSEC
0
EOF
