0
SECTION
2
HEADER
9
$EXTMAX
10
420.0000000000
20
297.0000000000
9
$EXTMIN
10
0.0000000000
20
-0.0000000000
9
$LIMMIN
10
0.0000000000
20
-0.0000000000
9
$LIMMAX
10
420.0000000000
20
297.0000000000
9
$VIEWCTR
10
210.0000000000
20
148.5000000000
9
$VIEWSIZE
40
297.0000000000
9
$CLAYER
8
0
9
$LTSCALE
40
23.1000000000
9
$CELTYPE
6
BYLAYER
9
$DIMSCALE
40
1
9
$DIMASZ
40
3.5000000000
9
$DIMEXO
40
2.6250000000
9
$DIMDLI
40
15.9600000000
9
$DIMEXE
40
7.5600000000
9
$DIMCEN
40
3.7800000000
9
$DIMLFAC
40
1.0000000000
0
ENDSEC
0
SECTION
2
TABLES
0
TABLE
2
LTYPE
70
6
0
LTYPE
2
BYBLOCK
70
0
3

72
65
73
0
40
0.0
0
LTYPE
2
BYLAYER
70
0
3

72
65
73
0
40
0.0
0
LTYPE
2
CONTINUOUS
70
64
3
Solid line
72
65
73
0
40
0
0
LTYPE
2
CENTER
70
64
3
____ _ ____ _ ____ _ ____ _ ____ _ ____ _ ____
72
65
73
4
40
0.6
49
0.375
49
-0.075
49
0.075
49
-0.075
0
LTYPE
2
HIDDEN
70
64
3
- - - - - - - - - - - - - - - - - - - -
72
65
73
2
40
0.2
49
0.1
49
-0.1
0
LTYPE
2
PHANTOM
70
64
3
_____ _ _ _____ _ _ _____ _ _ _____
72
65
73
6
40
0.8
49
0.45
49
-0.05
49
0.1
49
-0.05
49
0.1
49
-0.05
0
LTYPE
2
DOT
70
64
3
. . . . . . . . . . . . . . . . . . . .
72
65
73
2
40
0.2
49
0.1
49
-0.1
0
LTYPE
2
DASHED
70
64
3
- - - - - - - - - - - - - - - - - - - -
72
65
73
2
40
0.2
49
0.1
49
-0.1
0
ENDTAB
0
TABLE
2
LAYER
70
36
0
LAYER
2
0
70
0
62
7
6
CONTINUOUS
0
LAYER
2
DEFAULT_1
70
0
62
7
6
CENTER
0
LAYER
2
DEFAULT_2
70
0
62
8
6
HIDDEN
0
LAYER
2
DEFAULT_3
70
0
62
7
6
PHANTOM
0
LAYER
2
10000_FRONT
70
0
62
7
6
CONTINUOUS
0
LAYER
2
10100_DIM_FRONT
70
0
62
7
6
CONTINUOUS
0
LAYER
2
10300_FRONT_GERMAN_ENGLISH
70
0
62
7
6
CONTINUOUS
0
LAYER
2
11000_LEFT
70
0
62
7
6
CONTINUOUS
0
LAYER
2
11100_DIM_LEFT
70
0
62
7
6
CONTINUOUS
0
LAYER
2
11300_LEFT_GERMAN_ENGLISH
70
0
62
7
6
CONTINUOUS
0
LAYER
2
12000_RIGHT
70
0
62
7
6
CONTINUOUS
0
LAYER
2
12100_DIM_RIGHT
70
0
62
7
6
CONTINUOUS
0
LAYER
2
12300_RIGHT_GERMAN_ENGLISH
70
0
62
7
6
CONTINUOUS
0
LAYER
2
13000_TOP
70
0
62
7
6
CONTINUOUS
0
LAYER
2
13100_DIM_TOP
70
0
62
7
6
CONTINUOUS
0
LAYER
2
13300_TOP_GERMAN_ENGLISH
70
0
62
7
6
CONTINUOUS
0
LAYER
2
14000_BOTTOM
70
0
62
7
6
CONTINUOUS
0
LAYER
2
14100_DIM_BOTTOM
70
0
62
7
6
CONTINUOUS
0
LAYER
2
14300_BOTTOM_GERMAN_ENGLISH
70
0
62
7
6
CONTINUOUS
0
LAYER
2
15000_BACK
70
0
62
7
6
CONTINUOUS
0
LAYER
2
15100_DIM_BACK
70
0
62
7
6
CONTINUOUS
0
LAYER
2
15300_BACK_GERMAN_ENGLISH
70
0
62
7
6
CONTINUOUS
0
LAYER
2
20000_FRONT_O
70
0
62
7
6
CONTINUOUS
0
LAYER
2
20100_DIM_FRONT_O
70
0
62
7
6
CONTINUOUS
0
LAYER
2
20300_FRONT_O_GERMAN_ENGLISH
70
0
62
7
6
CONTINUOUS
0
LAYER
2
40000_ISO
70
0
62
7
6
CONTINUOUS
0
LAYER
2
40300_ISO_GERMAN_ENGLISH
70
0
62
7
6
CONTINUOUS
0
LAYER
2
50000_WIRING
70
0
62
7
6
CONTINUOUS
0
LAYER
2
50300_WIRING_GERMAN_ENGLISH
70
0
62
7
6
CONTINUOUS
0
LAYER
2
90000_FRAME
70
0
62
7
6
CONTINUOUS
0
LAYER
2
91000_TIP
70
0
62
7
6
CONTINUOUS
0
ENDTAB
0
ENDSEC
0
SECTION
2
BLOCKS
0
ENDSEC
0
SECTION
2
ENTITIES
0
TEXT
8
90000_FRAME
62
7
6
CONTINUOUS
10
325.6600000000
20
11.9000000000
40
2.2000000000
1
Format / Size: DIN A3
72
5
11
359.0790476190
21
11.9000000000
0
TEXT
8
90000_FRAME
62
7
6
CONTINUOUS
10
368.1600000000
20
11.9000000000
40
2.2000000000
1
Massstab / Scale: 1:1
72
5
11
399.0647619048
21
11.9000000000
0
TEXT
8
90000_FRAME
62
7
6
CONTINUOUS
10
350.8750000000
20
20.2500000000
40
3.5000000000
1
6ES57108MA11_001
72
5
11
391.8750000000
21
20.2500000000
0
TEXT
8
0
62
7
6
CONTINUOUS
10
11.2756234532
20
15.1898618139
40
3.5000000000
1
Alle Bemassungswerte sind in Millimeter (mm) angegeben.
72
5
11
145.8589567865
21
15.1898618139
0
TEXT
8
0
62
7
6
CONTINUOUS
10
11.2756234532
20
9.9398620142
40
3.5000000000
1
All dimensions are in millimeters (mm).
72
5
11
104.4422901199
21
9.9398620142
0
LINE
8
90000_FRAME
62
7
6
CONTINUOUS
10
0.0000000000
20
297.0000000000
11
0.0000000000
21
0.0000000000
0
LINE
8
90000_FRAME
62
7
6
CONTINUOUS
10
5.0000000000
20
292.0000000000
11
5.0000000000
21
5.0000000000
0
LINE
8
40000_ISO
62
7
6
CONTINUOUS
10
31.9931700920
20
248.6913139275
11
31.6946653303
21
248.0989702082
0
LINE
8
40000_ISO
62
7
6
CONTINUOUS
10
32.3568991965
20
249.2459992782
11
31.9931700920
21
248.6913139275
0
LINE
8
40000_ISO
62
7
6
CONTINUOUS
10
31.4728562820
20
247.4917315573
11
31.3362669445
21
246.8929338155
0
LINE
8
40000_ISO
62
7
6
CONTINUOUS
10
40.3160426294
20
255.0345002470
11
40.2312746629
21
254.7492499317
0
LINE
8
40000_ISO
62
7
6
CONTINUOUS
10
31.6946653303
20
248.0989702082
11
31.4728562820
21
247.4917315573
0
LINE
8
40000_ISO
62
7
6
CONTINUOUS
10
40.2312746629
20
254.7492499317
11
40.0964283015
21
254.4684729884
0
LINE
8
40000_ISO
62
7
6
CONTINUOUS
10
40.0964283015
20
254.4684729884
11
39.9206931018
21
254.2113039018
0
LINE
8
40000_ISO
62
7
6
CONTINUOUS
10
32.7718747383
20
249.7417100134
11
32.3568991965
21
249.2459992782
0
LINE
8
40000_ISO
62
7
6
CONTINUOUS
10
39.9206931018
20
254.2113039018
11
39.7160451274
21
253.9952683203
0
LINE
8
40000_ISO
62
7
6
CONTINUOUS
10
33.2221494401
20
250.1593962474
11
32.7718747383
21
249.7417100134
0
LINE
8
40000_ISO
62
7
6
CONTINUOUS
10
31.9972502066
20
271.8004568041
11
31.2901463694
21
271.3922126503
0
LINE
8
40000_ISO
62
7
6
CONTINUOUS
10
39.4964307995
20
271.6393215995
11
35.8864209008
21
269.5550938538
0
LINE
8
40000_ISO
62
7
6
CONTINUOUS
10
31.2901463694
20
271.3922126503
11
31.2901463694
21
267.8812522566
0
LINE
8
40000_ISO
62
7
6
CONTINUOUS
10
31.2901463694
20
246.3255884444
11
31.2901463694
21
242.8146280507
0
LINE
8
40000_ISO
62
7
6
CONTINUOUS
10
31.3362669445
20
246.8929338155
11
31.2901463694
21
246.3255884444
0
LINE
8
40000_ISO
62
7
6
CONTINUOUS
10
40.3449554042
20
255.3047845967
11
40.3160426294
21
255.0345002470
0
LINE
8
40000_ISO
62
7
6
CONTINUOUS
10
50.1250528841
20
255.2558921748
11
50.3151857883
21
255.7493224099
0
LINE
8
40000_ISO
62
7
6
CONTINUOUS
10
49.7302223195
20
254.8910018827
11
50.1250528841
21
255.2558921748
0
LINE
8
40000_ISO
62
7
6
CONTINUOUS
10
39.7160451274
20
253.9952683203
11
39.4964307995
21
253.8350887115
0
LINE
8
40000_ISO
62
7
6
CONTINUOUS
10
33.6904194976
20
250.4830065327
11
33.2221494401
21
250.1593962474
0
LINE
8
40000_ISO
62
7
6
CONTINUOUS
10
39.4964307995
20
253.8350887115
11
33.6904194976
21
250.4830065327
0
LINE
8
40000_ISO
62
7
6
CONTINUOUS
10
45.1533015352
20
256.6973899879
11
46.7050500586
21
257.5932870679
0
LINE
8
40000_ISO
62
7
6
CONTINUOUS
10
39.9647008570
20
271.8564197742
11
39.4964307995
21
271.6393215995
0
LINE
8
40000_ISO
62
7
6
CONTINUOUS
10
31.2901463694
20
267.8812522566
11
31.3362669445
21
267.3671620205
0
LINE
8
40000_ISO
62
7
6
CONTINUOUS
10
40.3449554042
20
261.5055073838
11
40.3449554042
21
255.3047845967
0
LINE
8
40000_ISO
62
7
6
CONTINUOUS
10
47.9817404357
20
255.0644269698
11
49.5334889592
21
255.9603240498
0
LINE
8
40000_ISO
62
7
6
CONTINUOUS
10
49.5725652308
20
254.8145730960
11
49.7302223195
21
254.8910018827
0
LINE
8
90000_FRAME
62
7
6
CONTINUOUS
10
0.0000000000
20
0.0000000000
11
420.0000000000
21
0.0000000000
0
LINE
8
91000_TIP
62
7
6
CONTINUOUS
10
248.5082295492
20
20.1286973174
11
258.5082293450
21
22.6286972664
0
LINE
8
90000_FRAME
62
7
6
CONTINUOUS
10
5.0000000000
20
5.0000000000
11
415.0000000000
21
5.0000000000
0
LINE
8
90000_FRAME
62
7
6
CONTINUOUS
10
275.0000000000
20
10.0000000000
11
410.0000000000
21
10.0000000000
0
LINE
8
90000_FRAME
62
7
6
CONTINUOUS
10
325.0000000000
20
16.0000000000
11
410.0000000000
21
16.0000000000
0
LINE
8
90000_FRAME
62
7
6
CONTINUOUS
10
298.2973434565
20
16.6961097434
11
299.1529318914
21
16.6961097434
0
LINE
8
90000_FRAME
62
7
6
CONTINUOUS
10
311.4876651625
20
16.7436424342
11
309.9666190559
21
16.7436424342
0
LINE
8
90000_FRAME
62
7
6
CONTINUOUS
10
301.8622952689
20
16.7436424342
11
300.4838472348
21
16.7436424342
0
LINE
8
90000_FRAME
62
7
6
CONTINUOUS
10
289.1235341257
20
16.7436424342
11
290.5495148507
21
16.7436424342
0
LINE
8
90000_FRAME
62
7
6
CONTINUOUS
10
291.6427667399
20
16.7436424342
11
295.2077185523
21
16.7436424342
0
LINE
8
90000_FRAME
62
7
6
CONTINUOUS
10
296.0157742965
20
16.7436424342
11
296.9664281131
21
16.7436424342
0
LINE
8
90000_FRAME
62
7
6
CONTINUOUS
10
302.9555471581
20
16.7436424342
11
306.5204989705
21
16.7436424342
0
LINE
8
90000_FRAME
62
7
6
CONTINUOUS
10
307.3047883693
20
16.7436424342
11
308.2554421859
21
16.7436424342
0
LINE
8
91000_TIP
62
7
6
CENTER
10
247.2287190772
20
17.6286973685
11
270.8307083413
21
17.6286973685
0
LINE
8
90000_FRAME
62
7
6
CONTINUOUS
10
306.5204989705
20
17.6467635600
11
304.3339951922
21
17.6467635600
0
LINE
8
90000_FRAME
62
7
6
CONTINUOUS
10
295.2077185523
20
17.6467635600
11
293.0212147740
21
17.6467635600
0
LINE
8
40000_ISO
62
7
6
CONTINUOUS
10
31.3362669445
20
267.3671620205
11
31.4728562820
21
266.9260831188
0
LINE
8
40000_ISO
62
7
6
CONTINUOUS
10
42.8198561826
20
260.0766550781
11
43.0099890868
21
259.3636832428
0
LINE
8
90000_FRAME
62
7
6
CONTINUOUS
10
306.1877701347
20
18.7637817946
11
304.3339951922
21
18.7637817946
0
LINE
8
90000_FRAME
62
7
6
CONTINUOUS
10
294.8749897165
20
18.7637817946
11
293.0212147740
21
18.7637817946
0
LINE
8
90000_FRAME
62
7
6
CONTINUOUS
10
306.1877701347
20
19.5480711933
11
304.3339951922
21
19.5480711933
0
LINE
8
90000_FRAME
62
7
6
CONTINUOUS
10
294.8749897165
20
19.5480711933
11
293.0212147740
21
19.5480711933
0
LINE
8
90000_FRAME
62
7
6
CONTINUOUS
10
306.4729662797
20
20.6175567371
11
304.3339951922
21
20.6175567371
0
LINE
8
90000_FRAME
62
7
6
CONTINUOUS
10
295.1601858615
20
20.6175567371
11
293.0212147740
21
20.6175567371
0
LINE
8
90000_FRAME
62
7
6
CONTINUOUS
10
311.4876651625
20
21.4969115175
11
310.5370113459
21
21.4969115175
0
LINE
8
90000_FRAME
62
7
6
CONTINUOUS
10
308.8496008213
20
21.4969115175
11
307.3047883693
21
21.4969115175
0
LINE
8
90000_FRAME
62
7
6
CONTINUOUS
10
306.4729662797
20
21.4969115175
11
302.9555471581
21
21.4969115175
0
LINE
8
90000_FRAME
62
7
6
CONTINUOUS
10
301.8622952689
20
21.4969115175
11
300.1511183989
21
21.4969115175
0
LINE
8
90000_FRAME
62
7
6
CONTINUOUS
10
297.7269511665
20
21.4969115175
11
296.0157742965
21
21.4969115175
0
LINE
8
90000_FRAME
62
7
6
CONTINUOUS
10
295.1601858615
20
21.4969115175
11
291.6427667399
21
21.4969115175
0
LINE
8
90000_FRAME
62
7
6
CONTINUOUS
10
289.1235341257
20
21.4969115175
11
290.5495148507
21
21.4969115175
0
LINE
8
90000_FRAME
62
7
6
CONTINUOUS
10
275.0000000000
20
28.0000000000
11
410.0000000000
21
28.0000000000
0
LINE
8
91000_TIP
62
7
6
CONTINUOUS
10
248.5082295492
20
15.1286974196
11
258.5082293450
21
12.6286974706
0
LINE
8
40000_ISO
62
7
6
CONTINUOUS
10
374.0230280942
20
69.1590848884
11
374.4733027960
21
69.2613279913
0
LINE
8
40000_ISO
62
7
6
CONTINUOUS
10
381.6661289147
20
74.9416747456
11
381.2158542129
21
74.8394316427
0
LINE
8
40000_ISO
62
7
6
CONTINUOUS
10
374.7219585256
20
71.1768436289
11
374.5173105512
21
71.1565734948
0
LINE
8
40000_ISO
62
7
6
CONTINUOUS
10
380.9671984834
20
72.9239160051
11
381.1718464578
21
72.9441861392
0
LINE
8
40000_ISO
62
7
6
CONTINUOUS
10
377.6342228225
20
64.9161270762
11
378.3785874241
21
64.9826222441
0
LINE
8
40000_ISO
62
7
6
CONTINUOUS
10
31.4728562820
20
266.9260831188
11
31.6946653303
21
266.5749659665
0
LINE
8
40000_ISO
62
7
6
CONTINUOUS
10
43.0099890868
20
259.3636832428
11
43.5624767401
21
258.2844208055
0
LINE
8
40000_ISO
62
7
6
CONTINUOUS
10
373.6080525524
20
69.1756260023
11
374.0230280942
21
69.1590848884
0
LINE
8
40000_ISO
62
7
6
CONTINUOUS
10
159.7270602819
20
191.9785752242
11
159.9171931861
21
192.4720054593
0
LINE
8
40000_ISO
62
7
6
CONTINUOUS
10
159.3322297173
20
191.6136849321
11
159.7270602819
21
191.9785752242
0
LINE
8
40000_ISO
62
7
6
CONTINUOUS
10
154.7553089329
20
193.4200730373
11
156.3070574564
21
194.3159701172
0
LINE
8
40000_ISO
62
7
6
CONTINUOUS
10
157.5837478335
20
191.7871100192
11
159.1354963570
21
192.6830070991
0
LINE
8
40000_ISO
62
7
6
CONTINUOUS
10
159.1745726286
20
191.5372561454
11
159.3322297173
21
191.6136849321
0
LINE
8
40000_ISO
62
7
6
CONTINUOUS
10
382.0811044565
20
74.9251336317
11
381.6661289147
21
74.9416747456
0
LINE
8
40000_ISO
62
7
6
CONTINUOUS
10
43.5624767401
20
258.2844208055
11
44.3068413418
21
257.3584268759
0
LINE
8
40000_ISO
62
7
6
CONTINUOUS
10
45.7566545167
20
258.3811321272
11
45.8585898652
21
258.2543239558
0
LINE
8
40000_ISO
62
7
6
CONTINUOUS
10
152.4218635804
20
196.7993381275
11
152.6119964846
21
196.0863662922
0
LINE
8
40000_ISO
62
7
6
CONTINUOUS
10
152.6119964846
20
196.0863662922
11
153.1644841379
21
195.0071038549
0
LINE
8
40000_ISO
62
7
6
CONTINUOUS
10
268.0322154247
20
128.1934440269
11
268.7765800264
21
128.2599391947
0
LINE
8
40000_ISO
62
7
6
CONTINUOUS
10
374.5173105512
20
71.1565734948
11
374.3415829463
21
71.2108178782
0
LINE
8
40000_ISO
62
7
6
CONTINUOUS
10
381.1718464578
20
72.9441861392
11
381.3475740627
21
72.8899417558
0
LINE
8
40000_ISO
62
7
6
CONTINUOUS
10
373.2443450396
20
69.3103032012
11
373.6080525524
21
69.1756260023
0
LINE
8
40000_ISO
62
7
6
CONTINUOUS
10
376.7877626291
20
65.2324761179
11
377.6342228225
21
64.9161270762
0
LINE
8
40000_ISO
62
7
6
CONTINUOUS
10
378.3395111526
20
66.1283731978
11
379.0938770529
21
65.8464427167
0
LINE
8
40000_ISO
62
7
6
CONTINUOUS
10
44.3068413418
20
257.3584268759
11
45.1533015352
21
256.6973899879
0
LINE
8
40000_ISO
62
7
6
CONTINUOUS
10
45.8585898652
20
258.2543239558
11
46.7050500586
21
257.5932870679
0
LINE
8
40000_ISO
62
7
6
CONTINUOUS
10
31.6946653303
20
266.5749659665
11
31.9931916837
21
266.3272913327
0
LINE
8
40000_ISO
62
7
6
CONTINUOUS
10
153.1644841379
20
195.0071038549
11
153.9088487395
21
194.0811099252
0
LINE
8
40000_ISO
62
7
6
CONTINUOUS
10
155.3586619144
20
195.1038151766
11
155.4605972630
21
194.9770070052
0
LINE
8
40000_ISO
62
7
6
CONTINUOUS
10
382.4448119693
20
74.7904564328
11
382.0811044565
21
74.9251336317
0
LINE
8
40000_ISO
62
7
6
CONTINUOUS
10
267.1857552313
20
128.5097930685
11
268.0322154247
21
128.1934440269
0
LINE
8
40000_ISO
62
7
6
CONTINUOUS
10
31.2901463694
20
242.8146280507
11
372.5412997254
21
45.7976399192
0
LINE
8
40000_ISO
62
7
6
CONTINUOUS
10
31.2901463694
20
246.3255884444
11
372.5412997254
21
49.3086003129
0
LINE
8
40000_ISO
62
7
6
CONTINUOUS
10
33.6904194976
20
250.4830065327
11
374.9415728535
21
53.4660184012
0
LINE
8
40000_ISO
62
7
6
CONTINUOUS
10
153.9088487395
20
194.0811099252
11
154.7553089329
21
193.4200730373
0
LINE
8
40000_ISO
62
7
6
CONTINUOUS
10
268.7375037548
20
129.4056901485
11
269.4918696551
21
129.1237596673
0
LINE
8
40000_ISO
62
7
6
CONTINUOUS
10
39.4964307995
20
253.8350887115
11
380.7475841554
21
56.8181005800
0
LINE
8
40000_ISO
62
7
6
CONTINUOUS
10
40.3449554042
20
255.3047845967
11
381.5961087601
21
58.2877964653
0
LINE
8
40000_ISO
62
7
6
CONTINUOUS
10
45.1533015352
20
256.6973899879
11
47.9817404357
21
255.0644269698
0
LINE
8
40000_ISO
62
7
6
CONTINUOUS
10
154.7553089329
20
193.4200730373
11
157.5837478335
21
191.7871100192
0
LINE
8
40000_ISO
62
7
6
CONTINUOUS
10
264.3573163307
20
130.1427560866
11
267.1857552313
21
128.5097930685
0
LINE
8
40000_ISO
62
7
6
CONTINUOUS
10
373.9593237285
20
66.8654391360
11
376.7877626291
21
65.2324761179
0
LINE
8
40000_ISO
62
7
6
CONTINUOUS
10
46.7050500586
20
257.5932870679
11
49.5334889592
21
255.9603240498
0
LINE
8
40000_ISO
62
7
6
CONTINUOUS
10
156.3070574564
20
194.3159701172
11
159.1354963570
21
192.6830070991
0
LINE
8
40000_ISO
62
7
6
CONTINUOUS
10
265.9090648542
20
131.0386531666
11
268.7375037548
21
129.4056901485
0
LINE
8
40000_ISO
62
7
6
CONTINUOUS
10
375.5110722520
20
67.7613362159
11
378.3395111526
21
66.1283731978
0
LINE
8
40000_ISO
62
7
6
CONTINUOUS
10
31.9931918230
20
266.3272912523
11
373.2443451789
21
69.3103031208
0
LINE
8
40000_ISO
62
7
6
CONTINUOUS
10
31.2901463694
20
267.8812522566
11
372.5412997254
21
70.8642641251
0
LINE
8
40000_ISO
62
7
6
CONTINUOUS
10
374.0521677468
20
71.7837379503
11
374.9415728535
21
71.2702512891
0
LINE
8
40000_ISO
62
7
6
CONTINUOUS
10
155.4605972630
20
194.9770070052
11
156.3070574564
21
194.3159701172
0
LINE
8
40000_ISO
62
7
6
CONTINUOUS
10
157.5837478335
20
191.7871100192
11
158.4302080269
21
191.4707609775
0
LINE
8
40000_ISO
62
7
6
CONTINUOUS
10
159.1354963570
20
192.6830070991
11
159.8898622573
21
192.4010766180
0
LINE
8
40000_ISO
62
7
6
CONTINUOUS
10
31.2901463694
20
271.3922126503
11
372.5412997254
21
74.3752245188
0
LINE
8
40000_ISO
62
7
6
CONTINUOUS
10
31.9972502066
20
271.8004568041
11
373.2484035626
21
74.7834686726
0
LINE
8
40000_ISO
62
7
6
CONTINUOUS
10
380.7475732914
20
72.8304895274
11
381.5961087601
21
72.3405984289
0
LINE
8
40000_ISO
62
7
6
CONTINUOUS
10
39.4964307995
20
271.6393215995
11
380.7475841554
21
74.6223334680
0
LINE
8
40000_ISO
62
7
6
CONTINUOUS
10
41.1936584741
20
271.8074446447
11
382.4448118300
21
74.7904565132
0
LINE
8
40000_ISO
62
7
6
CONTINUOUS
10
263.5108561373
20
130.8037929746
11
264.3573163307
21
130.1427560866
0
LINE
8
40000_ISO
62
7
6
CONTINUOUS
10
265.0626046608
20
131.6996900545
11
265.9090648542
21
131.0386531666
0
LINE
8
40000_ISO
62
7
6
CONTINUOUS
10
262.7664915357
20
131.7297869043
11
263.5108561373
21
130.8037929746
0
LINE
8
90000_FRAME
62
7
6
CONTINUOUS
10
308.8496008213
20
21.4969115175
11
310.5370113459
21
18.5498846858
0
LINE
8
90000_FRAME
62
7
6
CONTINUOUS
10
309.9666190559
20
16.7436424342
11
308.2554421859
21
19.7857346475
0
LINE
8
90000_FRAME
62
7
6
CONTINUOUS
10
298.2973434565
20
16.6961097434
11
296.9664281131
21
19.7857346475
0
LINE
8
90000_FRAME
62
7
6
CONTINUOUS
10
297.7269511665
20
21.4969115175
11
298.9628011281
21
18.5974173767
0
LINE
8
91000_TIP
62
7
6
CONTINUOUS
10
248.5082295492
20
20.1286973174
11
248.5082295492
21
15.1286974196
0
LINE
8
40000_ISO
62
7
6
CONTINUOUS
10
264.3573163307
20
130.1427560866
11
265.9090648542
21
131.0386531666
0
LINE
8
40000_ISO
62
7
6
CONTINUOUS
10
267.1857552313
20
128.5097930685
11
268.7375037548
21
129.4056901485
0
LINE
8
40000_ISO
62
7
6
CONTINUOUS
10
268.7765800264
20
128.2599391947
11
268.9342371151
21
128.3363679814
0
LINE
8
40000_ISO
62
7
6
CONTINUOUS
10
47.9817404357
20
255.0644269698
11
48.8282006291
21
254.7480779282
0
LINE
8
40000_ISO
62
7
6
CONTINUOUS
10
49.5334889592
20
255.9603240498
11
50.2878548595
21
255.6783935686
0
LINE
8
40000_ISO
62
7
6
CONTINUOUS
10
373.1128635351
20
67.5264760239
11
373.9593237285
21
66.8654391360
0
LINE
8
40000_ISO
62
7
6
CONTINUOUS
10
374.6646120586
20
68.4223731039
11
375.5110722520
21
67.7613362159
0
LINE
8
40000_ISO
62
7
6
CONTINUOUS
10
377.6342228225
20
70.2869561498
11
377.0849563208
21
70.7159018011
0
LINE
8
40000_ISO
62
7
6
CONTINUOUS
10
372.9458186862
20
69.5579778350
11
373.2443450396
21
69.3103032012
0
LINE
8
40000_ISO
62
7
6
CONTINUOUS
10
264.9606693122
20
131.8264982259
11
265.0626046608
21
131.6996900545
0
LINE
8
40000_ISO
62
7
6
CONTINUOUS
10
262.2140038824
20
132.8090493415
11
262.7664915357
21
131.7297869043
0
LINE
8
91000_TIP
62
7
6
CONTINUOUS
10
258.5082293450
20
22.6286972664
11
258.5082293450
21
12.6286974706
0
LINE
8
91000_TIP
62
7
6
CENTER
10
265.0082292122
20
11.9072161621
11
265.0082292122
21
23.1906021621
0
LINE
8
40000_ISO
62
7
6
CONTINUOUS
10
268.9342371151
20
128.3363679814
11
269.3290676796
21
128.7012582735
0
LINE
8
40000_ISO
62
7
6
CONTINUOUS
10
158.4302080269
20
191.4707609775
11
159.1745726286
21
191.5372561454
0
LINE
8
40000_ISO
62
7
6
CONTINUOUS
10
41.1936586134
20
271.8074445643
11
40.8299511006
21
271.9421217632
0
LINE
8
40000_ISO
62
7
6
CONTINUOUS
10
382.7433383227
20
74.5427817990
11
382.4448119693
21
74.7904564328
0
LINE
8
40000_ISO
62
7
6
CONTINUOUS
10
374.3415829463
20
71.2108178782
11
374.2067289901
21
71.3358929696
0
LINE
8
40000_ISO
62
7
6
CONTINUOUS
10
262.0238709782
20
133.5220211768
11
262.2140038824
21
132.8090493415
0
LINE
8
90000_FRAME
62
7
6
CONTINUOUS
10
275.0000000000
20
10.0000000000
11
275.0000000000
21
28.0000000000
0
LINE
8
90000_FRAME
62
7
6
CONTINUOUS
10
284.7029938783
20
16.8387078159
11
284.7029938783
21
17.7893616325
0
LINE
8
40000_ISO
62
7
6
CONTINUOUS
10
269.3290676796
20
128.7012582735
11
269.5192005839
21
129.1946885086
0
LINE
8
40000_ISO
62
7
6
CONTINUOUS
10
381.3475740627
20
72.8899417558
11
381.4824280188
21
72.7648666644
0
LINE
8
90000_FRAME
62
7
6
CONTINUOUS
10
288.0302822366
20
20.4987250100
11
288.0302822366
21
21.4493788266
0
LINE
8
90000_FRAME
62
7
6
CONTINUOUS
10
289.1235341257
20
21.4969115175
11
289.1235341257
21
16.7436424342
0
LINE
8
90000_FRAME
62
7
6
CONTINUOUS
10
290.5495148507
20
21.4969115175
11
290.5495148507
21
16.7436424342
0
LINE
8
90000_FRAME
62
7
6
CONTINUOUS
10
291.6427667399
20
21.4969115175
11
291.6427667399
21
16.7436424342
0
LINE
8
90000_FRAME
62
7
6
CONTINUOUS
10
293.0212147740
20
20.6175567371
11
293.0212147740
21
19.5480711933
0
LINE
8
90000_FRAME
62
7
6
CONTINUOUS
10
293.0212147740
20
18.7637817946
11
293.0212147740
21
17.6467635600
0
LINE
8
90000_FRAME
62
7
6
CONTINUOUS
10
294.8749897165
20
19.5480711933
11
294.8749897165
21
18.7637817946
0
LINE
8
90000_FRAME
62
7
6
CONTINUOUS
10
295.1601858615
20
21.4969115175
11
295.1601858615
21
20.6175567371
0
LINE
8
90000_FRAME
62
7
6
CONTINUOUS
10
295.2077185523
20
17.6467635600
11
295.2077185523
21
16.7436424342
0
LINE
8
90000_FRAME
62
7
6
CONTINUOUS
10
296.0157742965
20
16.7436424342
11
296.0157742965
21
21.4969115175
0
LINE
8
90000_FRAME
62
7
6
CONTINUOUS
10
296.9664281131
20
16.7436424342
11
296.9664281131
21
19.7857346475
0
LINE
8
40000_ISO
62
7
6
CONTINUOUS
10
372.3684989335
20
68.4524699536
11
373.1128635351
21
67.5264760239
0
LINE
8
40000_ISO
62
7
6
CONTINUOUS
10
374.0647815502
20
69.1685657739
11
374.6646120586
21
68.4223731039
0
LINE
8
40000_ISO
62
7
6
CONTINUOUS
10
378.3785874241
20
69.3609622201
11
377.6342228225
21
70.2869561498
0
LINE
8
90000_FRAME
62
7
6
CONTINUOUS
10
300.4838472348
20
19.8332673383
11
300.4838472348
21
16.7436424342
0
LINE
8
90000_FRAME
62
7
6
CONTINUOUS
10
301.8622952689
20
21.4969115175
11
301.8622952689
21
16.7436424342
0
LINE
8
90000_FRAME
62
7
6
CONTINUOUS
10
302.9555471581
20
21.4969115175
11
302.9555471581
21
16.7436424342
0
LINE
8
90000_FRAME
62
7
6
CONTINUOUS
10
304.3339951922
20
20.6175567371
11
304.3339951922
21
19.5480711933
0
LINE
8
90000_FRAME
62
7
6
CONTINUOUS
10
304.3339951922
20
18.7637817946
11
304.3339951922
21
17.6467635600
0
LINE
8
90000_FRAME
62
7
6
CONTINUOUS
10
306.1877701347
20
19.5480711933
11
306.1877701347
21
18.7637817946
0
LINE
8
90000_FRAME
62
7
6
CONTINUOUS
10
306.4729662797
20
21.4969115175
11
306.4729662797
21
20.6175567371
0
LINE
8
90000_FRAME
62
7
6
CONTINUOUS
10
306.5204989705
20
17.6467635600
11
306.5204989705
21
16.7436424342
0
LINE
8
90000_FRAME
62
7
6
CONTINUOUS
10
307.3047883693
20
16.7436424342
11
307.3047883693
21
21.4969115175
0
LINE
8
90000_FRAME
62
7
6
CONTINUOUS
10
308.2554421859
20
16.7436424342
11
308.2554421859
21
19.7857346475
0
LINE
8
90000_FRAME
62
7
6
CONTINUOUS
10
310.5370113459
20
21.4969115175
11
310.5370113459
21
18.5498846858
0
LINE
8
90000_FRAME
62
7
6
CONTINUOUS
10
311.4876651625
20
21.4969115175
11
311.4876651625
21
16.7436424342
0
LINE
8
90000_FRAME
62
7
6
CONTINUOUS
10
312.2957209067
20
16.8387078159
11
312.2957209067
21
17.7893616325
0
LINE
8
40000_ISO
62
7
6
CONTINUOUS
10
372.7240096380
20
69.9090949873
11
372.9458186862
21
69.5579778350
0
LINE
8
90000_FRAME
62
7
6
CONTINUOUS
10
315.6230092650
20
20.4987250100
11
315.6230092650
21
21.4493788266
0
LINE
8
90000_FRAME
62
7
6
CONTINUOUS
10
325.0000000000
20
10.0000000000
11
325.0000000000
21
28.0000000000
0
LINE
8
40000_ISO
62
7
6
CONTINUOUS
10
40.8299511006
20
271.9421217632
11
40.4149755588
21
271.9586628771
0
LINE
8
40000_ISO
62
7
6
CONTINUOUS
10
382.9651473710
20
74.1916646467
11
382.7433383227
21
74.5427817990
0
LINE
8
40000_ISO
62
7
6
CONTINUOUS
10
371.8160112802
20
69.5317323909
11
372.3684989335
21
68.4524699536
0
LINE
8
40000_ISO
62
7
6
CONTINUOUS
10
378.9310750774
20
68.2816997828
11
378.3785874241
21
69.3609622201
0
LINE
8
40000_ISO
62
7
6
CONTINUOUS
10
374.2067289901
20
71.3358929696
11
374.1219610236
21
71.5232622526
0
LINE
8
90000_FRAME
62
7
6
CONTINUOUS
10
300.1511183989
20
21.4969115175
11
298.9628011281
21
18.5974173767
0
LINE
8
90000_FRAME
62
7
6
CONTINUOUS
10
300.4838472348
20
19.8332673383
11
299.1529318914
21
16.6961097434
0
LINE
8
40000_ISO
62
7
6
CONTINUOUS
10
48.8282006291
20
254.7480779282
11
49.5725652308
21
254.8145730960
0
LINE
8
40000_ISO
62
7
6
CONTINUOUS
10
381.4824280188
20
72.7648666644
11
381.5671959853
21
72.5774973814
0
LINE
8
40000_ISO
62
7
6
CONTINUOUS
10
372.5874203005
20
70.3501738890
11
372.7240096380
21
69.9090949873
0
LINE
8
90000_FRAME
62
7
6
CONTINUOUS
10
284.8948224676
20
20.9161059766
11
285.1688882922
21
21.1901790542
0
LINE
8
40000_ISO
62
7
6
CONTINUOUS
10
373.2484035626
20
74.7834686726
11
372.5412997254
21
74.3752245188
0
LINE
8
40000_ISO
62
7
6
CONTINUOUS
10
381.2158542129
20
74.8394316427
11
380.7475841554
21
74.6223334680
0
LINE
8
40000_ISO
62
7
6
CONTINUOUS
10
374.4733027960
20
69.2613279913
11
374.9415728535
21
69.4784261660
0
LINE
8
40000_ISO
62
7
6
CONTINUOUS
10
374.9415728535
20
71.2702512891
11
374.7219585256
21
71.1768436289
0
LINE
8
40000_ISO
62
7
6
CONTINUOUS
10
380.7475841554
20
72.8305083449
11
380.9671984834
21
72.9239160051
0
LINE
8
90000_FRAME
62
7
6
CONTINUOUS
10
415.0000000000
20
292.0000000000
11
5.0000000000
21
292.0000000000
0
LINE
8
90000_FRAME
62
7
6
CONTINUOUS
10
420.0000000000
20
297.0000000000
11
0.0000000000
21
297.0000000000
0
LINE
8
40000_ISO
62
7
6
CONTINUOUS
10
383.1017367085
20
73.7505857450
11
382.9651473710
21
74.1916646467
0
LINE
8
40000_ISO
62
7
6
CONTINUOUS
10
374.1219610236
20
71.5232622526
11
373.2484035626
21
74.7834686726
0
LINE
8
40000_ISO
62
7
6
CONTINUOUS
10
371.6258783759
20
70.2447042262
11
371.8160112802
21
69.5317323909
0
LINE
8
40000_ISO
62
7
6
CONTINUOUS
10
379.2250476175
20
67.1793438161
11
378.9310750774
21
68.2816997828
0
LINE
8
40000_ISO
62
7
6
CONTINUOUS
10
372.5412997254
20
70.8642641251
11
372.5874203005
21
70.3501738890
0
LINE
8
90000_FRAME
62
7
6
CONTINUOUS
10
367.5000000000
20
10.0000000000
11
367.5000000000
21
16.0000000000
0
LINE
8
40000_ISO
62
7
6
CONTINUOUS
10
372.5412997254
20
74.3752245188
11
372.5412997254
21
70.8642641251
0
LINE
8
40000_ISO
62
7
6
CONTINUOUS
10
372.5412997254
20
49.3086003129
11
372.5412997254
21
45.7976399192
0
LINE
8
40000_ISO
62
7
6
CONTINUOUS
10
380.7475841554
20
74.6223334680
11
374.9415728535
21
71.2702512891
0
LINE
8
40000_ISO
62
7
6
CONTINUOUS
10
374.9415728535
20
69.4784261660
11
380.7475841554
21
72.8305083449
0
LINE
8
40000_ISO
62
7
6
CONTINUOUS
10
373.9593237285
20
66.8654391360
11
375.5110722520
21
67.7613362159
0
LINE
8
40000_ISO
62
7
6
CONTINUOUS
10
376.7877626291
20
65.2324761179
11
378.3395111526
21
66.1283731978
0
LINE
8
40000_ISO
62
7
6
CONTINUOUS
10
378.3785874241
20
64.9826222441
11
378.5362445129
21
65.0590510308
0
LINE
8
40000_ISO
62
7
6
CONTINUOUS
10
40.4149755588
20
271.9586628771
11
39.9647008570
21
271.8564197742
0
LINE
8
40000_ISO
62
7
6
CONTINUOUS
10
381.5671959853
20
72.5774973814
11
381.5961087601
21
72.3405984289
0
LINE
8
40000_ISO
62
7
6
CONTINUOUS
10
383.1478572836
20
73.2364955089
11
383.1017367085
21
73.7505857450
0
LINE
8
40000_ISO
62
7
6
CONTINUOUS
10
379.2250476175
20
66.1868547185
11
379.2250476175
21
67.1793438161
0
LINE
8
40000_ISO
62
7
6
CONTINUOUS
10
381.5961087601
20
72.3405984289
11
381.5961087601
21
58.2877964653
0
LINE
8
40000_ISO
62
7
6
CONTINUOUS
10
383.1478572836
20
59.1836935452
11
383.1478572836
21
73.2364955089
0
LINE
8
40000_ISO
62
7
6
CONTINUOUS
10
372.5874203005
20
49.8759456840
11
372.5412997254
21
49.3086003129
0
LINE
8
40000_ISO
62
7
6
CONTINUOUS
10
378.5362445129
20
65.0590510308
11
378.9310750774
21
65.4239413229
0
LINE
8
40000_ISO
62
7
6
CONTINUOUS
10
380.9671984834
20
56.9782801888
11
380.7475841554
21
56.8181005800
0
LINE
8
40000_ISO
62
7
6
CONTINUOUS
10
374.7219585256
20
51.5140136693
11
374.9415728535
21
51.6741932780
0
LINE
8
40000_ISO
62
7
6
CONTINUOUS
10
374.9415728535
20
53.4660184012
11
374.4733027960
21
53.1424081159
0
LINE
8
40000_ISO
62
7
6
CONTINUOUS
10
380.7475841554
20
55.0262754569
11
381.2158542129
21
55.3498857421
0
LINE
8
40000_ISO
62
7
6
CONTINUOUS
10
380.7475841554
20
56.8181005800
11
374.9415728535
21
53.4660184012
0
LINE
8
40000_ISO
62
7
6
CONTINUOUS
10
374.9415728535
20
51.6741932780
11
380.7475841554
21
55.0262754569
0
LINE
8
40000_ISO
62
7
6
CONTINUOUS
10
372.5412997254
20
45.7976399192
11
373.2484035626
21
46.2058840731
0
LINE
8
40000_ISO
62
7
6
CONTINUOUS
10
383.1017367085
20
58.6163481740
11
383.1478572836
21
59.1836935452
0
LINE
8
40000_ISO
62
7
6
CONTINUOUS
10
381.5961087601
20
58.2877964653
11
381.5671959853
21
58.0175121155
0
LINE
8
40000_ISO
62
7
6
CONTINUOUS
10
373.2484035626
20
46.2058840731
11
374.1219610236
21
50.4747817426
0
LINE
8
40000_ISO
62
7
6
CONTINUOUS
10
372.7240096380
20
50.4747434258
11
372.5874203005
21
49.8759456840
0
LINE
8
40000_ISO
62
7
6
CONTINUOUS
10
382.9651473710
20
58.0175504323
11
383.1017367085
21
58.6163481740
0
LINE
8
40000_ISO
62
7
6
CONTINUOUS
10
374.1219610236
20
50.4747817426
11
374.2067289901
21
50.7600320579
0
LINE
8
40000_ISO
62
7
6
CONTINUOUS
10
381.5671959853
20
58.0175121155
11
381.4824280188
21
57.7322618002
0
LINE
8
40000_ISO
62
7
6
CONTINUOUS
10
372.9458186862
20
51.0819820767
11
372.7240096380
21
50.4747434258
0
LINE
8
40000_ISO
62
7
6
CONTINUOUS
10
378.9310750774
20
65.4239413229
11
379.2250476175
21
66.1868547185
0
LINE
8
40000_ISO
62
7
6
CONTINUOUS
10
374.2067289901
20
50.7600320579
11
374.3415753515
21
51.0408090012
0
LINE
8
40000_ISO
62
7
6
CONTINUOUS
10
373.2443234479
20
51.6743257960
11
372.9458186862
21
51.0819820767
0
LINE
8
40000_ISO
62
7
6
CONTINUOUS
10
373.6080525524
20
52.2290111467
11
373.2443234479
21
51.6743257960
0
LINE
8
40000_ISO
62
7
6
CONTINUOUS
10
374.3415753515
20
51.0408090012
11
374.5173105512
21
51.2979780877
0
LINE
8
40000_ISO
62
7
6
CONTINUOUS
10
374.0230280942
20
52.7247218819
11
373.6080525524
21
52.2290111467
0
LINE
8
40000_ISO
62
7
6
CONTINUOUS
10
381.6661289147
20
55.7675719762
11
382.0811044565
21
56.2632827114
0
LINE
8
40000_ISO
62
7
6
CONTINUOUS
10
374.5173105512
20
51.2979780877
11
374.7219585256
21
51.5140136693
0
LINE
8
40000_ISO
62
7
6
CONTINUOUS
10
381.1718464578
20
57.1943157703
11
380.9671984834
21
56.9782801888
0
LINE
8
40000_ISO
62
7
6
CONTINUOUS
10
374.4733027960
20
53.1424081159
11
374.0230280942
21
52.7247218819
0
LINE
8
40000_ISO
62
7
6
CONTINUOUS
10
381.2158542129
20
55.3498857421
11
381.6661289147
21
55.7675719762
0
LINE
8
90000_FRAME
62
7
6
CONTINUOUS
10
410.0000000000
20
10.0000000000
11
410.0000000000
21
28.0000000000
0
LINE
8
90000_FRAME
62
7
6
CONTINUOUS
10
415.0000000000
20
5.0000000000
11
415.0000000000
21
292.0000000000
0
LINE
8
90000_FRAME
62
7
6
CONTINUOUS
10
420.0000000000
20
0.0000000000
11
420.0000000000
21
297.0000000000
0
LINE
8
40000_ISO
62
7
6
CONTINUOUS
10
382.7433383227
20
57.4103117814
11
382.9651473710
21
58.0175504323
0
LINE
8
40000_ISO
62
7
6
CONTINUOUS
10
381.4824280188
20
57.7322618002
11
381.3475816574
21
57.4514848569
0
LINE
8
40000_ISO
62
7
6
CONTINUOUS
10
382.4448335610
20
56.8179680621
11
382.7433383227
21
57.4103117814
0
LINE
8
40000_ISO
62
7
6
CONTINUOUS
10
382.0811044565
20
56.2632827114
11
382.4448335610
21
56.8179680621
0
LINE
8
40000_ISO
62
7
6
CONTINUOUS
10
381.3475816574
20
57.4514848569
11
381.1718464578
21
57.1943157703
0
ARC
8
90000_FRAME
62
7
6
CONTINUOUS
10
314.0003620317
20
18.7008009792
40
1.1116193606
50
277.7099956934
51
295.6884927746
0
ARC
8
90000_FRAME
62
7
6
CONTINUOUS
10
314.2846720145
20
17.9759752156
40
0.3401689265
50
305.5032212550
51
72.4652898523
0
ARC
8
90000_FRAME
62
7
6
CONTINUOUS
10
313.7186782063
20
21.3776821252
40
4.7567946411
50
252.5939200548
51
280.9816604256
0
ARC
8
90000_FRAME
62
7
6
CONTINUOUS
10
314.1735135694
20
18.7596683887
40
2.1007265953
50
282.4058358520
51
311.8644433928
0
ARC
8
90000_FRAME
62
7
6
CONTINUOUS
10
313.8999492223
20
20.3680101102
40
0.3029626476
50
154.4400348282
51
221.8201698801
0
ARC
8
90000_FRAME
62
7
6
CONTINUOUS
10
313.9791703737
20
20.2887889588
40
0.4103089737
50
102.8287828681
51
149.2259639003
0
ARC
8
90000_FRAME
62
7
6
CONTINUOUS
10
314.3961972093
20
18.5464536290
40
2.2018365570
50
84.0400061857
51
103.3427657871
0
ARC
8
90000_FRAME
62
7
6
CONTINUOUS
10
314.0552333846
20
16.1290897051
40
4.6423737365
50
70.2625858546
51
82.9524186380
0
ARC
8
90000_FRAME
62
7
6
CONTINUOUS
10
313.5412151824
20
20.8007125947
40
3.2587559909
50
247.5300206145
51
280.7579522143
0
ARC
8
90000_FRAME
62
7
6
CONTINUOUS
10
307.1562487104
20
2.5491926343
40
17.3316084133
50
65.3414674650
51
67.3997770736
0
ARC
8
90000_FRAME
62
7
6
CONTINUOUS
10
317.9521111158
20
28.3416189974
40
10.6291642039
50
242.8620101252
51
247.1042029186
0
ARC
8
90000_FRAME
62
7
6
CONTINUOUS
10
314.0972098893
20
20.8076875004
40
2.1662916292
50
227.3119280794
51
242.7040315235
0
ARC
8
90000_FRAME
62
7
6
CONTINUOUS
10
313.4931790796
20
20.1020098596
40
1.2385217340
50
194.7952194236
51
225.7176549047
0
ARC
8
90000_FRAME
62
7
6
CONTINUOUS
10
313.5553372138
20
20.1422298287
40
1.3090920729
50
164.1974860461
51
195.8025139539
0
ARC
8
90000_FRAME
62
7
6
CONTINUOUS
10
314.1123609345
20
19.2539626688
40
2.3669248153
50
86.2218022928
51
120.4272602309
0
ARC
8
90000_FRAME
62
7
6
CONTINUOUS
10
313.8435041519
20
12.5577948477
40
9.0679051661
50
78.6827049226
51
87.3147599624
0
ARC
8
90000_FRAME
62
7
6
CONTINUOUS
10
313.3874349735
20
20.2497375912
40
1.1197474440
50
142.8139179030
51
167.1522951417
0
ARC
8
90000_FRAME
62
7
6
CONTINUOUS
10
313.7327443151
20
19.9431558946
40
1.5805466845
50
121.2140948535
51
141.5254768286
0
ARC
8
90000_FRAME
62
7
6
CONTINUOUS
10
314.3099186807
20
20.7542132232
40
0.8661276052
50
222.7760387596
51
239.0362434679
0
ARC
8
90000_FRAME
62
7
6
CONTINUOUS
10
311.8032091024
20
13.4239410246
40
6.8587735763
50
59.9020272560
51
68.2036481279
0
ARC
8
90000_FRAME
62
7
6
CONTINUOUS
10
315.2117035963
20
22.3498275319
40
2.6987410171
50
240.0481997804
51
251.3779673737
0
ARC
8
90000_FRAME
62
7
6
CONTINUOUS
10
314.5462464295
20
18.1929289165
40
1.4334474881
50
315.8904553224
51
333.5229264373
0
ARC
8
90000_FRAME
62
7
6
CONTINUOUS
10
314.5508846732
20
18.1395217664
40
1.4062287119
50
335.3867972702
51
24.3915119402
0
ARC
8
90000_FRAME
62
7
6
CONTINUOUS
10
314.4786797697
20
18.0616650746
40
1.5047025148
50
25.9562916605
51
59.4834829668
0
ARC
8
90000_FRAME
62
7
6
CONTINUOUS
10
286.4076350033
20
18.7008009792
40
1.1116193606
50
277.7099956934
51
295.6884927746
0
ARC
8
90000_FRAME
62
7
6
CONTINUOUS
10
286.6919449860
20
17.9759752156
40
0.3401689265
50
305.5032212556
51
72.4652898515
0
ARC
8
90000_FRAME
62
7
6
CONTINUOUS
10
286.1259511779
20
21.3776821252
40
4.7567946411
50
252.5939200545
51
280.9816604253
0
ARC
8
90000_FRAME
62
7
6
CONTINUOUS
10
286.5807865410
20
18.7596683887
40
2.1007265953
50
282.4058358513
51
311.8644433923
0
ARC
8
90000_FRAME
62
7
6
CONTINUOUS
10
286.3072221939
20
20.3680101102
40
0.3029626476
50
154.4400348282
51
221.8201698801
0
ARC
8
90000_FRAME
62
7
6
CONTINUOUS
10
286.3864433453
20
20.2887889588
40
0.4103089737
50
102.8287828727
51
149.2259639027
0
ARC
8
90000_FRAME
62
7
6
CONTINUOUS
10
286.8034701809
20
18.5464536290
40
2.2018365570
50
84.0400061859
51
103.3427657872
0
ARC
8
90000_FRAME
62
7
6
CONTINUOUS
10
286.4625063562
20
16.1290897051
40
4.6423737365
50
70.2625858546
51
82.9524186379
0
ARC
8
90000_FRAME
62
7
6
CONTINUOUS
10
285.9484881540
20
20.8007125947
40
3.2587559909
50
247.5300206148
51
280.7579522145
0
ARC
8
90000_FRAME
62
7
6
CONTINUOUS
10
279.5635216820
20
2.5491926343
40
17.3316084133
50
65.3414674650
51
67.3997770736
0
ARC
8
90000_FRAME
62
7
6
CONTINUOUS
10
290.3593840874
20
28.3416189974
40
10.6291642039
50
242.8620101252
51
247.1042029185
0
ARC
8
90000_FRAME
62
7
6
CONTINUOUS
10
286.5044828608
20
20.8076875004
40
2.1662916292
50
227.3119280794
51
242.7040315235
0
ARC
8
90000_FRAME
62
7
6
CONTINUOUS
10
285.9004520512
20
20.1020098596
40
1.2385217340
50
194.7952194234
51
225.7176549042
0
ARC
8
90000_FRAME
62
7
6
CONTINUOUS
10
286.5196339060
20
19.2539626688
40
2.3669248153
50
86.2218022928
51
120.4272602309
0
ARC
8
90000_FRAME
62
7
6
CONTINUOUS
10
286.2507771235
20
12.5577948477
40
9.0679051661
50
78.6827049226
51
87.3147599624
0
ARC
8
90000_FRAME
62
7
6
CONTINUOUS
10
286.1400172867
20
19.9431558946
40
1.5805466846
50
121.2140948541
51
141.5254768290
0
ARC
8
90000_FRAME
62
7
6
CONTINUOUS
10
286.7171916523
20
20.7542132232
40
0.8661276052
50
222.7760387596
51
239.0362434679
0
ARC
8
90000_FRAME
62
7
6
CONTINUOUS
10
284.2104820740
20
13.4239410246
40
6.8587735763
50
59.9020272562
51
68.2036481282
0
ARC
8
90000_FRAME
62
7
6
CONTINUOUS
10
287.6189765678
20
22.3498275319
40
2.6987410171
50
240.0481997804
51
251.3779673734
0
ARC
8
90000_FRAME
62
7
6
CONTINUOUS
10
286.9535194010
20
18.1929289165
40
1.4334474881
50
315.8904553226
51
333.5229264375
0
ARC
8
90000_FRAME
62
7
6
CONTINUOUS
10
286.9581576447
20
18.1395217664
40
1.4062287119
50
335.3867972703
51
24.3915119403
0
ARC
8
90000_FRAME
62
7
6
CONTINUOUS
10
286.8859527412
20
18.0616650746
40
1.5047025147
50
25.9562916611
51
59.4834829676
0
ARC
8
90000_FRAME
62
7
6
CONTINUOUS
10
285.9626101853
20
20.1422298287
40
1.3090920729
50
164.1974860461
51
195.8025139539
0
ARC
8
90000_FRAME
62
7
6
CONTINUOUS
10
285.7947079451
20
20.2497375912
40
1.1197474440
50
142.8139179030
51
167.1522951417
0
CIRCLE
8
91000_TIP
62
7
6
CONTINUOUS
10
265.0082292122
20
17.6286973685
40
4.9999998979
0
CIRCLE
8
91000_TIP
62
7
6
CONTINUOUS
10
265.0082292122
20
17.6286973685
40
2.4999999489
0
ENDSEC
0
EOF
