0
SECTION
2
HEADER
9
$EXTMAX
10
841.0000000000
20
594.0000000000
9
$EXTMIN
10
0.0000000000
20
0.0000000000
9
$LIMMIN
10
0.0000000000
20
0.0000000000
9
$LIMMAX
10
841.0000000000
20
594.0000000000
9
$VIEWCTR
10
420.5000000000
20
297.0000000000
9
$VIEWSIZE
40
594.0000000000
9
$CLAYER
8
0
9
$LTSCALE
40
46.2550000000
9
$CELTYPE
6
BYLAYER
9
$DIMSCALE
40
1
9
$DIMASZ
40
3.5000000000
9
$DIMEXO
40
5.2562500000
9
$DIMDLI
40
31.9580000000
9
$DIMEXE
40
15.1380000000
9
$DIMCEN
40
7.5690000000
9
$DIMLFAC
40
1.0000000000
0
ENDSEC
0
SECTION
2
TABLES
0
TABLE
2
LTYPE
70
6
0
LTYPE
2
BYBLOCK
70
0
3

72
65
73
0
40
0.0
0
LTYPE
2
BYLAYER
70
0
3

72
65
73
0
40
0.0
0
LTYPE
2
CONTINUOUS
70
64
3
Solid line
72
65
73
0
40
0
0
LTYPE
2
CENTER
70
64
3
____ _ ____ _ ____ _ ____ _ ____ _ ____ _ ____
72
65
73
4
40
0.6
49
0.375
49
-0.075
49
0.075
49
-0.075
0
LTYPE
2
HIDDEN
70
64
3
- - - - - - - - - - - - - - - - - - - -
72
65
73
2
40
0.2
49
0.1
49
-0.1
0
LTYPE
2
PHANTOM
70
64
3
_____ _ _ _____ _ _ _____ _ _ _____
72
65
73
6
40
0.8
49
0.45
49
-0.05
49
0.1
49
-0.05
49
0.1
49
-0.05
0
LTYPE
2
DOT
70
64
3
. . . . . . . . . . . . . . . . . . . .
72
65
73
2
40
0.2
49
0.1
49
-0.1
0
LTYPE
2
DASHED
70
64
3
- - - - - - - - - - - - - - - - - - - -
72
65
73
2
40
0.2
49
0.1
49
-0.1
0
ENDTAB
0
TABLE
2
LAYER
70
36
0
LAYER
2
0
70
0
62
7
6
CONTINUOUS
0
LAYER
2
DEFAULT_1
70
0
62
7
6
CENTER
0
LAYER
2
DEFAULT_2
70
0
62
8
6
HIDDEN
0
LAYER
2
DEFAULT_3
70
0
62
7
6
PHANTOM
0
LAYER
2
10000_FRONT
70
0
62
7
6
CONTINUOUS
0
LAYER
2
10100_DIM_FRONT
70
0
62
7
6
CONTINUOUS
0
LAYER
2
10300_FRONT_GERMAN_ENGLISH
70
0
62
7
6
CONTINUOUS
0
LAYER
2
11000_LEFT
70
0
62
7
6
CONTINUOUS
0
LAYER
2
11100_DIM_LEFT
70
0
62
7
6
CONTINUOUS
0
LAYER
2
11300_LEFT_GERMAN_ENGLISH
70
0
62
7
6
CONTINUOUS
0
LAYER
2
12000_RIGHT
70
0
62
7
6
CONTINUOUS
0
LAYER
2
12100_DIM_RIGHT
70
0
62
7
6
CONTINUOUS
0
LAYER
2
12300_RIGHT_GERMAN_ENGLISH
70
0
62
7
6
CONTINUOUS
0
LAYER
2
13000_TOP
70
0
62
7
6
CONTINUOUS
0
LAYER
2
13100_DIM_TOP
70
0
62
7
6
CONTINUOUS
0
LAYER
2
13300_TOP_GERMAN_ENGLISH
70
0
62
7
6
CONTINUOUS
0
LAYER
2
14000_BOTTOM
70
0
62
7
6
CONTINUOUS
0
LAYER
2
14100_DIM_BOTTOM
70
0
62
7
6
CONTINUOUS
0
LAYER
2
14300_BOTTOM_GERMAN_ENGLISH
70
0
62
7
6
CONTINUOUS
0
LAYER
2
15000_BACK
70
0
62
7
6
CONTINUOUS
0
LAYER
2
15100_DIM_BACK
70
0
62
7
6
CONTINUOUS
0
LAYER
2
15300_BACK_GERMAN_ENGLISH
70
0
62
7
6
CONTINUOUS
0
LAYER
2
20000_FRONT_O
70
0
62
7
6
CONTINUOUS
0
LAYER
2
20100_DIM_FRONT_O
70
0
62
7
6
CONTINUOUS
0
LAYER
2
20300_FRONT_O_GERMAN_ENGLISH
70
0
62
7
6
CONTINUOUS
0
LAYER
2
40000_ISO
70
0
62
7
6
CONTINUOUS
0
LAYER
2
40300_ISO_GERMAN_ENGLISH
70
0
62
7
6
CONTINUOUS
0
LAYER
2
50000_WIRING
70
0
62
7
6
CONTINUOUS
0
LAYER
2
50300_WIRING_GERMAN_ENGLISH
70
0
62
7
6
CONTINUOUS
0
LAYER
2
90000_FRAME
70
0
62
7
6
CONTINUOUS
0
LAYER
2
91000_TIP
70
0
62
7
6
CONTINUOUS
0
ENDTAB
0
ENDSEC
0
SECTION
2
BLOCKS
0
ENDSEC
0
SECTION
2
ENTITIES
0
TEXT
8
90000_FRAME
62
7
6
CONTINUOUS
10
746.6600000000
20
11.9000000000
40
2.2000000000
1
Format / Size: DIN A1
72
5
11
779.7647619048
21
11.9000000000
0
TEXT
8
90000_FRAME
62
7
6
CONTINUOUS
10
789.1600000000
20
11.9000000000
40
2.2000000000
1
Massstab / Scale: 1:1
72
5
11
820.0647619048
21
11.9000000000
0
TEXT
8
90000_FRAME
62
7
6
CONTINUOUS
10
771.6250000000
20
20.2500000000
40
3.5000000000
1
6ES57108MA31_001
72
5
11
813.1250000000
21
20.2500000000
0
TEXT
8
0
62
7
6
CONTINUOUS
10
11.2756234532
20
15.1898617812
40
3.5000000000
1
Alle Bemassungswerte sind in Millimeter (mm) angegeben.
72
5
11
145.8589567865
21
15.1898617812
0
TEXT
8
0
62
7
6
CONTINUOUS
10
11.2756234532
20
9.9398617812
40
3.5000000000
1
All dimensions are in millimeters (mm).
72
5
11
104.4422901199
21
9.9398617812
0
LINE
8
90000_FRAME
62
7
6
CONTINUOUS
10
0.0000000000
20
594.0000000000
11
0.0000000000
21
0.0000000000
0
LINE
8
90000_FRAME
62
7
6
CONTINUOUS
10
5.0000000000
20
589.0000000000
11
5.0000000000
21
5.0000000000
0
LINE
8
40000_ISO
62
7
6
CONTINUOUS
10
117.3051742559
20
478.2422255613
11
117.0066694943
21
477.6498818420
0
LINE
8
40000_ISO
62
7
6
CONTINUOUS
10
117.6689033604
20
478.7969109120
11
117.3051742559
21
478.2422255613
0
LINE
8
40000_ISO
62
7
6
CONTINUOUS
10
125.4084324654
20
484.0193846222
11
125.2326972658
21
483.7622155357
0
LINE
8
40000_ISO
62
7
6
CONTINUOUS
10
118.0838789022
20
479.2926216472
11
117.6689033604
21
478.7969109120
0
LINE
8
40000_ISO
62
7
6
CONTINUOUS
10
116.7848604460
20
477.0426431911
11
116.6482711085
21
476.4438454493
0
LINE
8
40000_ISO
62
7
6
CONTINUOUS
10
125.6280467934
20
484.5854118808
11
125.5432788268
21
484.3001615655
0
LINE
8
40000_ISO
62
7
6
CONTINUOUS
10
117.0066694943
20
477.6498818420
11
116.7848604460
21
477.0426431911
0
LINE
8
40000_ISO
62
7
6
CONTINUOUS
10
125.5432788268
20
484.3001615655
11
125.4084324654
21
484.0193846222
0
LINE
8
40000_ISO
62
7
6
CONTINUOUS
10
142.2264933624
20
480.9922784138
11
142.4341582914
21
481.3703179474
0
LINE
8
40000_ISO
62
7
6
CONTINUOUS
10
125.2326972658
20
483.7622155357
11
125.0280492914
21
483.5461799541
0
LINE
8
40000_ISO
62
7
6
CONTINUOUS
10
118.5341536040
20
479.7103078812
11
118.0838789022
21
479.2926216472
0
LINE
8
40000_ISO
62
7
6
CONTINUOUS
10
125.0280492914
20
483.5461799541
11
124.8084349635
21
483.3860003454
0
LINE
8
40000_ISO
62
7
6
CONTINUOUS
10
119.0024236615
20
480.0339181665
11
118.5341536040
21
479.7103078812
0
LINE
8
40000_ISO
62
7
6
CONTINUOUS
10
117.3092543706
20
501.3513684379
11
116.6021505334
21
500.9431242841
0
LINE
8
40000_ISO
62
7
6
CONTINUOUS
10
124.8084349635
20
501.1902332333
11
121.1984250647
21
499.1060054877
0
LINE
8
91000_TIP
62
7
6
CONTINUOUS
10
669.7690054113
20
20.5214774899
11
679.7690052071
21
23.0214774388
0
LINE
8
40000_ISO
62
7
6
CONTINUOUS
10
116.6021505334
20
500.9431242841
11
116.6021505334
21
497.4321638904
0
LINE
8
40000_ISO
62
7
6
CONTINUOUS
10
116.6021505334
20
475.8765000782
11
116.6021505334
21
472.3655396845
0
LINE
8
40000_ISO
62
7
6
CONTINUOUS
10
125.6569595681
20
491.0564190176
11
125.6569595681
21
484.8556962306
0
LINE
8
40000_ISO
62
7
6
CONTINUOUS
10
116.6482711085
20
476.4438454493
11
116.6021505334
21
475.8765000782
0
LINE
8
40000_ISO
62
7
6
CONTINUOUS
10
125.6569595681
20
484.8556962306
11
125.6280467934
21
484.5854118808
0
LINE
8
40000_ISO
62
7
6
CONTINUOUS
10
159.9042364911
20
470.7862595507
11
160.1119014201
21
471.1642990844
0
LINE
8
40000_ISO
62
7
6
CONTINUOUS
10
177.5819796198
20
460.5802406877
11
177.7896445488
21
460.9582802214
0
LINE
8
40000_ISO
62
7
6
CONTINUOUS
10
142.0902781701
20
480.8963303258
11
142.2264933624
21
480.9922784138
0
LINE
8
40000_ISO
62
7
6
CONTINUOUS
10
159.7680212988
20
470.6903114627
11
159.9042364911
21
470.7862595507
0
LINE
8
40000_ISO
62
7
6
CONTINUOUS
10
124.8084349635
20
483.3860003454
11
119.0024236615
21
480.0339181665
0
LINE
8
40000_ISO
62
7
6
CONTINUOUS
10
131.7381032044
20
486.2483204390
11
132.8615517453
21
486.8969398847
0
LINE
8
40000_ISO
62
7
6
CONTINUOUS
10
140.7891076863
20
481.0228387811
11
141.9125562271
21
481.6714582269
0
LINE
8
40000_ISO
62
7
6
CONTINUOUS
10
149.4158463331
20
476.0423015760
11
150.5392948739
21
476.6909210217
0
LINE
8
40000_ISO
62
7
6
CONTINUOUS
10
125.2767050210
20
501.4073314080
11
124.8084349635
21
501.1902332333
0
LINE
8
90000_FRAME
62
7
6
CONTINUOUS
10
0.0000000000
20
0.0000000000
11
841.0000000000
21
0.0000000000
0
LINE
8
90000_FRAME
62
7
6
CONTINUOUS
10
5.0000000000
20
5.0000000000
11
836.0000000000
21
5.0000000000
0
LINE
8
40000_ISO
62
7
6
CONTINUOUS
10
116.6021505334
20
497.4321638904
11
116.6482711085
21
496.9180736543
0
LINE
8
40000_ISO
62
7
6
CONTINUOUS
10
195.2597227485
20
450.3742218247
11
195.4673876774
21
450.7522613583
0
LINE
8
40000_ISO
62
7
6
CONTINUOUS
10
177.4457644274
20
460.4842925997
11
177.5819796198
21
460.5802406877
0
LINE
8
40000_ISO
62
7
6
CONTINUOUS
10
158.4668508149
20
470.8168199181
11
159.5902993558
21
471.4654393639
0
LINE
8
40000_ISO
62
7
6
CONTINUOUS
10
167.0935894617
20
465.8362827130
11
168.2170380026
21
466.4849021587
0
LINE
8
40000_ISO
62
7
6
CONTINUOUS
10
176.1445939436
20
460.6108010551
11
177.2680424845
21
461.2594205009
0
LINE
8
90000_FRAME
62
7
6
CONTINUOUS
10
696.0000000000
20
10.0000000000
11
831.0000000000
21
10.0000000000
0
LINE
8
90000_FRAME
62
7
6
CONTINUOUS
10
746.0000000000
20
16.0000000000
11
831.0000000000
21
16.0000000000
0
LINE
8
90000_FRAME
62
7
6
CONTINUOUS
10
719.5642263739
20
16.2683477777
11
720.4198148089
21
16.2683477777
0
LINE
8
90000_FRAME
62
7
6
CONTINUOUS
10
732.7545480800
20
16.3158804685
11
731.2335019733
21
16.3158804685
0
LINE
8
90000_FRAME
62
7
6
CONTINUOUS
10
723.1291781863
20
16.3158804685
11
721.7507301522
21
16.3158804685
0
LINE
8
90000_FRAME
62
7
6
CONTINUOUS
10
710.3904170431
20
16.3158804685
11
711.8163977681
21
16.3158804685
0
LINE
8
90000_FRAME
62
7
6
CONTINUOUS
10
712.9096496573
20
16.3158804685
11
716.4746014697
21
16.3158804685
0
LINE
8
90000_FRAME
62
7
6
CONTINUOUS
10
717.2826572139
20
16.3158804685
11
718.2333110305
21
16.3158804685
0
LINE
8
90000_FRAME
62
7
6
CONTINUOUS
10
724.2224300755
20
16.3158804685
11
727.7873818879
21
16.3158804685
0
LINE
8
90000_FRAME
62
7
6
CONTINUOUS
10
728.5716712867
20
16.3158804685
11
729.5223251033
21
16.3158804685
0
LINE
8
90000_FRAME
62
7
6
CONTINUOUS
10
727.7873818879
20
17.2190015943
11
725.6008781096
21
17.2190015943
0
LINE
8
90000_FRAME
62
7
6
CONTINUOUS
10
716.4746014697
20
17.2190015943
11
714.2880976914
21
17.2190015943
0
LINE
8
91000_TIP
62
7
6
CENTER
10
668.4894949393
20
18.0214775409
11
692.0914842034
21
18.0214775409
0
LINE
8
90000_FRAME
62
7
6
CONTINUOUS
10
727.4546530521
20
18.3360198289
11
725.6008781096
21
18.3360198289
0
LINE
8
90000_FRAME
62
7
6
CONTINUOUS
10
716.1418726339
20
18.3360198289
11
714.2880976914
21
18.3360198289
0
LINE
8
90000_FRAME
62
7
6
CONTINUOUS
10
727.4546530521
20
19.1203092276
11
725.6008781096
21
19.1203092276
0
LINE
8
90000_FRAME
62
7
6
CONTINUOUS
10
716.1418726339
20
19.1203092276
11
714.2880976914
21
19.1203092276
0
LINE
8
90000_FRAME
62
7
6
CONTINUOUS
10
727.7398491971
20
20.1897947714
11
725.6008781096
21
20.1897947714
0
LINE
8
90000_FRAME
62
7
6
CONTINUOUS
10
716.4270687789
20
20.1897947714
11
714.2880976914
21
20.1897947714
0
LINE
8
90000_FRAME
62
7
6
CONTINUOUS
10
732.7545480800
20
21.0691495518
11
731.8038942633
21
21.0691495518
0
LINE
8
90000_FRAME
62
7
6
CONTINUOUS
10
730.1164837387
20
21.0691495518
11
728.5716712867
21
21.0691495518
0
LINE
8
90000_FRAME
62
7
6
CONTINUOUS
10
727.7398491971
20
21.0691495518
11
724.2224300755
21
21.0691495518
0
LINE
8
90000_FRAME
62
7
6
CONTINUOUS
10
723.1291781863
20
21.0691495518
11
721.4180013163
21
21.0691495518
0
LINE
8
90000_FRAME
62
7
6
CONTINUOUS
10
718.9938340839
20
21.0691495518
11
717.2826572139
21
21.0691495518
0
LINE
8
90000_FRAME
62
7
6
CONTINUOUS
10
716.4270687789
20
21.0691495518
11
712.9096496573
21
21.0691495518
0
LINE
8
90000_FRAME
62
7
6
CONTINUOUS
10
710.3904170431
20
21.0691495518
11
711.8163977681
21
21.0691495518
0
LINE
8
90000_FRAME
62
7
6
CONTINUOUS
10
696.0000000000
20
28.0000000000
11
831.0000000000
21
28.0000000000
0
LINE
8
40000_ISO
62
7
6
CONTINUOUS
10
212.9374658771
20
440.1682029617
11
213.1451308061
21
440.5462424953
0
LINE
8
40000_ISO
62
7
6
CONTINUOUS
10
195.1235075561
20
450.2782737367
11
195.2597227485
21
450.3742218247
0
LINE
8
40000_ISO
62
7
6
CONTINUOUS
10
212.8012506848
20
440.0722548737
11
212.9374658771
21
440.1682029617
0
LINE
8
40000_ISO
62
7
6
CONTINUOUS
10
184.7713325904
20
455.6302638500
11
185.8947811313
21
456.2788832957
0
LINE
8
40000_ISO
62
7
6
CONTINUOUS
10
193.8223370723
20
450.4047821921
11
194.9457856132
21
451.0534016379
0
LINE
8
40000_ISO
62
7
6
CONTINUOUS
10
202.4490757191
20
445.4242449870
11
203.5725242599
21
446.0728644327
0
LINE
8
40000_ISO
62
7
6
CONTINUOUS
10
116.6482711085
20
496.9180736543
11
116.7848604460
21
496.4769947526
0
LINE
8
40000_ISO
62
7
6
CONTINUOUS
10
230.6152090058
20
429.9621840987
11
230.8228739348
21
430.3402236323
0
LINE
8
40000_ISO
62
7
6
CONTINUOUS
10
248.2929521345
20
419.7561652357
11
248.5006170635
21
420.1342047693
0
LINE
8
40000_ISO
62
7
6
CONTINUOUS
10
230.4789938135
20
429.8662360107
11
230.6152090058
21
429.9621840987
0
LINE
8
40000_ISO
62
7
6
CONTINUOUS
10
211.5000802010
20
440.1987633291
11
212.6235287418
21
440.8473827749
0
LINE
8
40000_ISO
62
7
6
CONTINUOUS
10
220.1268188478
20
435.2182261240
11
221.2502673886
21
435.8668455697
0
LINE
8
40000_ISO
62
7
6
CONTINUOUS
10
229.1778233296
20
429.9927444661
11
230.3012718705
21
430.6413639118
0
LINE
8
40000_ISO
62
7
6
CONTINUOUS
10
237.8045619764
20
425.0122072609
11
238.9280105173
21
425.6608267067
0
LINE
8
40000_ISO
62
7
6
CONTINUOUS
10
707.2745766738
20
154.1799335125
11
707.7780582877
21
154.3037267095
0
LINE
8
91000_TIP
62
7
6
CONTINUOUS
10
669.7690054113
20
15.5214775920
11
679.7690052071
21
13.0214776430
0
LINE
8
40000_ISO
62
7
6
CONTINUOUS
10
130.0930525993
20
488.4952974523
11
130.3007175282
21
487.8774725380
0
LINE
8
40000_ISO
62
7
6
CONTINUOUS
10
265.9706952632
20
409.5501463727
11
266.1783601921
21
409.9281859063
0
LINE
8
40000_ISO
62
7
6
CONTINUOUS
10
248.1567369421
20
419.6602171477
11
248.2929521345
21
419.7561652357
0
LINE
8
40000_ISO
62
7
6
CONTINUOUS
10
265.8344800708
20
409.4541982847
11
265.9706952632
21
409.5501463727
0
LINE
8
40000_ISO
62
7
6
CONTINUOUS
10
246.8555664583
20
419.7867256031
11
247.9790149992
21
420.4353450488
0
LINE
8
40000_ISO
62
7
6
CONTINUOUS
10
255.4823051051
20
414.8061883979
11
256.6057536460
21
415.4548078437
0
LINE
8
40000_ISO
62
7
6
CONTINUOUS
10
264.5333095870
20
409.5807067401
11
265.6567581279
21
410.2293261858
0
LINE
8
40000_ISO
62
7
6
CONTINUOUS
10
689.5968335451
20
164.3859523755
11
690.1003151590
21
164.5097455725
0
LINE
8
40000_ISO
62
7
6
CONTINUOUS
10
671.9190904165
20
174.5919712385
11
672.4225720303
21
174.7157644355
0
LINE
8
40000_ISO
62
7
6
CONTINUOUS
10
704.9849507742
20
156.8871584019
11
705.4352254760
21
156.9894015048
0
LINE
8
40000_ISO
62
7
6
CONTINUOUS
10
712.6280515948
20
162.6697482591
11
712.1777768930
21
162.5675051561
0
LINE
8
40000_ISO
62
7
6
CONTINUOUS
10
147.7707957279
20
478.2892785892
11
147.9784606569
21
477.6714536750
0
LINE
8
40000_ISO
62
7
6
CONTINUOUS
10
165.4485388566
20
468.0832597262
11
165.6562037856
21
467.4654348120
0
LINE
8
40000_ISO
62
7
6
CONTINUOUS
10
183.1262819853
20
457.8772408632
11
183.3339469143
21
457.2594159490
0
LINE
8
40000_ISO
62
7
6
CONTINUOUS
10
283.6484383918
20
399.3441275097
11
283.8561033208
21
399.7221670433
0
LINE
8
40000_ISO
62
7
6
CONTINUOUS
10
301.3261815205
20
389.1381086467
11
301.5338464495
21
389.5161481803
0
LINE
8
40000_ISO
62
7
6
CONTINUOUS
10
283.5122231995
20
399.2481794217
11
283.6484383918
21
399.3441275097
0
LINE
8
40000_ISO
62
7
6
CONTINUOUS
10
301.1899663282
20
389.0421605587
11
301.3261815205
21
389.1381086467
0
LINE
8
40000_ISO
62
7
6
CONTINUOUS
10
273.1600482338
20
404.6001695349
11
274.2834967746
21
405.2487889807
0
LINE
8
40000_ISO
62
7
6
CONTINUOUS
10
282.2110527157
20
399.3746878771
11
283.3345012565
21
400.0233073228
0
LINE
8
40000_ISO
62
7
6
CONTINUOUS
10
290.8377913625
20
394.3941506719
11
291.9612399033
21
395.0427701177
0
LINE
8
40000_ISO
62
7
6
CONTINUOUS
10
654.2413472878
20
184.7979901015
11
654.7448289017
21
184.9217832985
0
LINE
8
40000_ISO
62
7
6
CONTINUOUS
10
636.5636041591
20
195.0040089645
11
637.0670857730
21
195.1278021615
0
LINE
8
40000_ISO
62
7
6
CONTINUOUS
10
705.6838812056
20
158.9049171423
11
705.4792332312
21
158.8846470083
0
LINE
8
40000_ISO
62
7
6
CONTINUOUS
10
711.9291211634
20
160.6519895186
11
712.1337691378
21
160.6722596527
0
LINE
8
40000_ISO
62
7
6
CONTINUOUS
10
116.7848604460
20
496.4769947526
11
117.0066694943
21
496.1258776003
0
LINE
8
40000_ISO
62
7
6
CONTINUOUS
10
200.8040251140
20
447.6712220002
11
201.0116900429
21
447.0533970860
0
LINE
8
40000_ISO
62
7
6
CONTINUOUS
10
218.4817682426
20
437.4652031372
11
218.6894331716
21
436.8473782230
0
LINE
8
40000_ISO
62
7
6
CONTINUOUS
10
319.0039246492
20
378.9320897837
11
319.2115895782
21
379.3101293173
0
LINE
8
40000_ISO
62
7
6
CONTINUOUS
10
318.8677094568
20
378.8361416957
11
319.0039246492
21
378.9320897837
0
LINE
8
40000_ISO
62
7
6
CONTINUOUS
10
299.8887958443
20
389.1686690141
11
301.0122443852
21
389.8172884598
0
LINE
8
40000_ISO
62
7
6
CONTINUOUS
10
308.5155344911
20
384.1881318089
11
309.6389830320
21
384.8367512547
0
LINE
8
40000_ISO
62
7
6
CONTINUOUS
10
317.5665389730
20
378.9626501511
11
318.6899875139
21
379.6112695968
0
LINE
8
40000_ISO
62
7
6
CONTINUOUS
10
326.1932776198
20
373.9821129459
11
327.3167261607
21
374.6307323917
0
LINE
8
40000_ISO
62
7
6
CONTINUOUS
10
618.8858610304
20
205.2100278275
11
619.3893426443
21
205.3338210245
0
LINE
8
40000_ISO
62
7
6
CONTINUOUS
10
601.2081179018
20
215.4160466905
11
601.7115995156
21
215.5398398876
0
LINE
8
40000_ISO
62
7
6
CONTINUOUS
10
704.5699752324
20
156.9036995157
11
704.9849507742
21
156.8871584019
0
LINE
8
40000_ISO
62
7
6
CONTINUOUS
10
713.0430271366
20
162.6532071452
11
712.6280515948
21
162.6697482591
0
LINE
8
40000_ISO
62
7
6
CONTINUOUS
10
130.3007175282
20
487.8774725380
11
130.9404143345
21
486.9190897168
0
LINE
8
40000_ISO
62
7
6
CONTINUOUS
10
147.9784606569
20
477.6714536750
11
148.6181574631
21
476.7130708538
0
LINE
8
40000_ISO
62
7
6
CONTINUOUS
10
165.6562037856
20
467.4654348120
11
166.2959005918
21
466.5070519908
0
LINE
8
40000_ISO
62
7
6
CONTINUOUS
10
236.1595113713
20
427.2591842742
11
236.3671763003
21
426.6413593600
0
LINE
8
40000_ISO
62
7
6
CONTINUOUS
10
253.8372545000
20
417.0531654112
11
254.0449194290
21
416.4353404970
0
LINE
8
40000_ISO
62
7
6
CONTINUOUS
10
336.6816677779
20
368.7260709207
11
336.8893327068
21
369.1041104543
0
LINE
8
40000_ISO
62
7
6
CONTINUOUS
10
354.3594109065
20
358.5200520577
11
354.5670758355
21
358.8980915913
0
LINE
8
40000_ISO
62
7
6
CONTINUOUS
10
336.5454525855
20
368.6301228327
11
336.6816677779
21
368.7260709207
0
LINE
8
40000_ISO
62
7
6
CONTINUOUS
10
354.2231957142
20
358.4241039697
11
354.3594109065
21
358.5200520577
0
LINE
8
40000_ISO
62
7
6
CONTINUOUS
10
335.2442821017
20
368.7566312880
11
336.3677306426
21
369.4052507338
0
LINE
8
40000_ISO
62
7
6
CONTINUOUS
10
343.8710207485
20
363.7760940829
11
344.9944692893
21
364.4247135287
0
LINE
8
40000_ISO
62
7
6
CONTINUOUS
10
352.9220252304
20
358.5506124250
11
354.0454737712
21
359.1992318708
0
LINE
8
40000_ISO
62
7
6
CONTINUOUS
10
583.5303747731
20
225.6220655536
11
584.0338563870
21
225.7458587506
0
LINE
8
40000_ISO
62
7
6
CONTINUOUS
10
565.8526316444
20
235.8280844166
11
566.3561132583
21
235.9518776136
0
LINE
8
40000_ISO
62
7
6
CONTINUOUS
10
183.3339469143
20
457.2594159490
11
183.9736437205
21
456.3010331277
0
LINE
8
40000_ISO
62
7
6
CONTINUOUS
10
201.0116900429
20
447.0533970860
11
201.6513868492
21
446.0950142647
0
LINE
8
40000_ISO
62
7
6
CONTINUOUS
10
218.6894331716
20
436.8473782230
11
219.3291299778
21
435.8889954017
0
LINE
8
40000_ISO
62
7
6
CONTINUOUS
10
271.5149976287
20
406.8471465482
11
271.7226625576
21
406.2293216340
0
LINE
8
40000_ISO
62
7
6
CONTINUOUS
10
289.1927407573
20
396.6411276852
11
289.4004056863
21
396.0233027710
0
LINE
8
40000_ISO
62
7
6
CONTINUOUS
10
372.0371540352
20
348.3140331947
11
372.2448189642
21
348.6920727283
0
LINE
8
40000_ISO
62
7
6
CONTINUOUS
10
371.9009388429
20
348.2180851067
11
372.0371540352
21
348.3140331947
0
LINE
8
40000_ISO
62
7
6
CONTINUOUS
10
361.5487638772
20
353.5700752199
11
362.6722124180
21
354.2186946656
0
LINE
8
40000_ISO
62
7
6
CONTINUOUS
10
370.5997683590
20
348.3445935620
11
371.7232168999
21
348.9932130078
0
LINE
8
40000_ISO
62
7
6
CONTINUOUS
10
379.2265070058
20
343.3640563569
11
380.3499555467
21
344.0126758026
0
LINE
8
40000_ISO
62
7
6
CONTINUOUS
10
548.1748885157
20
246.0341032796
11
548.6783701296
21
246.1578964766
0
LINE
8
40000_ISO
62
7
6
CONTINUOUS
10
530.4971453871
20
256.2401221426
11
531.0006270009
21
256.3639153396
0
LINE
8
40000_ISO
62
7
6
CONTINUOUS
10
236.3671763003
20
426.6413593600
11
237.0068731065
21
425.6829765387
0
LINE
8
40000_ISO
62
7
6
CONTINUOUS
10
254.0449194290
20
416.4353404970
11
254.6846162352
21
415.4769576757
0
LINE
8
40000_ISO
62
7
6
CONTINUOUS
10
271.7226625576
20
406.2293216340
11
272.3623593639
21
405.2709388127
0
LINE
8
40000_ISO
62
7
6
CONTINUOUS
10
306.8704838860
20
386.4351088222
11
307.0781488150
21
385.8172839080
0
LINE
8
40000_ISO
62
7
6
CONTINUOUS
10
324.5482270147
20
376.2290899592
11
324.7558919436
21
375.6112650449
0
LINE
8
40000_ISO
62
7
6
CONTINUOUS
10
389.7148971639
20
338.1080143316
11
389.9225620929
21
338.4860538653
0
LINE
8
40000_ISO
62
7
6
CONTINUOUS
10
407.3926402926
20
327.9019954686
11
407.6003052215
21
328.2800350023
0
LINE
8
40000_ISO
62
7
6
CONTINUOUS
10
389.5786819715
20
338.0120662436
11
389.7148971639
21
338.1080143316
0
LINE
8
40000_ISO
62
7
6
CONTINUOUS
10
407.2564251002
20
327.8060473806
11
407.3926402926
21
327.9019954686
0
LINE
8
40000_ISO
62
7
6
CONTINUOUS
10
388.2775114877
20
338.1385746990
11
389.4009600286
21
338.7871941448
0
LINE
8
40000_ISO
62
7
6
CONTINUOUS
10
396.9042501345
20
333.1580374939
11
398.0276986754
21
333.8066569396
0
LINE
8
40000_ISO
62
7
6
CONTINUOUS
10
405.9552546164
20
327.9325558360
11
407.0787031573
21
328.5811752818
0
LINE
8
40000_ISO
62
7
6
CONTINUOUS
10
414.5819932632
20
322.9520186309
11
415.7054418040
21
323.6006380766
0
LINE
8
40000_ISO
62
7
6
CONTINUOUS
10
512.8194022584
20
266.4461410056
11
513.3228838723
21
266.5699342026
0
LINE
8
40000_ISO
62
7
6
CONTINUOUS
10
495.1416591297
20
276.6521598686
11
495.6451407436
21
276.7759530656
0
LINE
8
40000_ISO
62
7
6
CONTINUOUS
10
705.4792332312
20
158.8846470083
11
705.3035056263
21
158.9388913916
0
LINE
8
40000_ISO
62
7
6
CONTINUOUS
10
712.1337691378
20
160.6722596527
11
712.3094967427
21
160.6180152693
0
LINE
8
40000_ISO
62
7
6
CONTINUOUS
10
706.4768878039
20
154.4302351649
11
707.2745766738
21
154.1799335125
0
LINE
8
40000_ISO
62
7
6
CONTINUOUS
10
708.0286363273
20
155.3261322449
11
708.2692784247
21
155.2506227112
0
LINE
8
40000_ISO
62
7
6
CONTINUOUS
10
688.7991446752
20
164.6362540279
11
689.5968335451
21
164.3859523755
0
LINE
8
40000_ISO
62
7
6
CONTINUOUS
10
671.1214015465
20
174.8422728909
11
671.9190904165
21
174.5919712385
0
LINE
8
40000_ISO
62
7
6
CONTINUOUS
10
653.4436584178
20
185.0482917539
11
654.2413472878
21
184.7979901015
0
LINE
8
40000_ISO
62
7
6
CONTINUOUS
10
635.7659152892
20
195.2543106169
11
636.5636041591
21
195.0040089645
0
LINE
8
40000_ISO
62
7
6
CONTINUOUS
10
618.0881721605
20
205.4603294799
11
618.8858610304
21
205.2100278275
0
LINE
8
40000_ISO
62
7
6
CONTINUOUS
10
704.2062677196
20
157.0383767147
11
704.5699752324
21
156.9036995157
0
LINE
8
40000_ISO
62
7
6
CONTINUOUS
10
117.0066694943
20
496.1258776003
11
117.3051958476
21
495.8782029665
0
LINE
8
40000_ISO
62
7
6
CONTINUOUS
10
130.9404143345
20
486.9190897168
11
131.7381032044
21
486.2483204390
0
LINE
8
40000_ISO
62
7
6
CONTINUOUS
10
148.6181574631
20
476.7130708538
11
149.4158463331
21
476.0423015760
0
LINE
8
40000_ISO
62
7
6
CONTINUOUS
10
166.2959005918
20
466.5070519908
11
167.0935894617
21
465.8362827130
0
LINE
8
40000_ISO
62
7
6
CONTINUOUS
10
183.9736437205
20
456.3010331277
11
184.7713325904
21
455.6302638500
0
LINE
8
40000_ISO
62
7
6
CONTINUOUS
10
201.6513868492
20
446.0950142647
11
202.4490757191
21
445.4242449870
0
LINE
8
40000_ISO
62
7
6
CONTINUOUS
10
289.4004056863
20
396.0233027710
11
290.0401024925
21
395.0649199497
0
LINE
8
40000_ISO
62
7
6
CONTINUOUS
10
307.0781488150
20
385.8172839080
11
307.7178456212
21
384.8589010867
0
LINE
8
40000_ISO
62
7
6
CONTINUOUS
10
324.7558919436
20
375.6112650449
11
325.3955887499
21
374.6528822237
0
LINE
8
40000_ISO
62
7
6
CONTINUOUS
10
342.4336350723
20
365.4052461819
11
343.0733318786
21
364.4468633607
0
LINE
8
40000_ISO
62
7
6
CONTINUOUS
10
342.2259701434
20
366.0230710962
11
342.4336350723
21
365.4052461819
0
LINE
8
40000_ISO
62
7
6
CONTINUOUS
10
359.9037132720
20
355.8170522332
11
360.1113782010
21
355.1992273189
0
LINE
8
40000_ISO
62
7
6
CONTINUOUS
10
425.0703834212
20
317.6959766056
11
425.2780483502
21
318.0740161392
0
LINE
8
40000_ISO
62
7
6
CONTINUOUS
10
424.9341682289
20
317.6000285176
11
425.0703834212
21
317.6959766056
0
LINE
8
40000_ISO
62
7
6
CONTINUOUS
10
423.6329977451
20
317.7265369730
11
424.7564462859
21
318.3751564188
0
LINE
8
40000_ISO
62
7
6
CONTINUOUS
10
432.2597363919
20
312.7459997679
11
433.3831849327
21
313.3946192136
0
LINE
8
40000_ISO
62
7
6
CONTINUOUS
10
441.3107408737
20
307.5205181100
11
442.4341894146
21
308.1691375558
0
LINE
8
40000_ISO
62
7
6
CONTINUOUS
10
477.4639160010
20
286.8581787316
11
477.9673976149
21
286.9819719286
0
LINE
8
40000_ISO
62
7
6
CONTINUOUS
10
459.7861728724
20
297.0641975946
11
460.2896544862
21
297.1879907916
0
LINE
8
40000_ISO
62
7
6
CONTINUOUS
10
600.4104290318
20
215.6663483429
11
601.2081179018
21
215.4160466905
0
LINE
8
40000_ISO
62
7
6
CONTINUOUS
10
582.7326859031
20
225.8723672059
11
583.5303747731
21
225.6220655536
0
LINE
8
40000_ISO
62
7
6
CONTINUOUS
10
565.0549427745
20
236.0783860690
11
565.8526316444
21
235.8280844166
0
LINE
8
40000_ISO
62
7
6
CONTINUOUS
10
547.3771996458
20
246.2844049320
11
548.1748885157
21
246.0341032796
0
LINE
8
40000_ISO
62
7
6
CONTINUOUS
10
529.6994565171
20
256.4904237950
11
530.4971453871
21
256.2401221426
0
LINE
8
40000_ISO
62
7
6
CONTINUOUS
10
512.0217133884
20
266.6964426580
11
512.8194022584
21
266.4461410056
0
LINE
8
40000_ISO
62
7
6
CONTINUOUS
10
494.3439702598
20
276.9024615210
11
495.1416591297
21
276.6521598686
0
LINE
8
40000_ISO
62
7
6
CONTINUOUS
10
713.4067346494
20
162.5185299462
11
713.0430271366
21
162.6532071452
0
LINE
8
40000_ISO
62
7
6
CONTINUOUS
10
116.6021505334
20
472.3655396845
11
703.5032224054
21
133.5257134327
0
LINE
8
40000_ISO
62
7
6
CONTINUOUS
10
116.6021505334
20
475.8765000782
11
703.5032224054
21
137.0366738263
0
LINE
8
40000_ISO
62
7
6
CONTINUOUS
10
219.3291299778
20
435.8889954017
11
220.1268188478
21
435.2182261240
0
LINE
8
40000_ISO
62
7
6
CONTINUOUS
10
237.0068731065
20
425.6829765387
11
237.8045619764
21
425.0122072609
0
LINE
8
40000_ISO
62
7
6
CONTINUOUS
10
254.6846162352
20
415.4769576757
11
255.4823051051
21
414.8061883979
0
LINE
8
40000_ISO
62
7
6
CONTINUOUS
10
272.3623593639
20
405.2709388127
11
273.1600482338
21
404.6001695349
0
LINE
8
40000_ISO
62
7
6
CONTINUOUS
10
290.0401024925
20
395.0649199497
11
290.8377913625
21
394.3941506719
0
LINE
8
40000_ISO
62
7
6
CONTINUOUS
10
307.7178456212
20
384.8589010867
11
308.5155344911
21
384.1881318089
0
LINE
8
40000_ISO
62
7
6
CONTINUOUS
10
325.3955887499
20
374.6528822237
11
326.1932776198
21
373.9821129459
0
LINE
8
40000_ISO
62
7
6
CONTINUOUS
10
343.0733318786
20
364.4468633607
11
343.8710207485
21
363.7760940829
0
LINE
8
40000_ISO
62
7
6
CONTINUOUS
10
360.1113782010
20
355.1992273189
11
360.7510750072
21
354.2408444977
0
LINE
8
40000_ISO
62
7
6
CONTINUOUS
10
377.7891213297
20
344.9932084559
11
378.4288181359
21
344.0348256347
0
LINE
8
40000_ISO
62
7
6
CONTINUOUS
10
395.4668644583
20
334.7871895929
11
396.1065612646
21
333.8288067717
0
LINE
8
40000_ISO
62
7
6
CONTINUOUS
10
377.5814564007
20
345.6110333701
11
377.7891213297
21
344.9932084559
0
LINE
8
40000_ISO
62
7
6
CONTINUOUS
10
395.2591995294
20
335.4050145071
11
395.4668644583
21
334.7871895929
0
LINE
8
40000_ISO
62
7
6
CONTINUOUS
10
412.9369426581
20
325.1989956441
11
413.1446075870
21
324.5811707299
0
LINE
8
40000_ISO
62
7
6
CONTINUOUS
10
442.7481265499
20
307.4899577426
11
442.9557914789
21
307.8679972762
0
LINE
8
40000_ISO
62
7
6
CONTINUOUS
10
442.6119113576
20
307.3940096546
11
442.7481265499
21
307.4899577426
0
LINE
8
40000_ISO
62
7
6
CONTINUOUS
10
460.2896544862
20
297.1879907916
11
460.4258696786
21
297.2839388796
0
LINE
8
40000_ISO
62
7
6
CONTINUOUS
10
449.9374795205
20
302.5399809049
11
451.0609280614
21
303.1886003506
0
LINE
8
40000_ISO
62
7
6
CONTINUOUS
10
458.9884840024
20
297.3144992470
11
460.1119325433
21
297.9631186927
0
LINE
8
40000_ISO
62
7
6
CONTINUOUS
10
467.6152226492
20
292.3339620418
11
468.7386711901
21
292.9825814876
0
LINE
8
40000_ISO
62
7
6
CONTINUOUS
10
442.1084297437
20
307.2702164576
11
442.6119113576
21
307.3940096546
0
LINE
8
40000_ISO
62
7
6
CONTINUOUS
10
424.4306866150
20
317.4762353206
11
424.9341682289
21
317.6000285176
0
LINE
8
40000_ISO
62
7
6
CONTINUOUS
10
406.7529434863
20
327.6822541836
11
407.2564251002
21
327.8060473806
0
LINE
8
40000_ISO
62
7
6
CONTINUOUS
10
476.6662271311
20
287.1084803840
11
477.4639160010
21
286.8581787316
0
LINE
8
40000_ISO
62
7
6
CONTINUOUS
10
458.9884840024
20
297.3144992470
11
459.7861728724
21
297.0641975946
0
LINE
8
40000_ISO
62
7
6
CONTINUOUS
10
441.3107408737
20
307.5205181100
11
442.1084297437
21
307.2702164576
0
LINE
8
40000_ISO
62
7
6
CONTINUOUS
10
423.6329977451
20
317.7265369730
11
424.4306866150
21
317.4762353206
0
LINE
8
40000_ISO
62
7
6
CONTINUOUS
10
405.9552546164
20
327.9325558360
11
406.7529434863
21
327.6822541836
0
LINE
8
40000_ISO
62
7
6
CONTINUOUS
10
388.2775114877
20
338.1385746990
11
389.0752003577
21
337.8882730466
0
LINE
8
40000_ISO
62
7
6
CONTINUOUS
10
119.0024236615
20
480.0339181665
11
705.9034955335
21
141.1940919146
0
LINE
8
40000_ISO
62
7
6
CONTINUOUS
10
124.8084349635
20
483.3860003454
11
711.7095068355
21
144.5461740935
0
LINE
8
40000_ISO
62
7
6
CONTINUOUS
10
125.6569595681
20
484.8556962306
11
712.5580314401
21
146.0158699787
0
LINE
8
40000_ISO
62
7
6
CONTINUOUS
10
131.7381032044
20
486.2483204390
11
140.7891076863
21
481.0228387811
0
LINE
8
40000_ISO
62
7
6
CONTINUOUS
10
149.4158463331
20
476.0423015760
11
158.4668508149
21
470.8168199181
0
LINE
8
40000_ISO
62
7
6
CONTINUOUS
10
167.0935894617
20
465.8362827130
11
176.1445939436
21
460.6108010551
0
LINE
8
40000_ISO
62
7
6
CONTINUOUS
10
184.7713325904
20
455.6302638500
11
193.8223370723
21
450.4047821921
0
LINE
8
40000_ISO
62
7
6
CONTINUOUS
10
202.4490757191
20
445.4242449870
11
211.5000802010
21
440.1987633291
0
LINE
8
40000_ISO
62
7
6
CONTINUOUS
10
220.1268188478
20
435.2182261240
11
229.1778233296
21
429.9927444661
0
LINE
8
40000_ISO
62
7
6
CONTINUOUS
10
237.8045619764
20
425.0122072609
11
246.8555664583
21
419.7867256031
0
LINE
8
40000_ISO
62
7
6
CONTINUOUS
10
255.4823051051
20
414.8061883979
11
264.5333095870
21
409.5807067401
0
LINE
8
40000_ISO
62
7
6
CONTINUOUS
10
273.1600482338
20
404.6001695349
11
282.2110527157
21
399.3746878771
0
LINE
8
40000_ISO
62
7
6
CONTINUOUS
10
290.8377913625
20
394.3941506719
11
299.8887958443
21
389.1686690141
0
LINE
8
40000_ISO
62
7
6
CONTINUOUS
10
308.5155344911
20
384.1881318089
11
317.5665389730
21
378.9626501511
0
LINE
8
40000_ISO
62
7
6
CONTINUOUS
10
326.1932776198
20
373.9821129459
11
335.2442821017
21
368.7566312880
0
LINE
8
40000_ISO
62
7
6
CONTINUOUS
10
343.8710207485
20
363.7760940829
11
352.9220252304
21
358.5506124250
0
LINE
8
40000_ISO
62
7
6
CONTINUOUS
10
361.5487638772
20
353.5700752199
11
370.5997683590
21
348.3445935620
0
LINE
8
40000_ISO
62
7
6
CONTINUOUS
10
379.2265070058
20
343.3640563569
11
388.2775114877
21
338.1385746990
0
LINE
8
40000_ISO
62
7
6
CONTINUOUS
10
396.9042501345
20
333.1580374939
11
405.9552546164
21
327.9325558360
0
LINE
8
40000_ISO
62
7
6
CONTINUOUS
10
414.5819932632
20
322.9520186309
11
423.6329977451
21
317.7265369730
0
LINE
8
40000_ISO
62
7
6
CONTINUOUS
10
432.2597363919
20
312.7459997679
11
441.3107408737
21
307.5205181100
0
LINE
8
40000_ISO
62
7
6
CONTINUOUS
10
449.9374795205
20
302.5399809049
11
458.9884840024
21
297.3144992470
0
LINE
8
40000_ISO
62
7
6
CONTINUOUS
10
467.6152226492
20
292.3339620418
11
476.6662271311
21
287.1084803840
0
LINE
8
40000_ISO
62
7
6
CONTINUOUS
10
485.2929657779
20
282.1279431788
11
494.3439702598
21
276.9024615210
0
LINE
8
40000_ISO
62
7
6
CONTINUOUS
10
502.9707089066
20
271.9219243158
11
512.0217133884
21
266.6964426580
0
LINE
8
40000_ISO
62
7
6
CONTINUOUS
10
520.6484520352
20
261.7159054528
11
529.6994565171
21
256.4904237950
0
LINE
8
40000_ISO
62
7
6
CONTINUOUS
10
538.3261951639
20
251.5098865898
11
547.3771996458
21
246.2844049320
0
LINE
8
40000_ISO
62
7
6
CONTINUOUS
10
556.0039382926
20
241.3038677268
11
565.0549427745
21
236.0783860690
0
LINE
8
40000_ISO
62
7
6
CONTINUOUS
10
573.6816814213
20
231.0978488638
11
582.7326859031
21
225.8723672059
0
LINE
8
40000_ISO
62
7
6
CONTINUOUS
10
591.3594245499
20
220.8918300008
11
600.4104290318
21
215.6663483429
0
LINE
8
40000_ISO
62
7
6
CONTINUOUS
10
609.0371676786
20
210.6858111378
11
618.0881721605
21
205.4603294799
0
LINE
8
40000_ISO
62
7
6
CONTINUOUS
10
626.7149108073
20
200.4797922748
11
635.7659152892
21
195.2543106169
0
LINE
8
40000_ISO
62
7
6
CONTINUOUS
10
644.3926539360
20
190.2737734118
11
653.4436584178
21
185.0482917539
0
LINE
8
40000_ISO
62
7
6
CONTINUOUS
10
662.0703970646
20
180.0677545488
11
671.1214015465
21
174.8422728909
0
LINE
8
40000_ISO
62
7
6
CONTINUOUS
10
679.7481401933
20
169.8617356858
11
688.7991446752
21
164.6362540279
0
LINE
8
40000_ISO
62
7
6
CONTINUOUS
10
697.4258833220
20
159.6557168227
11
706.4768878039
21
154.4302351649
0
LINE
8
40000_ISO
62
7
6
CONTINUOUS
10
117.3051959870
20
495.8782028861
11
704.2062678590
21
157.0383766342
0
LINE
8
40000_ISO
62
7
6
CONTINUOUS
10
705.2288660196
20
156.9425438176
11
708.0286363273
21
155.3261322449
0
LINE
8
40000_ISO
62
7
6
CONTINUOUS
10
116.6021505334
20
497.4321638904
11
703.5032224054
21
158.5923376386
0
LINE
8
40000_ISO
62
7
6
CONTINUOUS
10
705.0140904268
20
159.5118114637
11
705.9034955335
21
158.9983248026
0
LINE
8
40000_ISO
62
7
6
CONTINUOUS
10
116.6021505334
20
500.9431242841
11
703.5032224054
21
162.1032980322
0
LINE
8
40000_ISO
62
7
6
CONTINUOUS
10
117.3092543706
20
501.3513684379
11
704.2103262426
21
162.5115421861
0
LINE
8
40000_ISO
62
7
6
CONTINUOUS
10
711.7094959714
20
160.5585630408
11
712.5580314401
21
160.0686719424
0
LINE
8
40000_ISO
62
7
6
CONTINUOUS
10
124.8084349635
20
501.1902332333
11
711.7095068355
21
162.3504069815
0
LINE
8
40000_ISO
62
7
6
CONTINUOUS
10
126.5056626380
20
501.3583562785
11
713.4067345100
21
162.5185300267
0
LINE
8
40000_ISO
62
7
6
CONTINUOUS
10
360.7510750072
20
354.2408444977
11
361.5487638772
21
353.5700752199
0
LINE
8
40000_ISO
62
7
6
CONTINUOUS
10
378.4288181359
20
344.0348256347
11
379.2265070058
21
343.3640563569
0
LINE
8
40000_ISO
62
7
6
CONTINUOUS
10
396.1065612646
20
333.8288067717
11
396.9042501345
21
333.1580374939
0
LINE
8
40000_ISO
62
7
6
CONTINUOUS
10
413.7843043933
20
323.6227879086
11
414.5819932632
21
322.9520186309
0
LINE
8
40000_ISO
62
7
6
CONTINUOUS
10
431.4620475219
20
313.4167690456
11
432.2597363919
21
312.7459997679
0
LINE
8
40000_ISO
62
7
6
CONTINUOUS
10
449.1397906506
20
303.2107501826
11
449.9374795205
21
302.5399809049
0
LINE
8
40000_ISO
62
7
6
CONTINUOUS
10
466.8175337793
20
293.0047313196
11
467.6152226492
21
292.3339620418
0
LINE
8
40000_ISO
62
7
6
CONTINUOUS
10
484.4952769080
20
282.7987124566
11
485.2929657779
21
282.1279431788
0
LINE
8
40000_ISO
62
7
6
CONTINUOUS
10
413.1446075870
20
324.5811707299
11
413.7843043933
21
323.6227879086
0
LINE
8
40000_ISO
62
7
6
CONTINUOUS
10
430.8223507157
20
314.3751518669
11
431.4620475219
21
313.4167690456
0
LINE
8
40000_ISO
62
7
6
CONTINUOUS
10
448.5000938444
20
304.1691330039
11
449.1397906506
21
303.2107501826
0
LINE
8
40000_ISO
62
7
6
CONTINUOUS
10
430.6146857867
20
314.9929767811
11
430.8223507157
21
314.3751518669
0
LINE
8
40000_ISO
62
7
6
CONTINUOUS
10
448.2924289154
20
304.7869579181
11
448.5000938444
21
304.1691330039
0
LINE
8
40000_ISO
62
7
6
CONTINUOUS
10
460.4258696786
20
297.2839388796
11
460.6335346076
21
297.6619784132
0
LINE
8
40000_ISO
62
7
6
CONTINUOUS
10
478.1036128073
20
287.0779200166
11
478.3112777362
21
287.4559595502
0
LINE
8
40000_ISO
62
7
6
CONTINUOUS
10
477.9673976149
20
286.9819719286
11
478.1036128073
21
287.0779200166
0
LINE
8
40000_ISO
62
7
6
CONTINUOUS
10
495.6451407436
20
276.7759530656
11
495.7813559359
21
276.8719011536
0
LINE
8
40000_ISO
62
7
6
CONTINUOUS
10
476.6662271311
20
287.1084803840
11
477.7896756720
21
287.7570998297
0
LINE
8
40000_ISO
62
7
6
CONTINUOUS
10
485.2929657779
20
282.1279431788
11
486.4164143187
21
282.7765626246
0
LINE
8
40000_ISO
62
7
6
CONTINUOUS
10
494.3439702598
20
276.9024615210
11
495.4674188006
21
277.5510809667
0
LINE
8
40000_ISO
62
7
6
CONTINUOUS
10
389.0752003577
20
337.8882730466
11
389.5786819715
21
338.0120662436
0
LINE
8
40000_ISO
62
7
6
CONTINUOUS
10
371.3974572290
20
348.0942919096
11
371.9009388429
21
348.2180851067
0
LINE
8
40000_ISO
62
7
6
CONTINUOUS
10
370.5997683590
20
348.3445935620
11
371.3974572290
21
348.0942919096
0
LINE
8
40000_ISO
62
7
6
CONTINUOUS
10
352.9220252304
20
358.5506124250
11
353.7197141003
21
358.3003107727
0
LINE
8
40000_ISO
62
7
6
CONTINUOUS
10
335.2442821017
20
368.7566312880
11
336.0419709716
21
368.5063296357
0
LINE
8
40000_ISO
62
7
6
CONTINUOUS
10
317.5665389730
20
378.9626501511
11
318.3642278430
21
378.7123484987
0
LINE
8
40000_ISO
62
7
6
CONTINUOUS
10
299.8887958443
20
389.1686690141
11
300.6864847143
21
388.9183673617
0
LINE
8
40000_ISO
62
7
6
CONTINUOUS
10
282.2110527157
20
399.3746878771
11
283.0087415856
21
399.1243862247
0
LINE
8
40000_ISO
62
7
6
CONTINUOUS
10
264.5333095870
20
409.5807067401
11
265.3309984569
21
409.3304050877
0
LINE
8
40000_ISO
62
7
6
CONTINUOUS
10
502.1730200366
20
272.5926935936
11
502.9707089066
21
271.9219243158
0
LINE
8
40000_ISO
62
7
6
CONTINUOUS
10
519.8507631653
20
262.3866747306
11
520.6484520352
21
261.7159054528
0
LINE
8
40000_ISO
62
7
6
CONTINUOUS
10
537.5285062940
20
252.1806558676
11
538.3261951639
21
251.5098865898
0
LINE
8
40000_ISO
62
7
6
CONTINUOUS
10
555.2062494227
20
241.9746370046
11
556.0039382926
21
241.3038677268
0
LINE
8
40000_ISO
62
7
6
CONTINUOUS
10
572.8839925513
20
231.7686181416
11
573.6816814213
21
231.0978488638
0
LINE
8
40000_ISO
62
7
6
CONTINUOUS
10
590.5617356800
20
221.5625992786
11
591.3594245499
21
220.8918300008
0
LINE
8
40000_ISO
62
7
6
CONTINUOUS
10
608.2394788087
20
211.3565804156
11
609.0371676786
21
210.6858111378
0
LINE
8
40000_ISO
62
7
6
CONTINUOUS
10
625.9172219374
20
201.1505615526
11
626.7149108073
21
200.4797922748
0
LINE
8
40000_ISO
62
7
6
CONTINUOUS
10
643.5949650660
20
190.9445426895
11
644.3926539360
21
190.2737734118
0
LINE
8
40000_ISO
62
7
6
CONTINUOUS
10
466.1778369730
20
293.9631141409
11
466.8175337793
21
293.0047313196
0
LINE
8
40000_ISO
62
7
6
CONTINUOUS
10
483.8555801017
20
283.7570952779
11
484.4952769080
21
282.7987124566
0
LINE
8
40000_ISO
62
7
6
CONTINUOUS
10
501.5333232304
20
273.5510764149
11
502.1730200366
21
272.5926935936
0
LINE
8
40000_ISO
62
7
6
CONTINUOUS
10
465.9701720441
20
294.5809390551
11
466.1778369730
21
293.9631141409
0
LINE
8
40000_ISO
62
7
6
CONTINUOUS
10
483.6479151728
20
284.3749201921
11
483.8555801017
21
283.7570952779
0
LINE
8
40000_ISO
62
7
6
CONTINUOUS
10
495.7813559359
20
276.8719011536
11
495.9890208649
21
277.2499406872
0
LINE
8
40000_ISO
62
7
6
CONTINUOUS
10
513.3228838723
20
266.5699342026
11
513.4590990646
21
266.6658822906
0
LINE
8
40000_ISO
62
7
6
CONTINUOUS
10
502.9707089066
20
271.9219243158
11
504.0941574474
21
272.5705437616
0
LINE
8
40000_ISO
62
7
6
CONTINUOUS
10
512.0217133884
20
266.6964426580
11
513.1451619293
21
267.3450621037
0
LINE
8
40000_ISO
62
7
6
CONTINUOUS
10
520.6484520352
20
261.7159054528
11
521.7719005761
21
262.3645248986
0
LINE
8
40000_ISO
62
7
6
CONTINUOUS
10
529.6994565171
20
256.4904237950
11
530.8229050580
21
257.1390432407
0
LINE
8
40000_ISO
62
7
6
CONTINUOUS
10
353.7197141003
20
358.3003107727
11
354.2231957142
21
358.4241039697
0
LINE
8
40000_ISO
62
7
6
CONTINUOUS
10
336.0419709716
20
368.5063296357
11
336.5454525855
21
368.6301228327
0
LINE
8
40000_ISO
62
7
6
CONTINUOUS
10
246.8555664583
20
419.7867256031
11
247.6532553283
21
419.5364239507
0
LINE
8
40000_ISO
62
7
6
CONTINUOUS
10
229.1778233296
20
429.9927444661
11
229.9755121996
21
429.7424428137
0
LINE
8
40000_ISO
62
7
6
CONTINUOUS
10
211.5000802010
20
440.1987633291
11
212.2977690709
21
439.9484616767
0
LINE
8
40000_ISO
62
7
6
CONTINUOUS
10
193.8223370723
20
450.4047821921
11
194.6200259422
21
450.1544805397
0
LINE
8
40000_ISO
62
7
6
CONTINUOUS
10
176.1445939436
20
460.6108010551
11
176.9422828136
21
460.3604994027
0
LINE
8
40000_ISO
62
7
6
CONTINUOUS
10
158.4668508149
20
470.8168199181
11
159.2645396849
21
470.5665182657
0
LINE
8
40000_ISO
62
7
6
CONTINUOUS
10
140.7891076863
20
481.0228387811
11
141.5867965562
21
480.7725371287
0
LINE
8
40000_ISO
62
7
6
CONTINUOUS
10
126.5056627774
20
501.3583561981
11
126.1419552646
21
501.4930333970
0
LINE
8
40000_ISO
62
7
6
CONTINUOUS
10
703.9077413663
20
157.2860513484
11
704.2062677196
21
157.0383767147
0
LINE
8
40000_ISO
62
7
6
CONTINUOUS
10
713.7052610027
20
162.2708553125
11
713.4067346494
21
162.5185299462
0
LINE
8
40000_ISO
62
7
6
CONTINUOUS
10
661.2727081947
20
180.7385238265
11
662.0703970646
21
180.0677545488
0
LINE
8
40000_ISO
62
7
6
CONTINUOUS
10
678.9504513234
20
170.5325049635
11
679.7481401933
21
169.8617356858
0
LINE
8
40000_ISO
62
7
6
CONTINUOUS
10
696.6281944520
20
160.3264861005
11
697.4258833220
21
159.6557168227
0
LINE
8
40000_ISO
62
7
6
CONTINUOUS
10
519.2110663591
20
263.3450575519
11
519.8507631653
21
262.3866747306
0
LINE
8
40000_ISO
62
7
6
CONTINUOUS
10
536.8888094877
20
253.1390386889
11
537.5285062940
21
252.1806558676
0
LINE
8
40000_ISO
62
7
6
CONTINUOUS
10
554.5665526164
20
242.9330198258
11
555.2062494227
21
241.9746370046
0
LINE
8
40000_ISO
62
7
6
CONTINUOUS
10
572.2442957451
20
232.7270009628
11
572.8839925513
21
231.7686181416
0
LINE
8
40000_ISO
62
7
6
CONTINUOUS
10
501.3256583014
20
274.1689013291
11
501.5333232304
21
273.5510764149
0
LINE
8
40000_ISO
62
7
6
CONTINUOUS
10
519.0034014301
20
263.9628824661
11
519.2110663591
21
263.3450575519
0
LINE
8
40000_ISO
62
7
6
CONTINUOUS
10
513.4590990646
20
266.6658822906
11
513.6667639936
21
267.0439218242
0
LINE
8
40000_ISO
62
7
6
CONTINUOUS
10
531.1368421933
20
256.4598634276
11
531.3445071223
21
256.8379029612
0
LINE
8
40000_ISO
62
7
6
CONTINUOUS
10
531.0006270009
20
256.3639153396
11
531.1368421933
21
256.4598634276
0
LINE
8
40000_ISO
62
7
6
CONTINUOUS
10
548.6783701296
20
246.1578964766
11
548.8145853220
21
246.2538445646
0
LINE
8
40000_ISO
62
7
6
CONTINUOUS
10
538.3261951639
20
251.5098865898
11
539.4496437048
21
252.1585060356
0
LINE
8
40000_ISO
62
7
6
CONTINUOUS
10
547.3771996458
20
246.2844049320
11
548.5006481867
21
246.9330243777
0
LINE
8
40000_ISO
62
7
6
CONTINUOUS
10
556.0039382926
20
241.3038677268
11
557.1273868334
21
241.9524871726
0
LINE
8
40000_ISO
62
7
6
CONTINUOUS
10
318.3642278430
20
378.7123484987
11
318.8677094568
21
378.8361416957
0
LINE
8
40000_ISO
62
7
6
CONTINUOUS
10
300.6864847143
20
388.9183673617
11
301.1899663282
21
389.0421605587
0
LINE
8
40000_ISO
62
7
6
CONTINUOUS
10
705.3035056263
20
158.9388913916
11
705.1686516702
21
159.0639664830
0
LINE
8
40000_ISO
62
7
6
CONTINUOUS
10
712.3094967427
20
160.6180152693
11
712.4443506988
21
160.4929401779
0
LINE
8
40000_ISO
62
7
6
CONTINUOUS
10
589.9220388738
20
222.5209820998
11
590.5617356800
21
221.5625992786
0
LINE
8
40000_ISO
62
7
6
CONTINUOUS
10
607.5997820024
20
212.3149632368
11
608.2394788087
21
211.3565804156
0
LINE
8
40000_ISO
62
7
6
CONTINUOUS
10
625.2775251311
20
202.1089443738
11
625.9172219374
21
201.1505615526
0
LINE
8
40000_ISO
62
7
6
CONTINUOUS
10
536.6811445588
20
253.7568636031
11
536.8888094877
21
253.1390386889
0
LINE
8
40000_ISO
62
7
6
CONTINUOUS
10
554.3588876875
20
243.5508447401
11
554.5665526164
21
242.9330198258
0
LINE
8
40000_ISO
62
7
6
CONTINUOUS
10
548.8145853220
20
246.2538445646
11
549.0222502509
21
246.6318840982
0
LINE
8
40000_ISO
62
7
6
CONTINUOUS
10
566.3561132583
20
235.9518776136
11
566.4923284506
21
236.0478257016
0
LINE
8
40000_ISO
62
7
6
CONTINUOUS
10
565.0549427745
20
236.0783860690
11
566.1783913153
21
236.7270055147
0
LINE
8
40000_ISO
62
7
6
CONTINUOUS
10
573.6816814213
20
231.0978488638
11
574.8051299621
21
231.7464683096
0
LINE
8
40000_ISO
62
7
6
CONTINUOUS
10
582.7326859031
20
225.8723672059
11
583.8561344440
21
226.5209866517
0
LINE
8
40000_ISO
62
7
6
CONTINUOUS
10
283.0087415856
20
399.1243862247
11
283.5122231995
21
399.2481794217
0
LINE
8
40000_ISO
62
7
6
CONTINUOUS
10
265.3309984569
20
409.3304050877
11
265.8344800708
21
409.4541982847
0
LINE
8
40000_ISO
62
7
6
CONTINUOUS
10
642.9552682598
20
191.9029255108
11
643.5949650660
21
190.9445426895
0
LINE
8
40000_ISO
62
7
6
CONTINUOUS
10
660.6330113885
20
181.6969066478
11
661.2727081947
21
180.7385238265
0
LINE
8
40000_ISO
62
7
6
CONTINUOUS
10
678.3107545171
20
171.4908877848
11
678.9504513234
21
170.5325049635
0
LINE
8
90000_FRAME
62
7
6
CONTINUOUS
10
730.1164837387
20
21.0691495518
11
731.8038942633
21
18.1221227201
0
LINE
8
90000_FRAME
62
7
6
CONTINUOUS
10
731.2335019733
20
16.3158804685
11
729.5223251033
21
19.3579726818
0
LINE
8
40000_ISO
62
7
6
CONTINUOUS
10
572.0366308161
20
233.3448258771
11
572.2442957451
21
232.7270009628
0
LINE
8
40000_ISO
62
7
6
CONTINUOUS
10
589.7143739448
20
223.1388070141
11
589.9220388738
21
222.5209820998
0
LINE
8
40000_ISO
62
7
6
CONTINUOUS
10
607.3921170735
20
212.9327881510
11
607.5997820024
21
212.3149632368
0
LINE
8
40000_ISO
62
7
6
CONTINUOUS
10
566.4923284506
20
236.0478257016
11
566.6999933796
21
236.4258652352
0
LINE
8
40000_ISO
62
7
6
CONTINUOUS
10
584.1700715793
20
225.8418068386
11
584.3777365083
21
226.2198463722
0
LINE
8
40000_ISO
62
7
6
CONTINUOUS
10
584.0338563870
20
225.7458587506
11
584.1700715793
21
225.8418068386
0
LINE
8
40000_ISO
62
7
6
CONTINUOUS
10
601.7115995156
20
215.5398398876
11
601.8478147080
21
215.6357879756
0
LINE
8
40000_ISO
62
7
6
CONTINUOUS
10
591.3594245499
20
220.8918300008
11
592.4828730908
21
221.5404494465
0
LINE
8
40000_ISO
62
7
6
CONTINUOUS
10
600.4104290318
20
215.6663483429
11
601.5338775727
21
216.3149677887
0
LINE
8
40000_ISO
62
7
6
CONTINUOUS
10
609.0371676786
20
210.6858111378
11
610.1606162195
21
211.3344305835
0
LINE
8
40000_ISO
62
7
6
CONTINUOUS
10
618.0881721605
20
205.4603294799
11
619.2116207013
21
206.1089489257
0
LINE
8
40000_ISO
62
7
6
CONTINUOUS
10
247.6532553283
20
419.5364239507
11
248.1567369421
21
419.6602171477
0
LINE
8
40000_ISO
62
7
6
CONTINUOUS
10
229.9755121996
20
429.7424428137
11
230.4789938135
21
429.8662360107
0
LINE
8
40000_ISO
62
7
6
CONTINUOUS
10
695.9884976458
20
161.2848689218
11
696.6281944520
21
160.3264861005
0
LINE
8
40000_ISO
62
7
6
CONTINUOUS
10
707.9142734800
20
157.0468956349
11
707.2745766738
21
158.0052784562
0
LINE
8
40000_ISO
62
7
6
CONTINUOUS
10
703.6859323180
20
157.6371685008
11
703.9077413663
21
157.2860513484
0
LINE
8
40000_ISO
62
7
6
CONTINUOUS
10
713.9270700510
20
161.9197381602
11
713.7052610027
21
162.2708553125
0
LINE
8
90000_FRAME
62
7
6
CONTINUOUS
10
719.5642263739
20
16.2683477777
11
718.2333110305
21
19.3579726818
0
LINE
8
90000_FRAME
62
7
6
CONTINUOUS
10
718.9938340839
20
21.0691495518
11
720.2296840455
21
18.1696554110
0
LINE
8
40000_ISO
62
7
6
CONTINUOUS
10
625.0698602022
20
202.7267692880
11
625.2775251311
21
202.1089443738
0
LINE
8
40000_ISO
62
7
6
CONTINUOUS
10
642.7476033308
20
192.5207504250
11
642.9552682598
21
191.9029255108
0
LINE
8
40000_ISO
62
7
6
CONTINUOUS
10
601.8478147080
20
215.6357879756
11
602.0554796369
21
216.0138275092
0
LINE
8
40000_ISO
62
7
6
CONTINUOUS
10
619.3893426443
20
205.3338210245
11
619.5255578367
21
205.4297691125
0
LINE
8
40000_ISO
62
7
6
CONTINUOUS
10
637.0670857730
20
195.1278021615
11
637.2033009653
21
195.2237502495
0
LINE
8
40000_ISO
62
7
6
CONTINUOUS
10
626.7149108073
20
200.4797922748
11
627.8383593481
21
201.1284117205
0
LINE
8
40000_ISO
62
7
6
CONTINUOUS
10
635.7659152892
20
195.2543106169
11
636.8893638300
21
195.9029300627
0
LINE
8
40000_ISO
62
7
6
CONTINUOUS
10
644.3926539360
20
190.2737734118
11
645.5161024768
21
190.9223928575
0
LINE
8
40000_ISO
62
7
6
CONTINUOUS
10
212.2977690709
20
439.9484616767
11
212.8012506848
21
440.0722548737
0
LINE
8
40000_ISO
62
7
6
CONTINUOUS
10
194.6200259422
20
450.1544805397
11
195.1235075561
21
450.2782737367
0
LINE
8
40000_ISO
62
7
6
CONTINUOUS
10
126.1419552646
20
501.4930333970
11
125.7269797228
21
501.5095745109
0
LINE
8
40000_ISO
62
7
6
CONTINUOUS
10
705.1686516702
20
159.0639664830
11
705.0838837037
21
159.2513357661
0
LINE
8
40000_ISO
62
7
6
CONTINUOUS
10
660.4253464595
20
182.3147315620
11
660.6330113885
21
181.6969066478
0
LINE
8
40000_ISO
62
7
6
CONTINUOUS
10
678.1030895882
20
172.1087126990
11
678.3107545171
21
171.4908877848
0
LINE
8
40000_ISO
62
7
6
CONTINUOUS
10
619.5255578367
20
205.4297691125
11
619.7332227656
21
205.8078086462
0
LINE
8
40000_ISO
62
7
6
CONTINUOUS
10
654.7448289017
20
184.9217832985
11
654.8810440940
21
185.0177313865
0
LINE
8
40000_ISO
62
7
6
CONTINUOUS
10
653.4436584178
20
185.0482917539
11
654.5671069587
21
185.6969111997
0
LINE
8
40000_ISO
62
7
6
CONTINUOUS
10
662.0703970646
20
180.0677545488
11
663.1938456055
21
180.7163739945
0
LINE
8
40000_ISO
62
7
6
CONTINUOUS
10
671.1214015465
20
174.8422728909
11
672.2448500874
21
175.4908923367
0
LINE
8
40000_ISO
62
7
6
CONTINUOUS
10
176.9422828136
20
460.3604994027
11
177.4457644274
21
460.4842925997
0
LINE
8
40000_ISO
62
7
6
CONTINUOUS
10
159.2645396849
20
470.5665182657
11
159.7680212988
21
470.6903114627
0
LINE
8
40000_ISO
62
7
6
CONTINUOUS
10
712.4443506988
20
160.4929401779
11
712.5291186654
21
160.3055708948
0
LINE
8
40000_ISO
62
7
6
CONTINUOUS
10
695.7808327169
20
161.9026938360
11
695.9884976458
21
161.2848689218
0
LINE
8
40000_ISO
62
7
6
CONTINUOUS
10
708.2692784247
20
155.9907187417
11
707.9142734800
21
157.0468956349
0
LINE
8
40000_ISO
62
7
6
CONTINUOUS
10
703.5493429805
20
158.0782474024
11
703.6859323180
21
157.6371685008
0
LINE
8
91000_TIP
62
7
6
CONTINUOUS
10
669.7690054113
20
20.5214774899
11
669.7690054113
21
15.5214775920
0
LINE
8
91000_TIP
62
7
6
CONTINUOUS
10
679.7690052071
20
23.0214774388
11
679.7690052071
21
13.0214776430
0
LINE
8
91000_TIP
62
7
6
CENTER
10
686.2690050743
20
12.2999963345
11
686.2690050743
21
23.5833823345
0
LINE
8
40000_ISO
62
7
6
CONTINUOUS
10
637.2033009653
20
195.2237502495
11
637.4109658943
21
195.6017897832
0
LINE
8
40000_ISO
62
7
6
CONTINUOUS
10
654.8810440940
20
185.0177313865
11
655.0887090230
21
185.3957709201
0
LINE
8
40000_ISO
62
7
6
CONTINUOUS
10
672.4225720303
20
174.7157644355
11
672.5587872227
21
174.8117125235
0
LINE
8
40000_ISO
62
7
6
CONTINUOUS
10
690.1003151590
20
164.5097455725
11
690.2365303514
21
164.6056936605
0
LINE
8
40000_ISO
62
7
6
CONTINUOUS
10
679.7481401933
20
169.8617356858
11
680.8715887342
21
170.5103551315
0
LINE
8
40000_ISO
62
7
6
CONTINUOUS
10
688.7991446752
20
164.6362540279
11
689.9225932160
21
165.2848734736
0
LINE
8
40000_ISO
62
7
6
CONTINUOUS
10
697.4258833220
20
159.6557168227
11
698.5493318628
21
160.3043362685
0
LINE
8
40000_ISO
62
7
6
CONTINUOUS
10
704.2103262426
20
162.5115421861
11
703.5032224054
21
162.1032980322
0
LINE
8
40000_ISO
62
7
6
CONTINUOUS
10
711.7095068355
20
162.3504069815
11
705.9034955335
21
158.9983248026
0
LINE
8
40000_ISO
62
7
6
CONTINUOUS
10
705.9034955335
20
157.2064996794
11
711.7095068355
21
160.5585818583
0
LINE
8
40000_ISO
62
7
6
CONTINUOUS
10
706.4768878039
20
154.4302351649
11
708.0286363273
21
155.3261322449
0
LINE
8
40000_ISO
62
7
6
CONTINUOUS
10
712.1777768930
20
162.5675051561
11
711.7095068355
21
162.3504069815
0
LINE
8
40000_ISO
62
7
6
CONTINUOUS
10
705.4352254760
20
156.9894015048
11
705.9034955335
21
157.2064996794
0
LINE
8
40000_ISO
62
7
6
CONTINUOUS
10
705.9034955335
20
158.9983248026
11
705.6838812056
21
158.9049171423
0
LINE
8
40000_ISO
62
7
6
CONTINUOUS
10
711.7095068355
20
160.5585818583
11
711.9291211634
21
160.6519895186
0
LINE
8
40000_ISO
62
7
6
CONTINUOUS
10
141.5867965562
20
480.7725371287
11
142.0902781701
21
480.8963303258
0
LINE
8
40000_ISO
62
7
6
CONTINUOUS
10
125.7269797228
20
501.5095745109
11
125.2767050210
21
501.4073314080
0
LINE
8
40000_ISO
62
7
6
CONTINUOUS
10
714.0636593885
20
161.4786592585
11
713.9270700510
21
161.9197381602
0
LINE
8
40000_ISO
62
7
6
CONTINUOUS
10
705.0838837037
20
159.2513357661
11
704.2103262426
21
162.5115421861
0
LINE
8
40000_ISO
62
7
6
CONTINUOUS
10
703.5032224054
20
158.5923376386
11
703.5493429805
21
158.0782474024
0
LINE
8
40000_ISO
62
7
6
CONTINUOUS
10
714.1097799636
20
160.9645690224
11
714.0636593885
21
161.4786592585
0
LINE
8
90000_FRAME
62
7
6
CONTINUOUS
10
696.0000000000
20
10.0000000000
11
696.0000000000
21
28.0000000000
0
LINE
8
40000_ISO
62
7
6
CONTINUOUS
10
703.5032224054
20
162.1032980322
11
703.5032224054
21
158.5923376386
0
LINE
8
40000_ISO
62
7
6
CONTINUOUS
10
703.5032224054
20
137.0366738263
11
703.5032224054
21
133.5257134327
0
LINE
8
90000_FRAME
62
7
6
CONTINUOUS
10
705.9698767957
20
16.4109458502
11
705.9698767957
21
17.3615996668
0
LINE
8
40000_ISO
62
7
6
CONTINUOUS
10
708.2692784247
20
155.0459365635
11
708.2692784247
21
155.9907187417
0
LINE
8
90000_FRAME
62
7
6
CONTINUOUS
10
709.2971651540
20
20.0709630443
11
709.2971651540
21
21.0216168609
0
LINE
8
90000_FRAME
62
7
6
CONTINUOUS
10
710.3904170431
20
21.0691495518
11
710.3904170431
21
16.3158804685
0
LINE
8
90000_FRAME
62
7
6
CONTINUOUS
10
711.8163977681
20
21.0691495518
11
711.8163977681
21
16.3158804685
0
LINE
8
40000_ISO
62
7
6
CONTINUOUS
10
712.5580314401
20
160.0686719424
11
712.5580314401
21
146.0158699787
0
LINE
8
90000_FRAME
62
7
6
CONTINUOUS
10
712.9096496573
20
21.0691495518
11
712.9096496573
21
16.3158804685
0
LINE
8
40000_ISO
62
7
6
CONTINUOUS
10
714.1097799636
20
146.9117670587
11
714.1097799636
21
160.9645690224
0
LINE
8
90000_FRAME
62
7
6
CONTINUOUS
10
714.2880976914
20
20.1897947714
11
714.2880976914
21
19.1203092276
0
LINE
8
90000_FRAME
62
7
6
CONTINUOUS
10
714.2880976914
20
18.3360198289
11
714.2880976914
21
17.2190015943
0
LINE
8
90000_FRAME
62
7
6
CONTINUOUS
10
716.1418726339
20
19.1203092276
11
716.1418726339
21
18.3360198289
0
LINE
8
90000_FRAME
62
7
6
CONTINUOUS
10
716.4270687789
20
21.0691495518
11
716.4270687789
21
20.1897947714
0
LINE
8
90000_FRAME
62
7
6
CONTINUOUS
10
716.4746014697
20
17.2190015943
11
716.4746014697
21
16.3158804685
0
LINE
8
90000_FRAME
62
7
6
CONTINUOUS
10
717.2826572139
20
16.3158804685
11
717.2826572139
21
21.0691495518
0
LINE
8
40000_ISO
62
7
6
CONTINUOUS
10
703.5493429805
20
137.6040191975
11
703.5032224054
21
137.0366738263
0
LINE
8
40000_ISO
62
7
6
CONTINUOUS
10
672.5587872227
20
174.8117125235
11
672.7664521516
21
175.1897520571
0
LINE
8
40000_ISO
62
7
6
CONTINUOUS
10
711.9291211634
20
144.7063537022
11
711.7095068355
21
144.5461740935
0
LINE
8
40000_ISO
62
7
6
CONTINUOUS
10
705.6838812056
20
139.2420871828
11
705.9034955335
21
139.4022667915
0
LINE
8
40000_ISO
62
7
6
CONTINUOUS
10
707.7780582877
20
154.3037267095
11
707.9142734800
21
154.3996747975
0
LINE
8
40000_ISO
62
7
6
CONTINUOUS
10
705.9034955335
20
141.1940919146
11
705.4352254760
21
140.8704816294
0
LINE
8
40000_ISO
62
7
6
CONTINUOUS
10
711.7095068355
20
142.7543489704
11
712.1777768930
21
143.0779592556
0
LINE
8
40000_ISO
62
7
6
CONTINUOUS
10
711.7095068355
20
144.5461740935
11
705.9034955335
21
141.1940919146
0
LINE
8
40000_ISO
62
7
6
CONTINUOUS
10
705.9034955335
20
139.4022667915
11
711.7095068355
21
142.7543489704
0
LINE
8
40000_ISO
62
7
6
CONTINUOUS
10
703.5032224054
20
133.5257134327
11
704.2103262426
21
133.9339575865
0
LINE
8
90000_FRAME
62
7
6
CONTINUOUS
10
836.0000000000
20
589.0000000000
11
5.0000000000
21
589.0000000000
0
LINE
8
90000_FRAME
62
7
6
CONTINUOUS
10
841.0000000000
20
594.0000000000
11
0.0000000000
21
594.0000000000
0
LINE
8
40000_ISO
62
7
6
CONTINUOUS
10
712.5291186654
20
160.3055708948
11
712.5580314401
21
160.0686719424
0
LINE
8
90000_FRAME
62
7
6
CONTINUOUS
10
718.2333110305
20
16.3158804685
11
718.2333110305
21
19.3579726818
0
LINE
8
90000_FRAME
62
7
6
CONTINUOUS
10
721.7507301522
20
19.4055053726
11
721.7507301522
21
16.3158804685
0
LINE
8
90000_FRAME
62
7
6
CONTINUOUS
10
723.1291781863
20
21.0691495518
11
723.1291781863
21
16.3158804685
0
LINE
8
90000_FRAME
62
7
6
CONTINUOUS
10
724.2224300755
20
21.0691495518
11
724.2224300755
21
16.3158804685
0
LINE
8
90000_FRAME
62
7
6
CONTINUOUS
10
725.6008781096
20
20.1897947714
11
725.6008781096
21
19.1203092276
0
LINE
8
90000_FRAME
62
7
6
CONTINUOUS
10
725.6008781096
20
18.3360198289
11
725.6008781096
21
17.2190015943
0
LINE
8
90000_FRAME
62
7
6
CONTINUOUS
10
727.4546530521
20
19.1203092276
11
727.4546530521
21
18.3360198289
0
LINE
8
90000_FRAME
62
7
6
CONTINUOUS
10
727.7398491971
20
21.0691495518
11
727.7398491971
21
20.1897947714
0
LINE
8
90000_FRAME
62
7
6
CONTINUOUS
10
727.7873818879
20
17.2190015943
11
727.7873818879
21
16.3158804685
0
LINE
8
90000_FRAME
62
7
6
CONTINUOUS
10
728.5716712867
20
16.3158804685
11
728.5716712867
21
21.0691495518
0
LINE
8
90000_FRAME
62
7
6
CONTINUOUS
10
729.5223251033
20
16.3158804685
11
729.5223251033
21
19.3579726818
0
LINE
8
90000_FRAME
62
7
6
CONTINUOUS
10
731.8038942633
20
21.0691495518
11
731.8038942633
21
18.1221227201
0
LINE
8
90000_FRAME
62
7
6
CONTINUOUS
10
732.7545480800
20
21.0691495518
11
732.7545480800
21
16.3158804685
0
LINE
8
90000_FRAME
62
7
6
CONTINUOUS
10
733.5626038241
20
16.4109458502
11
733.5626038241
21
17.3615996668
0
LINE
8
90000_FRAME
62
7
6
CONTINUOUS
10
736.8898921824
20
20.0709630443
11
736.8898921824
21
21.0216168609
0
LINE
8
90000_FRAME
62
7
6
CONTINUOUS
10
746.0000000000
20
10.0000000000
11
746.0000000000
21
28.0000000000
0
LINE
8
40000_ISO
62
7
6
CONTINUOUS
10
714.0636593885
20
146.3444216875
11
714.1097799636
21
146.9117670587
0
LINE
8
40000_ISO
62
7
6
CONTINUOUS
10
712.5580314401
20
146.0158699787
11
712.5291186654
21
145.7455856289
0
LINE
8
40000_ISO
62
7
6
CONTINUOUS
10
704.2103262426
20
133.9339575865
11
705.0838837037
21
138.2028552561
0
LINE
8
40000_ISO
62
7
6
CONTINUOUS
10
703.6859323180
20
138.2028169392
11
703.5493429805
21
137.6040191975
0
LINE
8
40000_ISO
62
7
6
CONTINUOUS
10
713.9270700510
20
145.7456239458
11
714.0636593885
21
146.3444216875
0
LINE
8
40000_ISO
62
7
6
CONTINUOUS
10
705.0838837037
20
138.2028552561
11
705.1686516702
21
138.4881055714
0
LINE
8
40000_ISO
62
7
6
CONTINUOUS
10
712.5291186654
20
145.7455856289
11
712.4443506988
21
145.4603353136
0
LINE
8
40000_ISO
62
7
6
CONTINUOUS
10
703.9077413663
20
138.8100555902
11
703.6859323180
21
138.2028169392
0
LINE
8
40000_ISO
62
7
6
CONTINUOUS
10
705.1686516702
20
138.4881055714
11
705.3034980316
21
138.7688825146
0
LINE
8
40000_ISO
62
7
6
CONTINUOUS
10
704.2062461279
20
139.4023993094
11
703.9077413663
21
138.8100555902
0
LINE
8
40000_ISO
62
7
6
CONTINUOUS
10
690.2365303514
20
164.6056936605
11
690.4441952803
21
164.9837331941
0
LINE
8
40000_ISO
62
7
6
CONTINUOUS
10
707.9142734800
20
154.3996747975
11
708.2692784247
21
155.0459365635
0
LINE
8
40000_ISO
62
7
6
CONTINUOUS
10
704.5699752324
20
139.9570846601
11
704.2062461279
21
139.4023993094
0
LINE
8
40000_ISO
62
7
6
CONTINUOUS
10
705.3034980316
20
138.7688825146
11
705.4792332312
21
139.0260516012
0
LINE
8
40000_ISO
62
7
6
CONTINUOUS
10
712.3095043374
20
145.1795583704
11
712.1337691378
21
144.9223892838
0
LINE
8
40000_ISO
62
7
6
CONTINUOUS
10
704.9849507742
20
140.4527953953
11
704.5699752324
21
139.9570846601
0
LINE
8
40000_ISO
62
7
6
CONTINUOUS
10
712.6280515948
20
143.4956454897
11
713.0430271366
21
143.9913562248
0
LINE
8
40000_ISO
62
7
6
CONTINUOUS
10
705.4792332312
20
139.0260516012
11
705.6838812056
21
139.2420871828
0
LINE
8
40000_ISO
62
7
6
CONTINUOUS
10
712.1337691378
20
144.9223892838
11
711.9291211634
21
144.7063537022
0
LINE
8
40000_ISO
62
7
6
CONTINUOUS
10
705.4352254760
20
140.8704816294
11
704.9849507742
21
140.4527953953
0
LINE
8
40000_ISO
62
7
6
CONTINUOUS
10
712.1777768930
20
143.0779592556
11
712.6280515948
21
143.4956454897
0
LINE
8
40000_ISO
62
7
6
CONTINUOUS
10
713.7052610027
20
145.1383852948
11
713.9270700510
21
145.7456239458
0
LINE
8
40000_ISO
62
7
6
CONTINUOUS
10
712.4443506988
20
145.4603353136
11
712.3095043374
21
145.1795583704
0
LINE
8
40000_ISO
62
7
6
CONTINUOUS
10
713.4067562411
20
144.5460415756
11
713.7052610027
21
145.1383852948
0
LINE
8
40000_ISO
62
7
6
CONTINUOUS
10
713.0430271366
20
143.9913562248
11
713.4067562411
21
144.5460415756
0
LINE
8
90000_FRAME
62
7
6
CONTINUOUS
10
788.5000000000
20
10.0000000000
11
788.5000000000
21
16.0000000000
0
LINE
8
90000_FRAME
62
7
6
CONTINUOUS
10
721.4180013163
20
21.0691495518
11
720.2296840455
21
18.1696554110
0
LINE
8
90000_FRAME
62
7
6
CONTINUOUS
10
831.0000000000
20
10.0000000000
11
831.0000000000
21
28.0000000000
0
LINE
8
90000_FRAME
62
7
6
CONTINUOUS
10
836.0000000000
20
5.0000000000
11
836.0000000000
21
589.0000000000
0
LINE
8
90000_FRAME
62
7
6
CONTINUOUS
10
841.0000000000
20
0.0000000000
11
841.0000000000
21
594.0000000000
0
LINE
8
90000_FRAME
62
7
6
CONTINUOUS
10
721.7507301522
20
19.4055053726
11
720.4198148089
21
16.2683477777
0
LINE
8
90000_FRAME
62
7
6
CONTINUOUS
10
706.1617053850
20
20.4883440109
11
706.4357712096
21
20.7624170885
0
ARC
8
90000_FRAME
62
7
6
CONTINUOUS
10
735.2672449491
20
18.2730390135
40
1.1116193606
50
277.7099956934
51
295.6884927746
0
ARC
8
90000_FRAME
62
7
6
CONTINUOUS
10
735.5515549319
20
17.5482132499
40
0.3401689265
50
305.5032212550
51
72.4652898523
0
ARC
8
90000_FRAME
62
7
6
CONTINUOUS
10
734.9855611237
20
20.9499201595
40
4.7567946411
50
252.5939200548
51
280.9816604256
0
ARC
8
90000_FRAME
62
7
6
CONTINUOUS
10
735.4403964868
20
18.3319064230
40
2.1007265953
50
282.4058358520
51
311.8644433928
0
ARC
8
90000_FRAME
62
7
6
CONTINUOUS
10
735.1668321397
20
19.9402481445
40
0.3029626476
50
154.4400348282
51
221.8201698801
0
ARC
8
90000_FRAME
62
7
6
CONTINUOUS
10
735.2460532911
20
19.8610269931
40
0.4103089737
50
102.8287828681
51
149.2259639003
0
ARC
8
90000_FRAME
62
7
6
CONTINUOUS
10
735.6630801268
20
18.1186916633
40
2.2018365570
50
84.0400061857
51
103.3427657871
0
ARC
8
90000_FRAME
62
7
6
CONTINUOUS
10
735.3221163020
20
15.7013277394
40
4.6423737365
50
70.2625858546
51
82.9524186380
0
ARC
8
90000_FRAME
62
7
6
CONTINUOUS
10
734.8080980999
20
20.3729506290
40
3.2587559909
50
247.5300206145
51
280.7579522142
0
ARC
8
90000_FRAME
62
7
6
CONTINUOUS
10
728.4231316278
20
2.1214306686
40
17.3316084133
50
65.3414674650
51
67.3997770736
0
ARC
8
90000_FRAME
62
7
6
CONTINUOUS
10
739.2189940332
20
27.9138570317
40
10.6291642039
50
242.8620101252
51
247.1042029186
0
ARC
8
90000_FRAME
62
7
6
CONTINUOUS
10
735.3640928067
20
20.3799255347
40
2.1662916292
50
227.3119280794
51
242.7040315235
0
ARC
8
90000_FRAME
62
7
6
CONTINUOUS
10
734.7600619970
20
19.6742478939
40
1.2385217340
50
194.7952194236
51
225.7176549047
0
ARC
8
90000_FRAME
62
7
6
CONTINUOUS
10
734.8222201312
20
19.7144678630
40
1.3090920729
50
164.1974860461
51
195.8025139539
0
ARC
8
90000_FRAME
62
7
6
CONTINUOUS
10
735.3792438519
20
18.8262007031
40
2.3669248153
50
86.2218022928
51
120.4272602309
0
ARC
8
90000_FRAME
62
7
6
CONTINUOUS
10
735.1103870694
20
12.1300328820
40
9.0679051661
50
78.6827049226
51
87.3147599624
0
ARC
8
90000_FRAME
62
7
6
CONTINUOUS
10
734.6543178909
20
19.8219756256
40
1.1197474440
50
142.8139179030
51
167.1522951417
0
ARC
8
90000_FRAME
62
7
6
CONTINUOUS
10
734.9996272325
20
19.5153939289
40
1.5805466845
50
121.2140948535
51
141.5254768286
0
ARC
8
90000_FRAME
62
7
6
CONTINUOUS
10
735.5768015981
20
20.3264512575
40
0.8661276052
50
222.7760387596
51
239.0362434679
0
ARC
8
90000_FRAME
62
7
6
CONTINUOUS
10
733.0700920198
20
12.9961790590
40
6.8587735763
50
59.9020272560
51
68.2036481279
0
ARC
8
90000_FRAME
62
7
6
CONTINUOUS
10
736.4785865137
20
21.9220655662
40
2.6987410171
50
240.0481997804
51
251.3779673737
0
ARC
8
90000_FRAME
62
7
6
CONTINUOUS
10
735.8131293469
20
17.7651669508
40
1.4334474881
50
315.8904553224
51
333.5229264373
0
ARC
8
90000_FRAME
62
7
6
CONTINUOUS
10
735.8177675906
20
17.7117598007
40
1.4062287119
50
335.3867972702
51
24.3915119402
0
ARC
8
90000_FRAME
62
7
6
CONTINUOUS
10
735.7455626871
20
17.6339031089
40
1.5047025148
50
25.9562916605
51
59.4834829668
0
ARC
8
90000_FRAME
62
7
6
CONTINUOUS
10
707.6745179207
20
18.2730390135
40
1.1116193606
50
277.7099956934
51
295.6884927746
0
ARC
8
90000_FRAME
62
7
6
CONTINUOUS
10
707.9588279034
20
17.5482132499
40
0.3401689265
50
305.5032212557
51
72.4652898515
0
ARC
8
90000_FRAME
62
7
6
CONTINUOUS
10
707.3928340953
20
20.9499201595
40
4.7567946411
50
252.5939200545
51
280.9816604253
0
ARC
8
90000_FRAME
62
7
6
CONTINUOUS
10
707.8476694584
20
18.3319064230
40
2.1007265953
50
282.4058358513
51
311.8644433923
0
ARC
8
90000_FRAME
62
7
6
CONTINUOUS
10
707.5741051113
20
19.9402481445
40
0.3029626476
50
154.4400348282
51
221.8201698801
0
ARC
8
90000_FRAME
62
7
6
CONTINUOUS
10
707.6533262627
20
19.8610269931
40
0.4103089737
50
102.8287828727
51
149.2259639027
0
ARC
8
90000_FRAME
62
7
6
CONTINUOUS
10
708.0703530983
20
18.1186916633
40
2.2018365570
50
84.0400061859
51
103.3427657872
0
ARC
8
90000_FRAME
62
7
6
CONTINUOUS
10
707.7293892736
20
15.7013277394
40
4.6423737365
50
70.2625858546
51
82.9524186379
0
ARC
8
90000_FRAME
62
7
6
CONTINUOUS
10
707.2153710714
20
20.3729506290
40
3.2587559909
50
247.5300206148
51
280.7579522145
0
ARC
8
90000_FRAME
62
7
6
CONTINUOUS
10
700.8304045994
20
2.1214306686
40
17.3316084133
50
65.3414674650
51
67.3997770736
0
ARC
8
90000_FRAME
62
7
6
CONTINUOUS
10
711.6262670048
20
27.9138570317
40
10.6291642039
50
242.8620101252
51
247.1042029185
0
ARC
8
90000_FRAME
62
7
6
CONTINUOUS
10
707.7713657782
20
20.3799255347
40
2.1662916292
50
227.3119280794
51
242.7040315235
0
ARC
8
90000_FRAME
62
7
6
CONTINUOUS
10
707.1673349686
20
19.6742478939
40
1.2385217340
50
194.7952194234
51
225.7176549042
0
ARC
8
90000_FRAME
62
7
6
CONTINUOUS
10
707.7865168234
20
18.8262007031
40
2.3669248153
50
86.2218022928
51
120.4272602309
0
ARC
8
90000_FRAME
62
7
6
CONTINUOUS
10
707.5176600409
20
12.1300328820
40
9.0679051661
50
78.6827049226
51
87.3147599624
0
ARC
8
90000_FRAME
62
7
6
CONTINUOUS
10
707.4069002041
20
19.5153939289
40
1.5805466846
50
121.2140948541
51
141.5254768290
0
ARC
8
90000_FRAME
62
7
6
CONTINUOUS
10
707.9840745697
20
20.3264512575
40
0.8661276052
50
222.7760387596
51
239.0362434679
0
ARC
8
90000_FRAME
62
7
6
CONTINUOUS
10
705.4773649914
20
12.9961790590
40
6.8587735763
50
59.9020272562
51
68.2036481282
0
ARC
8
90000_FRAME
62
7
6
CONTINUOUS
10
708.8858594852
20
21.9220655662
40
2.6987410171
50
240.0481997804
51
251.3779673734
0
ARC
8
90000_FRAME
62
7
6
CONTINUOUS
10
708.2204023184
20
17.7651669508
40
1.4334474881
50
315.8904553226
51
333.5229264375
0
ARC
8
90000_FRAME
62
7
6
CONTINUOUS
10
708.2250405622
20
17.7117598007
40
1.4062287119
50
335.3867972703
51
24.3915119403
0
ARC
8
90000_FRAME
62
7
6
CONTINUOUS
10
708.1528356587
20
17.6339031089
40
1.5047025147
50
25.9562916611
51
59.4834829676
0
ARC
8
90000_FRAME
62
7
6
CONTINUOUS
10
707.2294931027
20
19.7144678630
40
1.3090920729
50
164.1974860461
51
195.8025139539
0
ARC
8
90000_FRAME
62
7
6
CONTINUOUS
10
707.0615908625
20
19.8219756256
40
1.1197474440
50
142.8139179030
51
167.1522951417
0
CIRCLE
8
91000_TIP
62
7
6
CONTINUOUS
10
686.2690050743
20
18.0214775409
40
4.9999998979
0
CIRCLE
8
91000_TIP
62
7
6
CONTINUOUS
10
686.2690050743
20
18.0214775409
40
2.4999999489
0
ENDSEC
0
EOF
